SplineFontDB: 3.0
FontName: ArchivoNarrowDeva-Regular
FullName: Archivo Narrow Deva Regular
FamilyName: Archivo Narrow Deva
Weight: Regular
Copyright: Copyright (c) 2012-2014, Omnibus-Type (www.omnibus-type.com omnibus.type@gmail.com) with Reserved Font Name 'Archivo'
Version: 001.004
ItalicAngle: 0
UnderlinePosition: -50
UnderlineWidth: 50
Ascent: 800
Descent: 200
sfntRevision: 0x00010106
LayerCount: 2
Layer: 0 0 "Back"  1
Layer: 1 0 "Fore"  0
XUID: [1021 191 1600663927 9389600]
FSType: 8
OS2Version: 3
OS2_WeightWidthSlopeOnly: 0
OS2_UseTypoMetrics: 1
CreationTime: 1406327354
ModificationTime: 1406405725
PfmFamily: 33
TTFWeight: 400
TTFWidth: 5
LineGap: 0
VLineGap: 0
Panose: 0 0 4 0 0 0 0 0 0 0
OS2TypoAscent: 827
OS2TypoAOffset: 0
OS2TypoDescent: -404
OS2TypoDOffset: 0
OS2TypoLinegap: 0
OS2WinAscent: 827
OS2WinAOffset: 0
OS2WinDescent: 404
OS2WinDOffset: 0
HheadAscent: 827
HheadAOffset: 0
HheadDescent: -404
HheadDOffset: 0
OS2SubXSize: 650
OS2SubYSize: 600
OS2SubXOff: 0
OS2SubYOff: 75
OS2SupXSize: 650
OS2SupYSize: 600
OS2SupXOff: 0
OS2SupYOff: 350
OS2StrikeYSize: 50
OS2StrikeYPos: 279
OS2Vendor: 'Omni'
OS2CodePages: 20000093.00000000
OS2UnicodeRanges: 00008007.00000000.00000000.00000000
Lookup: 1 0 0 "'aalt' Access All Alternates lookup 0"  {"'aalt' Access All Alternates lookup 0 subtable"  } ['aalt' ('DFLT' <'dflt' > 'dev2' <'dflt' > 'grek' <'dflt' > 'latn' <'CAT ' 'MOL ' 'ROM ' 'dflt' > ) ]
Lookup: 3 0 0 "'aalt' Access All Alternates lookup 1"  {"'aalt' Access All Alternates lookup 1 subtable"  } ['aalt' ('DFLT' <'dflt' > 'dev2' <'dflt' > 'grek' <'dflt' > 'latn' <'CAT ' 'MOL ' 'ROM ' 'dflt' > ) ]
Lookup: 4 0 0 "Ligature Substitution lookup 2"  {"Ligature Substitution lookup 2 subtable"  } []
Lookup: 4 0 0 "'ccmp' Glyph Composition/Decomposition lookup 3"  {"'ccmp' Glyph Composition/Decomposition lookup 3 subtable"  } ['ccmp' ('DFLT' <'dflt' > 'dev2' <'dflt' > 'grek' <'dflt' > 'latn' <'CAT ' 'MOL ' 'ROM ' 'dflt' > ) ]

StartChar: .notdef
Encoding: 65536 -1 0
Width: 442
Flags: MW
HStem: 0 44<71 371 71 442> 575 44<71 371 71 71>
VStem: 0 44<84 535 84 619> 398 44<84 535 535 535>
LayerCount: 2
Fore
SplineSet
0 619 m 1
 442 619 l 1
 442 0 l 1
 0 0 l 1
 0 619 l 1
371 575 m 1
 71 575 l 1
 221 349 l 1
 371 575 l 1
44 535 m 1
 44 84 l 1
 194 309 l 1
 44 535 l 1
398 535 m 1
 248 309 l 1
 398 84 l 1
 398 535 l 1
221 270 m 1
 71 44 l 1
 371 44 l 1
 221 270 l 1
EndSplineSet
EndChar

StartChar: A
Encoding: 65 65 1
Width: 473
GlyphClass: 2
Flags: MW
HStem: 140 62<129 336 129 356 110 336> 554 52<231 234 231 231>
VStem: -1 474<0 0>
AnchorPoint: "Anchor-1" 0 0 basechar 0
AnchorPoint: "Anchor-0" 236 606 basechar 0
LayerCount: 2
Fore
SplineSet
398 0 m 1
 356 140 l 1
 110 140 l 1
 67 0 l 1
 -1 0 l 1
 191 606 l 1
 282 606 l 1
 473 0 l 1
 398 0 l 1
234 554 m 1
 231 554 l 1
 231 554 223 508 218 492 c 2
 129 202 l 1
 336 202 l 1
 248 492 l 2
 242 508 234 554 234 554 c 1
EndSplineSet
Substitution2: "Single Substitution lookup 21 subtable" ordfeminine
Substitution2: "'aalt' Access All Alternates lookup 0 subtable" ordfeminine
Position2: "'cpsp' Capital Spacing lookup 0 subtable" dx=5 dy=0 dh=10 dv=0
EndChar

StartChar: Aacute
Encoding: 193 193 2
Width: 473
GlyphClass: 2
Flags: MW
HStem: 140 62<129 336 129 356 110 336> 554 52<231 234 231 231> 664 117<185 334 185 334>
VStem: -1 474<0 0>
LayerCount: 2
Fore
SplineSet
239 664 m 1
 185 664 l 1
 261 781 l 1
 334 781 l 1
 335 778 l 1
 239 664 l 1
398 0 m 1
 356 140 l 1
 110 140 l 1
 67 0 l 1
 -1 0 l 1
 191 606 l 1
 282 606 l 1
 473 0 l 1
 398 0 l 1
234 554 m 1
 231 554 l 1
 231 554 223 508 218 492 c 2
 129 202 l 1
 336 202 l 1
 248 492 l 2
 242 508 234 554 234 554 c 1
EndSplineSet
Position2: "'cpsp' Capital Spacing lookup 0 subtable" dx=5 dy=0 dh=10 dv=0
EndChar

StartChar: Abreve
Encoding: 258 258 3
Width: 473
GlyphClass: 2
Flags: MW
HStem: 140 62<129 336 129 356 110 336> 554 52<231 234 231 231> 698 53<220.5 250 220.5 268.5>
VStem: -1 474<0 0>
LayerCount: 2
Fore
SplineSet
288 781 m 1
 342 781 l 1
 342 742 302 698 235 698 c 0
 170 698 130 742 130 781 c 1
 183 781 l 1
 186 768 206 751 235 751 c 0
 265 751 287 768 288 781 c 1
398 0 m 1
 356 140 l 1
 110 140 l 1
 67 0 l 1
 -1 0 l 1
 191 606 l 1
 282 606 l 1
 473 0 l 1
 398 0 l 1
234 554 m 1
 231 554 l 1
 231 554 223 508 218 492 c 2
 129 202 l 1
 336 202 l 1
 248 492 l 2
 242 508 234 554 234 554 c 1
EndSplineSet
Position2: "'cpsp' Capital Spacing lookup 0 subtable" dx=5 dy=0 dh=10 dv=0
EndChar

StartChar: Acircumflex
Encoding: 194 194 4
Width: 473
GlyphClass: 2
Flags: MW
HStem: 140 62<129 336 129 356 110 336> 554 52<231 234 231 231> 660 120<129 268 129 268 205 343 205 275>
VStem: -1 474<0 0>
LayerCount: 2
Fore
SplineSet
275 660 m 1
 236 732 l 1
 196 660 l 1
 129 660 l 1
 205 780 l 1
 268 780 l 1
 343 660 l 1
 275 660 l 1
398 0 m 1
 356 140 l 1
 110 140 l 1
 67 0 l 1
 -1 0 l 1
 191 606 l 1
 282 606 l 1
 473 0 l 1
 398 0 l 1
234 554 m 1
 231 554 l 1
 231 554 223 508 218 492 c 2
 129 202 l 1
 336 202 l 1
 248 492 l 2
 242 508 234 554 234 554 c 1
EndSplineSet
Position2: "'cpsp' Capital Spacing lookup 0 subtable" dx=5 dy=0 dh=10 dv=0
EndChar

StartChar: Adieresis
Encoding: 196 196 5
Width: 473
GlyphClass: 2
Flags: MW
HStem: 140 62<129 336 129 356 110 336> 554 52<231 234 231 231> 701 80<136 210 136 210 263 336 136 263>
VStem: 136 74<701 781 701 781> 263 73<701 781>
LayerCount: 2
Fore
SplineSet
136 701 m 1
 136 781 l 1
 210 781 l 1
 210 701 l 1
 136 701 l 1
263 701 m 1
 263 781 l 1
 336 781 l 1
 336 701 l 1
 263 701 l 1
398 0 m 1
 356 140 l 1
 110 140 l 1
 67 0 l 1
 -1 0 l 1
 191 606 l 1
 282 606 l 1
 473 0 l 1
 398 0 l 1
234 554 m 1
 231 554 l 1
 231 554 223 508 218 492 c 2
 129 202 l 1
 336 202 l 1
 248 492 l 2
 242 508 234 554 234 554 c 1
EndSplineSet
Position2: "'cpsp' Capital Spacing lookup 0 subtable" dx=5 dy=0 dh=10 dv=0
EndChar

StartChar: Agrave
Encoding: 192 192 6
Width: 473
GlyphClass: 2
Flags: MW
HStem: 140 62<129 336 129 356 110 336> 554 52<231 234 231 231> 664 117<138 232 138 285>
VStem: -1 474<0 0>
LayerCount: 2
Fore
SplineSet
232 664 m 1
 137 778 l 1
 138 781 l 1
 209 781 l 1
 285 664 l 1
 232 664 l 1
398 0 m 1
 356 140 l 1
 110 140 l 1
 67 0 l 1
 -1 0 l 1
 191 606 l 1
 282 606 l 1
 473 0 l 1
 398 0 l 1
234 554 m 1
 231 554 l 1
 231 554 223 508 218 492 c 2
 129 202 l 1
 336 202 l 1
 248 492 l 2
 242 508 234 554 234 554 c 1
EndSplineSet
Position2: "'cpsp' Capital Spacing lookup 0 subtable" dx=5 dy=0 dh=10 dv=0
EndChar

StartChar: Amacron
Encoding: 256 256 7
Width: 473
GlyphClass: 2
Flags: MW
HStem: 140 62<129 336 129 356 110 336> 554 52<231 234 231 231> 671 60<126 347 126 347>
VStem: 126 221<671 731 671 731>
LayerCount: 2
Fore
SplineSet
126 671 m 1
 126 731 l 1
 347 731 l 1
 347 671 l 1
 126 671 l 1
398 0 m 1
 356 140 l 1
 110 140 l 1
 67 0 l 1
 -1 0 l 1
 191 606 l 1
 282 606 l 1
 473 0 l 1
 398 0 l 1
234 554 m 1
 231 554 l 1
 231 554 223 508 218 492 c 2
 129 202 l 1
 336 202 l 1
 248 492 l 2
 242 508 234 554 234 554 c 1
EndSplineSet
Position2: "'cpsp' Capital Spacing lookup 0 subtable" dx=5 dy=0 dh=10 dv=0
EndChar

StartChar: Aogonek
Encoding: 260 260 8
Width: 473
GlyphClass: 2
Flags: MW
HStem: -159 57<452.5 524> 140 62<129 336 129 356 110 336> 554 52<231 234 231 231>
VStem: 390 63<-66 -59.5>
LayerCount: 2
Fore
SplineSet
524 -102 m 1
 524 -147 l 1
 507 -154 489 -159 471 -159 c 0
 434 -159 390 -140 390 -79 c 0
 390 -40 407 -20 423 0 c 1
 398 0 l 1
 356 140 l 1
 110 140 l 1
 67 0 l 1
 -1 0 l 1
 191 606 l 1
 282 606 l 1
 473 0 l 1
 464 -14 453 -29 453 -53 c 0
 453 -79 464 -102 495 -102 c 2
 524 -102 l 1
336 202 m 1
 248 492 l 2
 242 508 234 554 234 554 c 1
 231 554 l 1
 231 554 223 508 218 492 c 2
 129 202 l 1
 336 202 l 1
EndSplineSet
Position2: "'cpsp' Capital Spacing lookup 0 subtable" dx=5 dy=0 dh=10 dv=0
EndChar

StartChar: Aring
Encoding: 197 197 9
Width: 473
GlyphClass: 2
Flags: MW
HStem: 140 62<129 336 129 356 110 336> 554 52<231 234 231 231> 640 38<223 247 223 259> 771 39<223 247>
VStem: 150 39<712 737.5 712 748.5> 281 39<712 737.5>
LayerCount: 2
Fore
SplineSet
235 810 m 0
 284 810 320 771 320 725 c 0
 320 678 283 640 235 640 c 0
 189 640 150 677 150 725 c 0
 150 772 188 810 235 810 c 0
235 771 m 0
 211 771 189 750 189 725 c 0
 189 699 211 678 235 678 c 0
 259 678 281 699 281 725 c 0
 281 750 259 771 235 771 c 0
398 0 m 1
 356 140 l 1
 110 140 l 1
 67 0 l 1
 -1 0 l 1
 191 606 l 1
 282 606 l 1
 473 0 l 1
 398 0 l 1
234 554 m 1
 231 554 l 1
 231 554 223 508 218 492 c 2
 129 202 l 1
 336 202 l 1
 248 492 l 2
 242 508 234 554 234 554 c 1
EndSplineSet
Position2: "'cpsp' Capital Spacing lookup 0 subtable" dx=5 dy=0 dh=10 dv=0
EndChar

StartChar: Aringacute
Encoding: 506 506 10
Width: 473
GlyphClass: 2
Flags: MW
HStem: 140 62<129 336 129 356 110 336> 690 36<223.5 248.5> 750 96<212 347 212 347>
VStem: 151 39<632.5 656.5 632.5 667> 283 38<632.5 656.5>
LayerCount: 2
Fore
SplineSet
212 750 m 1
 276 846 l 1
 347 846 l 1
 348 842 l 1
 266 750 l 1
 212 750 l 1
236 726 m 0xd8
 284 726 321 689 321 644 c 0
 321 618 309 595 290 579 c 1
 473 0 l 1
 398 0 l 1
 356 140 l 1
 110 140 l 1
 67 0 l 1
 -1 0 l 1
 183 580 l 1
 164 595 151 618 151 644 c 0
 151 690 189 726 236 726 c 0xd8
236 690 m 0
 211 690 190 669 190 644 c 0
 190 621 211 600 236 600 c 0
 261 600 283 621 283 644 c 0
 283 669 261 690 236 690 c 0
234 554 m 1
 231 554 l 1
 231 554 223 508 218 492 c 2
 129 202 l 1
 336 202 l 1
 248 492 l 2
 242 508 234 554 234 554 c 1
EndSplineSet
Position2: "'cpsp' Capital Spacing lookup 0 subtable" dx=5 dy=0 dh=10 dv=0
EndChar

StartChar: Atilde
Encoding: 195 195 11
Width: 473
GlyphClass: 2
Flags: MW
HStem: 140 62<129 336 129 356 110 336> 554 52<231 234 231 231> 694 62<268.5 288.5 264.5 312.5> 719 62<182.5 201.5 158 206.5>
VStem: -1 474<0 0>
LayerCount: 2
Fore
SplineSet
309 781 m 1xd8
 358 781 l 1xd8
 358 742 338 694 287 694 c 0xe8
 250 694 223 719 190 719 c 0xd8
 175 719 163 713 162 694 c 1
 112 694 l 1xe8
 112 731 133 781 183 781 c 0xd8
 220 781 248 756 281 756 c 0xe8
 296 756 307 761 309 781 c 1xd8
398 0 m 1
 356 140 l 1
 110 140 l 1
 67 0 l 1
 -1 0 l 1
 191 606 l 1
 282 606 l 1
 473 0 l 1
 398 0 l 1
234 554 m 1
 231 554 l 1
 231 554 223 508 218 492 c 2
 129 202 l 1
 336 202 l 1
 248 492 l 2
 242 508 234 554 234 554 c 1
EndSplineSet
Position2: "'cpsp' Capital Spacing lookup 0 subtable" dx=5 dy=0 dh=10 dv=0
EndChar

StartChar: AE
Encoding: 198 198 12
Width: 725
GlyphClass: 2
Flags: MW
HStem: 0 62<463 693 463 693> 140 62<149 359 149 371 125 359> 279 63<415 649 415 415> 545 61<355 355 355 688> 550 56<283 288 283 283>
VStem: 1 692<0 62>
AnchorPoint: "Anchor-1" 0 0 basechar 0
AnchorPoint: "Anchor-0" 362 606 basechar 0
LayerCount: 2
Fore
SplineSet
355 545 m 1xf4
 401 342 l 1
 649 342 l 1
 649 279 l 1
 415 279 l 1
 463 62 l 1
 693 62 l 1
 693 0 l 1
 401 0 l 1
 371 140 l 1
 125 140 l 1
 71 0 l 1
 1 0 l 1
 253 606 l 1
 688 606 l 1
 688 545 l 1
 355 545 l 1xf4
288 550 m 1xec
 283 550 l 1
 277 529 272 510 263 489 c 2
 149 202 l 1
 359 202 l 1
 297 489 l 2
 292 510 291 529 288 550 c 1xec
EndSplineSet
Position2: "'cpsp' Capital Spacing lookup 0 subtable" dx=5 dy=0 dh=10 dv=0
EndChar

StartChar: AEacute
Encoding: 508 508 13
Width: 725
GlyphClass: 2
Flags: MW
HStem: 0 62<463 693 463 693> 140 62<149 359 149 371 125 359> 279 63<415 649 415 415> 545 61<355 355 355 688> 550 56<283 288 283 283> 664 117<424 572 424 572>
VStem: 1 692<0 62>
LayerCount: 2
Fore
SplineSet
477 664 m 1xf6
 424 664 l 1
 500 781 l 1
 572 781 l 1
 572 778 l 1
 477 664 l 1xf6
355 545 m 1
 401 342 l 1
 649 342 l 1
 649 279 l 1
 415 279 l 1
 463 62 l 1
 693 62 l 1
 693 0 l 1
 401 0 l 1
 371 140 l 1
 125 140 l 1
 71 0 l 1
 1 0 l 1
 253 606 l 1
 688 606 l 1
 688 545 l 1
 355 545 l 1
288 550 m 1xee
 283 550 l 1
 277 530 272 513 264 492 c 2
 149 202 l 1
 359 202 l 1
 296 491 l 2
 292 512 290 530 288 550 c 1xee
EndSplineSet
Position2: "'cpsp' Capital Spacing lookup 0 subtable" dx=5 dy=0 dh=10 dv=0
EndChar

StartChar: B
Encoding: 66 66 14
Width: 473
GlyphClass: 2
Flags: MW
HStem: 0 62<126 272 272 279> 279 63<126 258 258 265 126 258> 545 61<126 265 126 126>
VStem: 58 68<62 62 62 279 342 545> 362 72<424 477> 377 71<134.5 198>
LayerCount: 2
Fore
SplineSet
58 606 m 1xf4
 279 606 l 2
 368 606 434 548 434 459 c 0xf8
 434 389 393 337 341 318 c 1
 341 315 l 1
 401 296 448 239 448 160 c 0
 448 58 371 0 279 0 c 2
 58 0 l 1
 58 606 l 1xf4
126 342 m 1
 258 342 l 2
 320 342 362 389 362 442 c 0
 362 512 323 545 265 545 c 2
 126 545 l 1
 126 342 l 1
126 62 m 1
 272 62 l 2
 332 62 377 100 377 169 c 0xf4
 377 227 332 279 265 279 c 2
 126 279 l 1
 126 62 l 1
EndSplineSet
Position2: "'cpsp' Capital Spacing lookup 0 subtable" dx=5 dy=0 dh=10 dv=0
EndChar

StartChar: C
Encoding: 67 67 15
Width: 523
GlyphClass: 2
Flags: MW
HStem: -11 64<220.5 319 220.5 338.5> 552 65<221 319>
VStem: 39 70<203 281 281 325 203 408> 417 68<389 443.5>
AnchorPoint: "Anchor-1" 262 0 basechar 0
AnchorPoint: "Anchor-0" 262 606 basechar 0
LayerCount: 2
Fore
SplineSet
277 617 m 0
 401 617 485 541 485 389 c 1
 417 389 l 1
 417 498 361 552 277 552 c 0
 165 552 109 481 109 325 c 2
 109 281 l 2
 109 125 165 53 276 53 c 0
 362 53 418 106 418 215 c 1
 485 215 l 1
 485 60 400 -11 277 -11 c 0
 118 -11 39 94 39 303 c 0
 39 513 118 617 277 617 c 0
EndSplineSet
Position2: "'cpsp' Capital Spacing lookup 0 subtable" dx=5 dy=0 dh=10 dv=0
EndChar

StartChar: Cacute
Encoding: 262 262 16
Width: 523
GlyphClass: 2
Flags: MW
HStem: -11 64<220.5 319 220.5 338.5> 552 65<221 319> 664 117<226 373 226 373>
VStem: 39 70<203 281 281 325 203 408> 417 68<389 443.5>
LayerCount: 2
Fore
SplineSet
279 664 m 1
 226 664 l 1
 302 781 l 1
 373 781 l 1
 374 778 l 1
 279 664 l 1
277 617 m 0
 401 617 485 541 485 389 c 1
 417 389 l 1
 417 498 361 552 277 552 c 0
 165 552 109 481 109 325 c 2
 109 281 l 2
 109 125 165 53 276 53 c 0
 362 53 418 106 418 215 c 1
 485 215 l 1
 485 60 400 -11 277 -11 c 0
 118 -11 39 94 39 303 c 0
 39 513 118 617 277 617 c 0
EndSplineSet
Position2: "'cpsp' Capital Spacing lookup 0 subtable" dx=5 dy=0 dh=10 dv=0
EndChar

StartChar: Ccaron
Encoding: 268 268 17
Width: 523
GlyphClass: 2
Flags: MW
HStem: -11 64<220.5 319 220.5 338.5> 552 65<221 319> 661 120<151 289 151 225>
VStem: 39 70<203 281 281 325 203 408> 417 68<389 443.5>
LayerCount: 2
Fore
SplineSet
151 781 m 1
 219 781 l 1
 259 708 l 1
 298 781 l 1
 367 781 l 1
 289 661 l 1
 225 661 l 1
 151 781 l 1
277 617 m 0
 401 617 485 541 485 389 c 1
 417 389 l 1
 417 498 361 552 277 552 c 0
 165 552 109 481 109 325 c 2
 109 281 l 2
 109 125 165 53 276 53 c 0
 362 53 418 106 418 215 c 1
 485 215 l 1
 485 60 400 -11 277 -11 c 0
 118 -11 39 94 39 303 c 0
 39 513 118 617 277 617 c 0
EndSplineSet
Position2: "'cpsp' Capital Spacing lookup 0 subtable" dx=5 dy=0 dh=10 dv=0
EndChar

StartChar: Ccedilla
Encoding: 199 199 18
Width: 523
GlyphClass: 2
Flags: MW
HStem: -161 50<237.5 244 244 253.5 176 267.5> -68 35<216 268> -11 64<271 271> 552 65<221 319>
VStem: 39 70<210 281 281 325 203 408> 276 65<-97.5 -82> 417 68<389 443.5>
LayerCount: 2
Fore
SplineSet
277 617 m 0
 401 617 485 541 485 389 c 1
 417 389 l 1
 417 498 361 552 277 552 c 0
 165 552 109 481 109 325 c 2
 109 281 l 2
 109 125 165 53 276 53 c 0xde
 362 53 418 106 418 215 c 1
 485 215 l 1
 485 57 397 -14 271 -11 c 1xfe
 268 -33 l 1
 306 -35 341 -49 341 -89 c 0
 341 -149 285 -161 250 -161 c 0
 225 -161 197 -158 176 -154 c 1
 176 -111 l 1
 244 -111 l 2
 263 -111 276 -106 276 -89 c 0
 276 -75 269 -68 246 -68 c 2
 216 -68 l 1
 227 -7 l 1
 102 13 39 117 39 303 c 0
 39 513 118 617 277 617 c 0
EndSplineSet
Position2: "'cpsp' Capital Spacing lookup 0 subtable" dx=5 dy=0 dh=10 dv=0
EndChar

StartChar: Ccircumflex
Encoding: 264 264 19
Width: 523
GlyphClass: 2
Flags: MW
HStem: -11 64<220.5 319 220.5 338.5> 552 65<221 319> 660 120<151 290 151 290 227 298 227 367>
VStem: 39 70<203 281 281 325 203 408> 417 68<389 443.5>
LayerCount: 2
Fore
SplineSet
261 732 m 1
 219 660 l 1
 151 660 l 1
 227 780 l 1
 290 780 l 1
 367 660 l 1
 298 660 l 1
 261 732 l 1
277 617 m 0
 401 617 485 541 485 389 c 1
 417 389 l 1
 417 498 361 552 277 552 c 0
 165 552 109 481 109 325 c 2
 109 281 l 2
 109 125 165 53 276 53 c 0
 362 53 418 106 418 215 c 1
 485 215 l 1
 485 60 400 -11 277 -11 c 0
 118 -11 39 94 39 303 c 0
 39 513 118 617 277 617 c 0
EndSplineSet
Position2: "'cpsp' Capital Spacing lookup 0 subtable" dx=5 dy=0 dh=10 dv=0
EndChar

StartChar: Cdotaccent
Encoding: 266 266 20
Width: 523
GlyphClass: 2
Flags: MW
HStem: -11 64<220.5 319 220.5 338.5> 552 65<221 319> 702 79<223 296 223 296>
VStem: 39 70<203 281 281 325 203 408> 223 73<702 781 702 781> 417 68<389 443.5>
LayerCount: 2
Fore
SplineSet
223 781 m 1
 296 781 l 1
 296 702 l 1
 223 702 l 1
 223 781 l 1
277 617 m 0
 401 617 485 541 485 389 c 1
 417 389 l 1
 417 498 361 552 277 552 c 0
 165 552 109 481 109 325 c 2
 109 281 l 2
 109 125 165 53 276 53 c 0
 362 53 418 106 418 215 c 1
 485 215 l 1
 485 60 400 -11 277 -11 c 0
 118 -11 39 94 39 303 c 0
 39 513 118 617 277 617 c 0
EndSplineSet
Position2: "'cpsp' Capital Spacing lookup 0 subtable" dx=5 dy=0 dh=10 dv=0
EndChar

StartChar: D
Encoding: 68 68 21
Width: 523
GlyphClass: 2
Flags: MW
HStem: 0 62<132 244 244 250> 545 61<132 244 132 132>
VStem: 65 67<62 62 62 545> 405 71<290 334 334 404.5>
AnchorPoint: "Anchor-1" 0 0 basechar 0
AnchorPoint: "Anchor-0" 262 606 basechar 0
LayerCount: 2
Fore
SplineSet
65 606 m 1
 250 606 l 2
 391 606 476 507 476 312 c 0
 476 104 391 0 250 0 c 2
 65 0 l 1
 65 606 l 1
132 62 m 1
 244 62 l 2
 343 62 405 136 405 290 c 2
 405 334 l 2
 405 475 343 545 244 545 c 2
 132 545 l 1
 132 62 l 1
EndSplineSet
Position2: "'cpsp' Capital Spacing lookup 0 subtable" dx=5 dy=0 dh=10 dv=0
EndChar

StartChar: Eth
Encoding: 208 208 22
Width: 523
GlyphClass: 2
Flags: MW
HStem: 0 62<132 244 244 250> 289 50<3 65 3 65 132 278> 545 61<132 244 132 132>
VStem: 65 67<62 289 62 289 62 289 339 545> 405 71<290 334 334 404.5>
LayerCount: 2
Fore
SplineSet
65 606 m 1
 250 606 l 2
 391 606 476 507 476 312 c 0
 476 104 391 0 250 0 c 2
 65 0 l 1
 65 289 l 1
 3 289 l 1
 3 339 l 1
 65 339 l 1
 65 606 l 1
278 339 m 1
 278 289 l 1
 132 289 l 1
 132 62 l 1
 244 62 l 2
 343 62 405 136 405 290 c 2
 405 334 l 2
 405 475 343 545 244 545 c 2
 132 545 l 1
 132 339 l 1
 278 339 l 1
EndSplineSet
Position2: "'cpsp' Capital Spacing lookup 0 subtable" dx=5 dy=0 dh=10 dv=0
EndChar

StartChar: Dcaron
Encoding: 270 270 23
Width: 523
GlyphClass: 2
Flags: MW
HStem: 0 62<132 244 244 250> 545 61<132 244 132 132> 661 120<165 303 165 239>
VStem: 65 67<62 62 62 545> 405 71<290 334 334 404.5>
LayerCount: 2
Fore
SplineSet
165 781 m 1
 233 781 l 1
 273 708 l 1
 312 781 l 1
 381 781 l 1
 303 661 l 1
 239 661 l 1
 165 781 l 1
65 606 m 1
 250 606 l 2
 391 606 476 507 476 312 c 0
 476 104 391 0 250 0 c 2
 65 0 l 1
 65 606 l 1
132 62 m 1
 244 62 l 2
 343 62 405 136 405 290 c 2
 405 334 l 2
 405 475 343 545 244 545 c 2
 132 545 l 1
 132 62 l 1
EndSplineSet
Position2: "'cpsp' Capital Spacing lookup 0 subtable" dx=5 dy=0 dh=10 dv=0
EndChar

StartChar: Dcroat
Encoding: 272 272 24
Width: 523
GlyphClass: 2
Flags: MW
HStem: 0 62<132 244 244 250> 289 50<3 65 3 65 132 278> 545 61<132 244 132 132>
VStem: 65 67<62 289 62 289 62 289 339 545> 405 71<290 334 334 404.5>
LayerCount: 2
Fore
SplineSet
65 606 m 1
 250 606 l 2
 391 606 476 507 476 312 c 0
 476 104 391 0 250 0 c 2
 65 0 l 1
 65 289 l 1
 3 289 l 1
 3 339 l 1
 65 339 l 1
 65 606 l 1
278 339 m 1
 278 289 l 1
 132 289 l 1
 132 62 l 1
 244 62 l 2
 343 62 405 136 405 290 c 2
 405 334 l 2
 405 475 343 545 244 545 c 2
 132 545 l 1
 132 339 l 1
 278 339 l 1
EndSplineSet
Position2: "'cpsp' Capital Spacing lookup 0 subtable" dx=5 dy=0 dh=10 dv=0
EndChar

StartChar: E
Encoding: 69 69 25
Width: 484
GlyphClass: 2
Flags: MW
HStem: 0 62<132 440 132 440> 279 63<132 396 132 396> 545 61<132 435 132 132>
VStem: 65 67<62 279 342 545>
AnchorPoint: "Anchor-1" 242 0 basechar 0
AnchorPoint: "Anchor-0" 242 606 basechar 0
LayerCount: 2
Fore
SplineSet
435 606 m 1
 435 545 l 1
 132 545 l 1
 132 342 l 1
 396 342 l 1
 396 279 l 1
 132 279 l 1
 132 62 l 1
 440 62 l 1
 440 0 l 1
 65 0 l 1
 65 606 l 1
 435 606 l 1
EndSplineSet
Position2: "'cpsp' Capital Spacing lookup 0 subtable" dx=5 dy=0 dh=10 dv=0
EndChar

StartChar: Eacute
Encoding: 201 201 26
Width: 484
GlyphClass: 2
Flags: MW
HStem: 0 62<132 440 132 440> 279 63<132 396 132 396> 545 61<132 132 132 435> 664 117<191 340 191 340>
VStem: 65 67<62 279 342 545>
LayerCount: 2
Fore
SplineSet
244 664 m 1
 191 664 l 1
 267 781 l 1
 340 781 l 1
 341 778 l 1
 244 664 l 1
132 545 m 1
 132 342 l 1
 396 342 l 1
 396 279 l 1
 132 279 l 1
 132 62 l 1
 440 62 l 1
 440 0 l 1
 65 0 l 1
 65 606 l 1
 435 606 l 1
 435 545 l 1
 132 545 l 1
EndSplineSet
Position2: "'cpsp' Capital Spacing lookup 0 subtable" dx=5 dy=0 dh=10 dv=0
EndChar

StartChar: Ebreve
Encoding: 276 276 27
Width: 484
GlyphClass: 2
Flags: MW
HStem: 0 62<132 440 132 440> 279 63<132 396 132 396> 545 61<132 435 132 132> 698 53<226.5 256 226.5 274>
VStem: 65 67<62 279 342 545>
LayerCount: 2
Fore
SplineSet
294 781 m 1
 348 781 l 1
 348 742 307 698 241 698 c 0
 175 698 136 742 136 781 c 1
 189 781 l 1
 192 768 212 751 241 751 c 0
 271 751 293 768 294 781 c 1
435 606 m 1
 435 545 l 1
 132 545 l 1
 132 342 l 1
 396 342 l 1
 396 279 l 1
 132 279 l 1
 132 62 l 1
 440 62 l 1
 440 0 l 1
 65 0 l 1
 65 606 l 1
 435 606 l 1
EndSplineSet
Position2: "'cpsp' Capital Spacing lookup 0 subtable" dx=5 dy=0 dh=10 dv=0
EndChar

StartChar: Ecaron
Encoding: 282 282 28
Width: 484
GlyphClass: 2
Flags: MW
HStem: 0 62<132 440 132 440> 279 63<132 396 132 396> 545 61<132 435 132 132> 661 120<135 273 135 209>
VStem: 65 67<62 279 342 545>
LayerCount: 2
Fore
SplineSet
135 781 m 1
 202 781 l 1
 241 708 l 1
 281 781 l 1
 349 781 l 1
 273 661 l 1
 209 661 l 1
 135 781 l 1
435 606 m 1
 435 545 l 1
 132 545 l 1
 132 342 l 1
 396 342 l 1
 396 279 l 1
 132 279 l 1
 132 62 l 1
 440 62 l 1
 440 0 l 1
 65 0 l 1
 65 606 l 1
 435 606 l 1
EndSplineSet
Position2: "'cpsp' Capital Spacing lookup 0 subtable" dx=5 dy=0 dh=10 dv=0
EndChar

StartChar: Ecircumflex
Encoding: 202 202 29
Width: 484
GlyphClass: 2
Flags: MW
HStem: 0 62<132 440 132 440> 279 63<132 396 132 396> 545 61<132 435 132 132> 660 120<135 274 135 274 211 281 211 349>
VStem: 65 67<62 279 342 545>
LayerCount: 2
Fore
SplineSet
242 732 m 1
 202 660 l 1
 135 660 l 1
 211 780 l 1
 274 780 l 1
 349 660 l 1
 281 660 l 1
 242 732 l 1
435 606 m 1
 435 545 l 1
 132 545 l 1
 132 342 l 1
 396 342 l 1
 396 279 l 1
 132 279 l 1
 132 62 l 1
 440 62 l 1
 440 0 l 1
 65 0 l 1
 65 606 l 1
 435 606 l 1
EndSplineSet
Position2: "'cpsp' Capital Spacing lookup 0 subtable" dx=5 dy=0 dh=10 dv=0
EndChar

StartChar: Edieresis
Encoding: 203 203 30
Width: 484
GlyphClass: 2
Flags: MW
HStem: 0 62<132 440 132 440> 279 63<132 396 132 396> 545 61<132 132 132 435> 701 80<142 215 142 215 269 342 142 269>
VStem: 65 67<62 279 342 545> 142 73<701 781 701 781> 269 73<701 781 701 781>
LayerCount: 2
Fore
SplineSet
142 701 m 1
 142 781 l 1
 215 781 l 1
 215 701 l 1
 142 701 l 1
269 701 m 1
 269 781 l 1
 342 781 l 1
 342 701 l 1
 269 701 l 1
132 545 m 1xfa
 132 342 l 1
 396 342 l 1
 396 279 l 1
 132 279 l 1
 132 62 l 1
 440 62 l 1
 440 0 l 1
 65 0 l 1
 65 606 l 1
 435 606 l 1
 435 545 l 1
 132 545 l 1xfa
EndSplineSet
Position2: "'cpsp' Capital Spacing lookup 0 subtable" dx=5 dy=0 dh=10 dv=0
EndChar

StartChar: Edotaccent
Encoding: 278 278 31
Width: 484
GlyphClass: 2
Flags: MW
HStem: 0 62<132 440 132 440> 279 63<132 396 132 396> 545 61<132 435 132 132> 702 79<206 277 206 277>
VStem: 65 67<62 279 342 545> 206 71<702 781 702 781>
LayerCount: 2
Fore
SplineSet
206 781 m 1
 277 781 l 1
 277 702 l 1
 206 702 l 1
 206 781 l 1
435 606 m 1
 435 545 l 1
 132 545 l 1
 132 342 l 1
 396 342 l 1
 396 279 l 1
 132 279 l 1
 132 62 l 1
 440 62 l 1
 440 0 l 1
 65 0 l 1
 65 606 l 1
 435 606 l 1
EndSplineSet
Position2: "'cpsp' Capital Spacing lookup 0 subtable" dx=5 dy=0 dh=10 dv=0
EndChar

StartChar: Egrave
Encoding: 200 200 32
Width: 484
GlyphClass: 2
Flags: MW
HStem: 0 62<132 440 132 440> 279 63<132 396 132 396> 545 61<132 132 132 435> 664 117<145 238 145 292>
VStem: 65 67<62 279 342 545>
LayerCount: 2
Fore
SplineSet
238 664 m 1
 144 778 l 1
 145 781 l 1
 216 781 l 1
 292 664 l 1
 238 664 l 1
132 545 m 1
 132 342 l 1
 396 342 l 1
 396 279 l 1
 132 279 l 1
 132 62 l 1
 440 62 l 1
 440 0 l 1
 65 0 l 1
 65 606 l 1
 435 606 l 1
 435 545 l 1
 132 545 l 1
EndSplineSet
Position2: "'cpsp' Capital Spacing lookup 0 subtable" dx=5 dy=0 dh=10 dv=0
EndChar

StartChar: Emacron
Encoding: 274 274 33
Width: 484
GlyphClass: 2
Flags: MW
HStem: 0 62<132 440 132 440> 279 63<132 396 132 396> 545 61<132 435 132 132> 671 60<132 353 132 353>
VStem: 65 67<62 279 342 545> 132 221<342 731 671 731 671 731>
LayerCount: 2
Fore
SplineSet
132 731 m 1xf4
 353 731 l 1
 353 671 l 1
 132 671 l 1
 132 731 l 1xf4
435 606 m 1
 435 545 l 1
 132 545 l 1
 132 342 l 1
 396 342 l 1
 396 279 l 1
 132 279 l 1
 132 62 l 1
 440 62 l 1
 440 0 l 1
 65 0 l 1
 65 606 l 1xf8
 435 606 l 1
EndSplineSet
Position2: "'cpsp' Capital Spacing lookup 0 subtable" dx=5 dy=0 dh=10 dv=0
EndChar

StartChar: Eogonek
Encoding: 280 280 34
Width: 484
GlyphClass: 2
Flags: MW
HStem: -159 57<419.5 491> 0 62<132 388 132 440> 279 63<132 396 132 396> 545 61<132 435 132 132>
VStem: 65 67<62 279 342 545> 357 64<-66 -61> 388 52<0 62>
LayerCount: 2
Fore
SplineSet
132 342 m 1x7a
 396 342 l 1
 396 279 l 1
 132 279 l 1
 132 62 l 1
 440 62 l 1
 440 0 l 1x7a
 430 -13 421 -33 421 -53 c 0
 421 -79 432 -102 462 -102 c 2
 491 -102 l 1
 491 -147 l 1
 473 -154 456 -159 438 -159 c 0
 401 -159 357 -140 357 -79 c 0xfc
 357 -43 370 -19 388 0 c 1
 65 0 l 1
 65 606 l 1
 435 606 l 1
 435 545 l 1
 132 545 l 1
 132 342 l 1x7a
EndSplineSet
Position2: "'cpsp' Capital Spacing lookup 0 subtable" dx=5 dy=0 dh=10 dv=0
EndChar

StartChar: F
Encoding: 70 70 35
Width: 443
GlyphClass: 2
Flags: MW
HStem: 274 61<132 382 132 382> 545 61<132 413 132 132>
VStem: 65 67<0 274 335 545>
LayerCount: 2
Fore
SplineSet
413 606 m 1
 413 545 l 1
 132 545 l 1
 132 335 l 1
 382 335 l 1
 382 274 l 1
 132 274 l 1
 132 0 l 1
 65 0 l 1
 65 606 l 1
 413 606 l 1
EndSplineSet
Position2: "'cpsp' Capital Spacing lookup 0 subtable" dx=5 dy=0 dh=10 dv=0
EndChar

StartChar: G
Encoding: 71 71 36
Width: 564
GlyphClass: 2
Flags: MW
HStem: -11 64<229 320> 253 59<271 434 271 503> 552 65<236.5 331.5>
VStem: 47 72<203.5 281 281 325 203.5 408> 434 69<233 253 253 253 402 454.5>
AnchorPoint: "Anchor-1" 282 0 basechar 0
AnchorPoint: "Anchor-0" 282 606 basechar 0
LayerCount: 2
Fore
SplineSet
271 312 m 1
 503 312 l 1
 503 0 l 1
 458 0 l 1
 442 67 l 1
 405 11 353 -11 287 -11 c 0
 133 -11 47 94 47 303 c 0
 47 513 138 617 286 617 c 0
 414 617 503 548 503 402 c 1
 434 402 l 1
 434 507 376 552 287 552 c 0
 186 552 119 481 119 325 c 2
 119 281 l 2
 119 126 177 53 281 53 c 0
 392 53 434 111 434 233 c 2
 434 253 l 1
 271 253 l 1
 271 312 l 1
EndSplineSet
Position2: "'cpsp' Capital Spacing lookup 0 subtable" dx=5 dy=0 dh=10 dv=0
EndChar

StartChar: Gbreve
Encoding: 286 286 37
Width: 564
GlyphClass: 2
Flags: MW
HStem: -11 64<229 320> 253 59<271 434 271 503> 552 65<236.5 331.5> 698 53<267.5 297 267.5 315.5>
VStem: 47 72<203.5 281 281 325 203.5 408> 434 69<233 253 253 253 402 454.5>
LayerCount: 2
Fore
SplineSet
282 698 m 0
 216 698 176 742 176 781 c 1
 230 781 l 1
 232 768 253 751 282 751 c 0
 312 751 333 768 335 781 c 1
 390 781 l 1
 390 742 349 698 282 698 c 0
271 312 m 1
 503 312 l 1
 503 0 l 1
 458 0 l 1
 442 67 l 1
 405 11 353 -11 287 -11 c 0
 133 -11 47 94 47 303 c 0
 47 513 138 617 286 617 c 0
 414 617 503 548 503 402 c 1
 434 402 l 1
 434 507 376 552 287 552 c 0
 186 552 119 481 119 325 c 2
 119 281 l 2
 119 126 177 53 281 53 c 0
 392 53 434 111 434 233 c 2
 434 253 l 1
 271 253 l 1
 271 312 l 1
EndSplineSet
Position2: "'cpsp' Capital Spacing lookup 0 subtable" dx=5 dy=0 dh=10 dv=0
EndChar

StartChar: Gcircumflex
Encoding: 284 284 38
Width: 564
GlyphClass: 2
Flags: MW
HStem: -11 64<229 320> 253 59<271 434 271 503> 552 65<236.5 331.5> 660 120<174 314 174 314 250 322 250 389>
VStem: 47 72<203.5 281 281 325 203.5 408> 434 69<233 253 253 253 402 454.5>
LayerCount: 2
Fore
SplineSet
243 660 m 1
 174 660 l 1
 250 780 l 1
 314 780 l 1
 389 660 l 1
 322 660 l 1
 283 732 l 1
 243 660 l 1
271 312 m 1
 503 312 l 1
 503 0 l 1
 458 0 l 1
 442 67 l 1
 405 11 353 -11 287 -11 c 0
 133 -11 47 94 47 303 c 0
 47 513 138 617 286 617 c 0
 414 617 503 548 503 402 c 1
 434 402 l 1
 434 507 376 552 287 552 c 0
 186 552 119 481 119 325 c 2
 119 281 l 2
 119 126 177 53 281 53 c 0
 392 53 434 111 434 233 c 2
 434 253 l 1
 271 253 l 1
 271 312 l 1
EndSplineSet
Position2: "'cpsp' Capital Spacing lookup 0 subtable" dx=5 dy=0 dh=10 dv=0
EndChar

StartChar: Gcommaaccent
Encoding: 290 290 39
Width: 564
GlyphClass: 2
Flags: MW
HStem: -126 72<254 280 254 319> -11 64<229 320> 253 59<271 434 271 503> 552 65<236.5 331.5>
VStem: 47 72<203.5 281 281 325 203.5 408> 254 65<-121 -54 -121 -54 -121 -54> 434 69<233 253 253 253 402 454.5>
LayerCount: 2
Fore
SplineSet
271 312 m 1
 503 312 l 1
 503 0 l 1
 458 0 l 1
 442 67 l 1
 405 11 353 -11 287 -11 c 0
 133 -11 47 94 47 303 c 0
 47 513 138 617 286 617 c 0
 414 617 503 548 503 402 c 1
 434 402 l 1
 434 507 376 552 287 552 c 0
 186 552 119 481 119 325 c 2
 119 281 l 2
 119 126 177 53 281 53 c 0
 392 53 434 111 434 233 c 2
 434 253 l 1
 271 253 l 1
 271 312 l 1
254 -54 m 1
 319 -54 l 1
 319 -121 l 1
 297 -185 l 1
 264 -185 l 1
 280 -126 l 1
 254 -126 l 1
 254 -54 l 1
EndSplineSet
Position2: "'cpsp' Capital Spacing lookup 0 subtable" dx=5 dy=0 dh=10 dv=0
EndChar

StartChar: Gdotaccent
Encoding: 288 288 40
Width: 564
GlyphClass: 2
Flags: MW
HStem: -11 64<229 320> 253 59<271 434 271 503> 552 65<236.5 331.5> 702 79<247 318 247 318>
VStem: 47 72<203.5 281 281 325 203.5 408> 247 71<702 781> 434 69<233 253 253 253 402 454.5>
LayerCount: 2
Fore
SplineSet
318 702 m 1
 247 702 l 1
 247 781 l 1
 318 781 l 1
 318 702 l 1
271 312 m 1
 503 312 l 1
 503 0 l 1
 458 0 l 1
 442 67 l 1
 405 11 353 -11 287 -11 c 0
 133 -11 47 94 47 303 c 0
 47 513 138 617 286 617 c 0
 414 617 503 548 503 402 c 1
 434 402 l 1
 434 507 376 552 287 552 c 0
 186 552 119 481 119 325 c 2
 119 281 l 2
 119 126 177 53 281 53 c 0
 392 53 434 111 434 233 c 2
 434 253 l 1
 271 253 l 1
 271 312 l 1
EndSplineSet
Position2: "'cpsp' Capital Spacing lookup 0 subtable" dx=5 dy=0 dh=10 dv=0
EndChar

StartChar: H
Encoding: 72 72 41
Width: 523
GlyphClass: 2
Flags: MW
HStem: 279 63<132 392 132 392> 586 20G<65 132 132 132 392 458 458 458>
VStem: 65 67<0 279 0 342 342 606> 392 66<0 279 279 279 342 606 0 606>
AnchorPoint: "Anchor-1" 0 0 basechar 0
AnchorPoint: "Anchor-0" 262 606 basechar 0
LayerCount: 2
Fore
SplineSet
392 0 m 1
 392 279 l 1
 132 279 l 1
 132 0 l 1
 65 0 l 1
 65 606 l 1
 132 606 l 1
 132 342 l 1
 392 342 l 1
 392 606 l 1
 458 606 l 1
 458 0 l 1
 392 0 l 1
EndSplineSet
Position2: "'cpsp' Capital Spacing lookup 0 subtable" dx=5 dy=0 dh=10 dv=0
EndChar

StartChar: Hbar
Encoding: 294 294 42
Width: 523
GlyphClass: 2
Flags: MW
HStem: 276 61<132 392 132 392> 433 60<21 65 21 65 132 392 458 504> 433 173<21 132 21 132 65 392 65 132>
VStem: 65 67<0 276 0 337 337 433 493 606> 392 66<0 276 276 276 337 433 493 606>
LayerCount: 2
Fore
SplineSet
458 0 m 1xb8
 392 0 l 1
 392 276 l 1
 132 276 l 1
 132 0 l 1
 65 0 l 1
 65 433 l 1
 21 433 l 1xb8
 21 493 l 1
 65 493 l 1xd8
 65 606 l 1
 132 606 l 1xb8
 132 493 l 1
 392 493 l 1xd8
 392 606 l 1
 458 606 l 1xb8
 458 493 l 1
 504 493 l 1xd8
 504 433 l 1
 458 433 l 1
 458 0 l 1xb8
132 433 m 1
 132 337 l 1
 392 337 l 1
 392 433 l 1
 132 433 l 1
EndSplineSet
Position2: "'cpsp' Capital Spacing lookup 0 subtable" dx=5 dy=0 dh=10 dv=0
EndChar

StartChar: Hcircumflex
Encoding: 292 292 43
Width: 523
GlyphClass: 2
Flags: MW
HStem: 279 63<132 392 132 392> 586 20G<65 132 132 132 392 458 458 458> 660 120<153 293 153 293 229 369 229 301>
VStem: 65 67<0 279 0 342 342 606> 392 66<0 279 279 279 342 606 0 606>
LayerCount: 2
Fore
SplineSet
301 660 m 1
 263 732 l 1
 222 660 l 1
 153 660 l 1
 229 780 l 1
 293 780 l 1
 369 660 l 1
 301 660 l 1
392 0 m 1
 392 279 l 1
 132 279 l 1
 132 0 l 1
 65 0 l 1
 65 606 l 1
 132 606 l 1
 132 342 l 1
 392 342 l 1
 392 606 l 1
 458 606 l 1
 458 0 l 1
 392 0 l 1
EndSplineSet
Position2: "'cpsp' Capital Spacing lookup 0 subtable" dx=5 dy=0 dh=10 dv=0
EndChar

StartChar: I
Encoding: 73 73 44
Width: 202
GlyphClass: 2
Flags: MW
HStem: 586 20G<67 135 135 135>
VStem: 67 68<0 606 0 606>
AnchorPoint: "Anchor-1" 0 0 basechar 0
AnchorPoint: "Anchor-0" 101 606 basechar 0
LayerCount: 2
Fore
SplineSet
67 606 m 1
 135 606 l 1
 135 0 l 1
 67 0 l 1
 67 606 l 1
EndSplineSet
Position2: "'cpsp' Capital Spacing lookup 0 subtable" dx=5 dy=0 dh=10 dv=0
EndChar

StartChar: IJ
Encoding: 306 306 45
Width: 552
GlyphClass: 2
Flags: MW
HStem: -11 64<331 377 331 398> 586 20G<67 135 135 135 426 494 494 494>
VStem: 67 68<0 606 0 606> 214 68<144 182 109 182> 426 68<136 144 144 606>
LayerCount: 2
Fore
SplineSet
67 0 m 1
 67 606 l 1
 135 606 l 1
 135 0 l 1
 67 0 l 1
494 606 m 1
 494 144 l 2
 494 43 442 -11 354 -11 c 0
 266 -11 214 43 214 144 c 2
 214 182 l 1
 282 182 l 1
 282 136 l 2
 282 82 308 53 354 53 c 0
 400 53 426 82 426 136 c 2
 426 606 l 1
 494 606 l 1
EndSplineSet
Position2: "'cpsp' Capital Spacing lookup 0 subtable" dx=5 dy=0 dh=10 dv=0
EndChar

StartChar: Iacute
Encoding: 205 205 46
Width: 202
GlyphClass: 2
Flags: MW
HStem: 586 20G<67 135 135 135> 664 117<52 197 52 197>
VStem: 67 68<0 606 0 606>
LayerCount: 2
Fore
SplineSet
105 664 m 1
 52 664 l 1
 128 781 l 1
 197 781 l 1
 198 778 l 1
 105 664 l 1
67 0 m 1
 67 606 l 1
 135 606 l 1
 135 0 l 1
 67 0 l 1
EndSplineSet
Position2: "'cpsp' Capital Spacing lookup 0 subtable" dx=5 dy=0 dh=10 dv=0
EndChar

StartChar: Ibreve
Encoding: 300 300 47
Width: 202
GlyphClass: 2
Flags: MW
HStem: 586 20G<67 135 135 135> 698 53<86.5 116 86.5 134.5>
VStem: 67 68<0 606 0 606>
LayerCount: 2
Fore
SplineSet
154 781 m 1
 207 781 l 1
 207 742 168 698 101 698 c 0
 36 698 -6 742 -6 781 c 1
 49 781 l 1
 51 768 72 751 101 751 c 0
 131 751 152 768 154 781 c 1
67 606 m 1
 135 606 l 1
 135 0 l 1
 67 0 l 1
 67 606 l 1
EndSplineSet
Position2: "'cpsp' Capital Spacing lookup 0 subtable" dx=5 dy=0 dh=10 dv=0
EndChar

StartChar: Icircumflex
Encoding: 206 206 48
Width: 202
GlyphClass: 2
Flags: MW
HStem: 586 20G<67 135 135 135> 660 120<-7 133 -7 133 70 141 70 208>
VStem: 67 68<0 606 0 606>
LayerCount: 2
Fore
SplineSet
102 732 m 1
 62 660 l 1
 -7 660 l 1
 70 780 l 1
 133 780 l 1
 208 660 l 1
 141 660 l 1
 102 732 l 1
67 606 m 1
 135 606 l 1
 135 0 l 1
 67 0 l 1
 67 606 l 1
EndSplineSet
Position2: "'cpsp' Capital Spacing lookup 0 subtable" dx=5 dy=0 dh=10 dv=0
EndChar

StartChar: Idieresis
Encoding: 207 207 49
Width: 202
GlyphClass: 2
Flags: MW
HStem: 586 20G<67 135 135 135> 701 80<1 74 1 74 128 201 1 128>
VStem: 1 73<701 781 701 781> 67 68<0 606 0 606> 128 73<701 781 701 781>
LayerCount: 2
Fore
SplineSet
1 701 m 1xe8
 1 781 l 1
 74 781 l 1
 74 701 l 1
 1 701 l 1xe8
128 701 m 1
 128 781 l 1
 201 781 l 1
 201 701 l 1
 128 701 l 1
67 0 m 1xd0
 67 606 l 1
 135 606 l 1
 135 0 l 1
 67 0 l 1xd0
EndSplineSet
Position2: "'cpsp' Capital Spacing lookup 0 subtable" dx=5 dy=0 dh=10 dv=0
EndChar

StartChar: Idotaccent
Encoding: 304 304 50
Width: 202
GlyphClass: 2
Flags: MW
HStem: 586 20G<67 135 135 135> 702 79<66 137 66 137>
VStem: 67 68<0 606 0 606>
LayerCount: 2
Fore
SplineSet
66 781 m 1
 137 781 l 1
 137 702 l 1
 66 702 l 1
 66 781 l 1
67 606 m 1
 135 606 l 1
 135 0 l 1
 67 0 l 1
 67 606 l 1
EndSplineSet
Position2: "'cpsp' Capital Spacing lookup 0 subtable" dx=5 dy=0 dh=10 dv=0
EndChar

StartChar: Igrave
Encoding: 204 204 51
Width: 202
GlyphClass: 2
Flags: MW
HStem: 586 20G<67 135 135 135> 664 117<3 99 3 152>
VStem: 67 68<0 606 0 606>
LayerCount: 2
Fore
SplineSet
99 664 m 1
 2 778 l 1
 3 781 l 1
 76 781 l 1
 152 664 l 1
 99 664 l 1
67 0 m 1
 67 606 l 1
 135 606 l 1
 135 0 l 1
 67 0 l 1
EndSplineSet
Position2: "'cpsp' Capital Spacing lookup 0 subtable" dx=5 dy=0 dh=10 dv=0
EndChar

StartChar: Imacron
Encoding: 298 298 52
Width: 202
GlyphClass: 2
Flags: MW
HStem: 586 20G<67 135 135 135> 671 60<-9 211 -9 211>
VStem: 67 68<0 606 0 606>
LayerCount: 2
Fore
SplineSet
-9 731 m 1
 211 731 l 1
 211 671 l 1
 -9 671 l 1
 -9 731 l 1
67 606 m 1
 135 606 l 1
 135 0 l 1
 67 0 l 1
 67 606 l 1
EndSplineSet
Position2: "'cpsp' Capital Spacing lookup 0 subtable" dx=5 dy=0 dh=10 dv=0
EndChar

StartChar: Iogonek
Encoding: 302 302 53
Width: 202
GlyphClass: 2
Flags: MW
HStem: -159 57<114.5 186> 586 20G<67 135 135 135>
VStem: 67 68<0 606 0 606>
LayerCount: 2
Fore
SplineSet
135 606 m 1
 135 0 l 1
 126 -13 114 -28 114 -53 c 0
 114 -79 127 -102 155 -102 c 2
 186 -102 l 1
 186 -147 l 1
 169 -154 151 -159 133 -159 c 0
 96 -159 52 -140 52 -79 c 0
 52 -42 65 -19 82 0 c 1
 67 0 l 1
 67 606 l 1
 135 606 l 1
EndSplineSet
Position2: "'cpsp' Capital Spacing lookup 0 subtable" dx=5 dy=0 dh=10 dv=0
EndChar

StartChar: Itilde
Encoding: 296 296 54
Width: 202
GlyphClass: 2
Flags: MW
HStem: 586 20G<67 135 135 135> 694 62<134.5 153.5 130 178> 719 62<47.5 67.5 24 72>
VStem: 67 68<0 606 0 606>
LayerCount: 2
Fore
SplineSet
175 781 m 1xb0
 224 781 l 1xb0
 224 742 203 694 153 694 c 0xd0
 116 694 89 719 55 719 c 0xb0
 40 719 29 713 27 694 c 1
 -22 694 l 1xd0
 -22 731 -1 781 49 781 c 0xb0
 86 781 113 756 147 756 c 0xd0
 160 756 173 761 175 781 c 1xb0
67 606 m 1
 135 606 l 1
 135 0 l 1
 67 0 l 1
 67 606 l 1
EndSplineSet
Position2: "'cpsp' Capital Spacing lookup 0 subtable" dx=5 dy=0 dh=10 dv=0
EndChar

StartChar: J
Encoding: 74 74 55
Width: 350
GlyphClass: 2
Flags: MW
HStem: -11 64<129 175 129 196> 586 20G<224 292 292 292>
VStem: 12 68<144 182 109 182> 224 68<136 144 144 606>
AnchorPoint: "Anchor-1" 0 0 basechar 0
AnchorPoint: "Anchor-0" 175 606 basechar 0
LayerCount: 2
Fore
SplineSet
292 606 m 1
 292 144 l 2
 292 43 240 -11 152 -11 c 0
 64 -11 12 43 12 144 c 2
 12 182 l 1
 80 182 l 1
 80 136 l 2
 80 82 106 53 152 53 c 0
 198 53 224 82 224 136 c 2
 224 606 l 1
 292 606 l 1
EndSplineSet
Position2: "'cpsp' Capital Spacing lookup 0 subtable" dx=5 dy=0 dh=10 dv=0
EndChar

StartChar: Jcircumflex
Encoding: 308 308 56
Width: 350
GlyphClass: 2
Flags: MW
HStem: -11 64<129 175 129 196> 586 20G<224 292 292 292> 660 120<147 287 147 287 223 363 223 296>
VStem: 12 68<144 182 109 182> 224 68<136 144 144 606>
LayerCount: 2
Fore
SplineSet
296 660 m 1
 257 732 l 1
 216 660 l 1
 147 660 l 1
 223 780 l 1
 287 780 l 1
 363 660 l 1
 296 660 l 1
292 606 m 1
 292 144 l 2
 292 43 240 -11 152 -11 c 0
 64 -11 12 43 12 144 c 2
 12 182 l 1
 80 182 l 1
 80 136 l 2
 80 82 106 53 152 53 c 0
 198 53 224 82 224 136 c 2
 224 606 l 1
 292 606 l 1
EndSplineSet
Position2: "'cpsp' Capital Spacing lookup 0 subtable" dx=5 dy=0 dh=10 dv=0
EndChar

StartChar: K
Encoding: 75 75 57
Width: 473
GlyphClass: 2
Flags: MW
HStem: 586 20G<65 132 132 132 377 453 453 453>
VStem: 65 67<0 198 283 606>
AnchorPoint: "Anchor-1" 236 0 basechar 0
AnchorPoint: "Anchor-0" 236 606 basechar 0
LayerCount: 2
Fore
SplineSet
453 606 m 1
 270 363 l 1
 459 0 l 1
 383 0 l 1
 230 303 l 1
 132 198 l 1
 132 0 l 1
 65 0 l 1
 65 606 l 1
 132 606 l 1
 132 283 l 1
 377 606 l 1
 453 606 l 1
EndSplineSet
Position2: "'cpsp' Capital Spacing lookup 0 subtable" dx=5 dy=0 dh=10 dv=0
EndChar

StartChar: Kcommaaccent
Encoding: 310 310 58
Width: 473
GlyphClass: 2
Flags: MW
HStem: -126 72<203 229 203 268> 586 20G<65 132 132 132 377 453 453 453>
VStem: 65 67<0 198 283 606> 203 65<-121 -54 -121 -54 -121 -54>
LayerCount: 2
Fore
SplineSet
453 606 m 1
 270 363 l 1
 459 0 l 1
 383 0 l 1
 230 303 l 1
 132 198 l 1
 132 0 l 1
 65 0 l 1
 65 606 l 1
 132 606 l 1
 132 283 l 1
 377 606 l 1
 453 606 l 1
214 -185 m 1
 229 -126 l 1
 203 -126 l 1
 203 -54 l 1
 268 -54 l 1
 268 -121 l 1
 248 -185 l 1
 214 -185 l 1
EndSplineSet
Position2: "'cpsp' Capital Spacing lookup 0 subtable" dx=5 dy=0 dh=10 dv=0
EndChar

StartChar: L
Encoding: 76 76 59
Width: 391
GlyphClass: 2
Flags: MW
HStem: 0 61<132 376 132 376> 586 20G<65 132 132 132>
VStem: 65 67<61 606 61 606 61 606>
AnchorPoint: "Anchor-1" 196 0 basechar 0
AnchorPoint: "Anchor-0" 196 606 basechar 0
LayerCount: 2
Fore
SplineSet
376 61 m 1
 376 0 l 1
 65 0 l 1
 65 606 l 1
 132 606 l 1
 132 61 l 1
 376 61 l 1
EndSplineSet
Position2: "'cpsp' Capital Spacing lookup 0 subtable" dx=5 dy=0 dh=10 dv=0
EndChar

StartChar: Lacute
Encoding: 313 313 60
Width: 391
GlyphClass: 2
Flags: MW
HStem: 0 61<132 376 132 376> 586 20G<65 132 132 132> 664 117<43 192 43 192>
VStem: 65 67<61 606 61 606 61 606>
LayerCount: 2
Fore
SplineSet
98 664 m 1
 43 664 l 1
 119 781 l 1
 192 781 l 1
 193 778 l 1
 98 664 l 1
376 61 m 1
 376 0 l 1
 65 0 l 1
 65 606 l 1
 132 606 l 1
 132 61 l 1
 376 61 l 1
EndSplineSet
Position2: "'cpsp' Capital Spacing lookup 0 subtable" dx=5 dy=0 dh=10 dv=0
EndChar

StartChar: Lcaron
Encoding: 317 317 61
Width: 391
GlyphClass: 2
Flags: MW
HStem: 0 61<132 376 132 376> 417 189<276 317 65 276> 519 87<276 308>
VStem: 65 67<61 606 61 606 61 606> 276 78<526 606 526 606 526 606>
LayerCount: 2
Fore
SplineSet
376 61 m 1xb8
 376 0 l 1
 65 0 l 1
 65 606 l 1
 132 606 l 1
 132 61 l 1
 376 61 l 1xb8
317 417 m 1xd8
 276 417 l 1xd8
 308 519 l 1
 276 519 l 1
 276 606 l 1
 354 606 l 1
 354 526 l 1xb8
 317 417 l 1xd8
EndSplineSet
Position2: "'cpsp' Capital Spacing lookup 0 subtable" dx=5 dy=0 dh=10 dv=0
EndChar

StartChar: Lcommaaccent
Encoding: 315 315 62
Width: 391
GlyphClass: 2
Flags: MW
HStem: -126 72<163 189 163 229> 0 61<132 376 132 376> 586 20G<65 132 132 132>
VStem: 65 67<61 606 61 606 61 606> 163 66<-121 -54 -121 -54 -121 -54>
LayerCount: 2
Fore
SplineSet
376 61 m 1
 376 0 l 1
 65 0 l 1
 65 606 l 1
 132 606 l 1
 132 61 l 1
 376 61 l 1
208 -185 m 1
 173 -185 l 1
 189 -126 l 1
 163 -126 l 1
 163 -54 l 1
 229 -54 l 1
 229 -121 l 1
 208 -185 l 1
EndSplineSet
Position2: "'cpsp' Capital Spacing lookup 0 subtable" dx=5 dy=0 dh=10 dv=0
EndChar

StartChar: Ldot
Encoding: 319 319 63
Width: 391
GlyphClass: 2
Flags: MW
HStem: 0 61<132 376 132 376> 367 97<256 344 256 344> 586 20G<65 132 132 132>
VStem: 65 67<61 606 61 606 61 606> 256 88<367 464 367 464>
LayerCount: 2
Fore
SplineSet
376 61 m 1
 376 0 l 1
 65 0 l 1
 65 606 l 1
 132 606 l 1
 132 61 l 1
 376 61 l 1
256 367 m 1
 256 464 l 1
 344 464 l 1
 344 367 l 1
 256 367 l 1
EndSplineSet
Ligature2: "Ligature Substitution lookup 20 subtable" L periodcentered
Position2: "'cpsp' Capital Spacing lookup 0 subtable" dx=5 dy=0 dh=10 dv=0
EndChar

StartChar: Lslash
Encoding: 321 321 64
Width: 391
GlyphClass: 2
Flags: MW
HStem: 0 61<132 376 132 376> 586 20G<65 132 132 132>
VStem: 65 67<61 219 219 219 276 279 61 336 336 606>
LayerCount: 2
Fore
SplineSet
259 448 m 1
 259 390 l 1
 132 279 l 1
 132 61 l 1
 376 61 l 1
 376 0 l 1
 65 0 l 1
 65 219 l 1
 0 163 l 1
 0 219 l 1
 65 276 l 1
 65 606 l 1
 132 606 l 1
 132 336 l 1
 259 448 l 1
EndSplineSet
Position2: "'cpsp' Capital Spacing lookup 0 subtable" dx=5 dy=0 dh=10 dv=0
EndChar

StartChar: M
Encoding: 77 77 65
Width: 604
GlyphClass: 2
Flags: MW
HStem: 0 53<300 303 300 328 267 303> 549 57<113 117 113 113 480 483 480 480>
VStem: 57 63<0 456 0 606> 476 71<0 456 456 465.5>
LayerCount: 2
Fore
SplineSet
476 0 m 1
 476 456 l 2
 476 475 483 549 483 549 c 1
 480 549 l 1
 473 515 467 481 457 447 c 2
 328 0 l 1
 267 0 l 1
 134 455 l 2
 126 484 123 518 117 549 c 1
 113 549 l 1
 113 549 120 472 120 456 c 2
 120 0 l 1
 57 0 l 1
 57 606 l 1
 163 606 l 1
 280 190 l 2
 293 144 300 53 300 53 c 1
 303 53 l 1
 303 53 309 145 323 190 c 2
 439 606 l 1
 547 606 l 1
 547 0 l 1
 476 0 l 1
EndSplineSet
Position2: "'cpsp' Capital Spacing lookup 0 subtable" dx=5 dy=0 dh=10 dv=0
EndChar

StartChar: N
Encoding: 78 78 66
Width: 523
GlyphClass: 2
Flags: MW
HStem: 586 20G<65 122 122 122 398 458 458 458>
VStem: 65 61<0 400 0 606> 398 60<212 606 0 606>
AnchorPoint: "Anchor-1" 262 0 basechar 0
AnchorPoint: "Anchor-0" 262 606 basechar 0
LayerCount: 2
Fore
SplineSet
405 0 m 1
 166 401 l 2
 149 431 124 491 124 491 c 1
 121 490 l 1
 121 490 126 428 126 400 c 2
 126 0 l 1
 65 0 l 1
 65 606 l 1
 122 606 l 1
 358 211 l 2
 373 186 399 123 399 123 c 1
 401 124 l 1
 401 124 398 190 398 212 c 2
 398 606 l 1
 458 606 l 1
 458 0 l 1
 405 0 l 1
EndSplineSet
Position2: "'cpsp' Capital Spacing lookup 0 subtable" dx=5 dy=0 dh=10 dv=0
EndChar

StartChar: Nacute
Encoding: 323 323 67
Width: 523
GlyphClass: 2
Flags: MW
HStem: 586 20G<65 122 122 122 398 458 458 458> 664 117<211 358 211 358>
VStem: 65 61<0 400 0 606> 398 60<212 606 0 606>
LayerCount: 2
Fore
SplineSet
266 664 m 1
 211 664 l 1
 287 781 l 1
 358 781 l 1
 359 778 l 1
 266 664 l 1
405 0 m 1
 166 401 l 2
 149 431 124 491 124 491 c 1
 121 490 l 1
 121 490 126 428 126 400 c 2
 126 0 l 1
 65 0 l 1
 65 606 l 1
 122 606 l 1
 358 211 l 2
 373 186 399 123 399 123 c 1
 401 124 l 1
 401 124 398 190 398 212 c 2
 398 606 l 1
 458 606 l 1
 458 0 l 1
 405 0 l 1
EndSplineSet
Position2: "'cpsp' Capital Spacing lookup 0 subtable" dx=5 dy=0 dh=10 dv=0
EndChar

StartChar: Ncaron
Encoding: 327 327 68
Width: 523
GlyphClass: 2
Flags: MW
HStem: 586 20G<65 122 122 122 398 458 458 458> 661 120<153 228 153 292>
VStem: 65 61<0 400 0 606> 398 60<212 606 0 606>
LayerCount: 2
Fore
SplineSet
228 661 m 1
 153 781 l 1
 222 781 l 1
 262 708 l 1
 301 781 l 1
 369 781 l 1
 292 661 l 1
 228 661 l 1
405 0 m 1
 166 401 l 2
 149 431 124 491 124 491 c 1
 121 490 l 1
 121 490 126 428 126 400 c 2
 126 0 l 1
 65 0 l 1
 65 606 l 1
 122 606 l 1
 358 211 l 2
 373 186 399 123 399 123 c 1
 401 124 l 1
 401 124 398 190 398 212 c 2
 398 606 l 1
 458 606 l 1
 458 0 l 1
 405 0 l 1
EndSplineSet
Position2: "'cpsp' Capital Spacing lookup 0 subtable" dx=5 dy=0 dh=10 dv=0
EndChar

StartChar: Ncommaaccent
Encoding: 325 325 69
Width: 523
GlyphClass: 2
Flags: MW
HStem: -126 72<229 256 229 295> 586 20G<65 122 122 122 398 458 458 458>
VStem: 65 61<0 400 0 606> 229 66<-121 -54 -121 -54 -121 -54> 398 60<212 606 0 606>
LayerCount: 2
Fore
SplineSet
405 0 m 1
 166 401 l 2
 149 431 124 491 124 491 c 1
 121 490 l 1
 121 490 126 428 126 400 c 2
 126 0 l 1
 65 0 l 1
 65 606 l 1
 122 606 l 1
 358 211 l 2
 373 186 399 123 399 123 c 1
 401 124 l 1
 401 124 398 190 398 212 c 2
 398 606 l 1
 458 606 l 1
 458 0 l 1
 405 0 l 1
273 -185 m 1
 238 -185 l 1
 256 -126 l 1
 229 -126 l 1
 229 -54 l 1
 295 -54 l 1
 295 -121 l 1
 273 -185 l 1
EndSplineSet
Position2: "'cpsp' Capital Spacing lookup 0 subtable" dx=5 dy=0 dh=10 dv=0
EndChar

StartChar: Eng
Encoding: 330 330 70
Width: 523
GlyphClass: 2
Flags: MW
HStem: -161 53<362 367 316 405> 586 20G<65 122 122 122 395 458 458 458>
VStem: 65 61<0 400 0 606> 398 60<201 212>
LayerCount: 2
Fore
SplineSet
458 606 m 1
 458 -59 l 2
 458 -110 438 -161 372 -161 c 0
 352 -161 330 -156 316 -150 c 1
 316 -108 l 1
 353 -108 l 2
 381 -108 395 -93 395 -65 c 2
 395 17 l 1
 166 401 l 2
 149 431 124 491 124 491 c 1
 121 490 l 1
 121 490 126 428 126 400 c 2
 126 0 l 1
 65 0 l 1
 65 606 l 1
 122 606 l 1
 358 211 l 2
 373 186 399 123 399 123 c 1
 401 124 l 1
 401 124 398 190 398 212 c 2
 395 606 l 1
 458 606 l 1
EndSplineSet
Position2: "'cpsp' Capital Spacing lookup 0 subtable" dx=5 dy=0 dh=10 dv=0
EndChar

StartChar: Ntilde
Encoding: 209 209 71
Width: 523
GlyphClass: 2
Flags: MW
HStem: 586 20G<65 122 122 122 398 458 458 458> 694 62<295 314.5 290.5 339> 719 62<208.5 228.5 185 232.5>
VStem: 65 61<0 400 0 606> 398 60<212 606 0 606>
LayerCount: 2
Fore
SplineSet
335 781 m 1xb8
 385 781 l 1xb8
 385 742 364 694 314 694 c 0xd8
 276 694 249 719 216 719 c 0xb8
 201 719 191 713 188 694 c 1
 139 694 l 1xd8
 139 731 160 781 210 781 c 0xb8
 247 781 274 756 307 756 c 0xd8
 322 756 334 761 335 781 c 1xb8
405 0 m 1
 166 401 l 2
 149 431 124 491 124 491 c 1
 121 490 l 1
 121 490 126 428 126 400 c 2
 126 0 l 1
 65 0 l 1
 65 606 l 1
 122 606 l 1
 358 211 l 2
 373 186 399 123 399 123 c 1
 401 124 l 1
 401 124 398 190 398 212 c 2
 398 606 l 1
 458 606 l 1
 458 0 l 1
 405 0 l 1
EndSplineSet
Position2: "'cpsp' Capital Spacing lookup 0 subtable" dx=5 dy=0 dh=10 dv=0
EndChar

StartChar: O
Encoding: 79 79 72
Width: 564
GlyphClass: 2
Flags: MW
HStem: -11 64<232.5 331.5 232.5 355.5> 552 65<232.5 331.5>
VStem: 47 72<203 281 281 325 203 408> 445 72<281 325 325 403>
AnchorPoint: "Anchor-1" 0 0 basechar 0
AnchorPoint: "Anchor-0" 282 606 basechar 0
LayerCount: 2
Fore
SplineSet
282 617 m 0
 429 617 517 513 517 303 c 0
 517 94 429 -11 282 -11 c 0
 135 -11 47 94 47 303 c 0
 47 513 135 617 282 617 c 0
282 552 m 0
 183 552 119 481 119 325 c 2
 119 281 l 2
 119 125 183 53 282 53 c 0
 381 53 445 125 445 281 c 2
 445 325 l 2
 445 481 381 552 282 552 c 0
EndSplineSet
Substitution2: "Single Substitution lookup 21 subtable" ordmasculine
Substitution2: "'aalt' Access All Alternates lookup 0 subtable" ordmasculine
Position2: "'cpsp' Capital Spacing lookup 0 subtable" dx=5 dy=0 dh=10 dv=0
EndChar

StartChar: Oacute
Encoding: 211 211 73
Width: 564
GlyphClass: 2
Flags: MW
HStem: -11 64<232.5 331.5 232.5 355.5> 552 65<232.5 331.5> 664 117<233 379 233 379>
VStem: 47 72<203 281 281 325 203 408> 445 72<281 325 325 403>
LayerCount: 2
Fore
SplineSet
286 664 m 1
 233 664 l 1
 309 781 l 1
 379 781 l 1
 380 778 l 1
 286 664 l 1
282 617 m 0
 429 617 517 513 517 303 c 0
 517 94 429 -11 282 -11 c 0
 135 -11 47 94 47 303 c 0
 47 513 135 617 282 617 c 0
282 552 m 0
 183 552 119 481 119 325 c 2
 119 281 l 2
 119 125 183 53 282 53 c 0
 381 53 445 125 445 281 c 2
 445 325 l 2
 445 481 381 552 282 552 c 0
EndSplineSet
Position2: "'cpsp' Capital Spacing lookup 0 subtable" dx=5 dy=0 dh=10 dv=0
EndChar

StartChar: Obreve
Encoding: 334 334 74
Width: 564
GlyphClass: 2
Flags: MW
HStem: -11 64<232.5 331.5 232.5 355.5> 552 65<232.5 331.5> 698 53<267.5 297 267.5 315.5>
VStem: 47 72<203 281 281 325 203 408> 445 72<281 325 325 403>
LayerCount: 2
Fore
SplineSet
335 781 m 1
 390 781 l 1
 390 742 349 698 282 698 c 0
 216 698 176 742 176 781 c 1
 230 781 l 1
 232 768 253 751 282 751 c 0
 312 751 333 768 335 781 c 1
282 617 m 0
 429 617 517 513 517 303 c 0
 517 94 429 -11 282 -11 c 0
 135 -11 47 94 47 303 c 0
 47 513 135 617 282 617 c 0
282 552 m 0
 183 552 119 481 119 325 c 2
 119 281 l 2
 119 125 183 53 282 53 c 0
 381 53 445 125 445 281 c 2
 445 325 l 2
 445 481 381 552 282 552 c 0
EndSplineSet
Position2: "'cpsp' Capital Spacing lookup 0 subtable" dx=5 dy=0 dh=10 dv=0
EndChar

StartChar: Ocircumflex
Encoding: 212 212 75
Width: 564
GlyphClass: 2
Flags: MW
HStem: -11 64<232.5 331.5 232.5 355.5> 552 65<232.5 331.5> 660 120<174 314 174 314 250 322 250 389>
VStem: 47 72<203 281 281 325 203 408> 445 72<281 325 325 403>
LayerCount: 2
Fore
SplineSet
283 732 m 1
 243 660 l 1
 174 660 l 1
 250 780 l 1
 314 780 l 1
 389 660 l 1
 322 660 l 1
 283 732 l 1
282 617 m 0
 429 617 517 513 517 303 c 0
 517 94 429 -11 282 -11 c 0
 135 -11 47 94 47 303 c 0
 47 513 135 617 282 617 c 0
282 552 m 0
 183 552 119 481 119 325 c 2
 119 281 l 2
 119 125 183 53 282 53 c 0
 381 53 445 125 445 281 c 2
 445 325 l 2
 445 481 381 552 282 552 c 0
EndSplineSet
Position2: "'cpsp' Capital Spacing lookup 0 subtable" dx=5 dy=0 dh=10 dv=0
EndChar

StartChar: Odieresis
Encoding: 214 214 76
Width: 564
GlyphClass: 2
Flags: MW
HStem: -11 64<232.5 331.5 232.5 355.5> 552 65<232.5 331.5> 701 80<183 257 183 257 308 382 183 308>
VStem: 47 72<203 281 281 325 203 408> 183 74<701 781 701 781> 308 74<701 781 701 781> 445 72<281 325 325 403>
LayerCount: 2
Fore
SplineSet
183 701 m 1
 183 781 l 1
 257 781 l 1
 257 701 l 1
 183 701 l 1
308 701 m 1
 308 781 l 1
 382 781 l 1
 382 701 l 1
 308 701 l 1
282 617 m 0
 429 617 517 513 517 303 c 0
 517 94 429 -11 282 -11 c 0
 135 -11 47 94 47 303 c 0
 47 513 135 617 282 617 c 0
282 552 m 0
 183 552 119 481 119 325 c 2
 119 281 l 2
 119 125 183 53 282 53 c 0
 381 53 445 125 445 281 c 2
 445 325 l 2
 445 481 381 552 282 552 c 0
EndSplineSet
Position2: "'cpsp' Capital Spacing lookup 0 subtable" dx=5 dy=0 dh=10 dv=0
EndChar

StartChar: Ograve
Encoding: 210 210 77
Width: 564
GlyphClass: 2
Flags: MW
HStem: -11 64<232.5 331.5 232.5 355.5> 552 65<232.5 331.5> 664 117<184 280 184 333>
VStem: 47 72<203 281 281 325 203 408> 445 72<281 325 325 403>
LayerCount: 2
Fore
SplineSet
280 664 m 1
 185 778 l 1
 184 781 l 1
 257 781 l 1
 333 664 l 1
 280 664 l 1
282 617 m 0
 429 617 517 513 517 303 c 0
 517 94 429 -11 282 -11 c 0
 135 -11 47 94 47 303 c 0
 47 513 135 617 282 617 c 0
282 552 m 0
 183 552 119 481 119 325 c 2
 119 281 l 2
 119 125 183 53 282 53 c 0
 381 53 445 125 445 281 c 2
 445 325 l 2
 445 481 381 552 282 552 c 0
EndSplineSet
Position2: "'cpsp' Capital Spacing lookup 0 subtable" dx=5 dy=0 dh=10 dv=0
EndChar

StartChar: Ohungarumlaut
Encoding: 336 336 78
Width: 564
GlyphClass: 2
Flags: MW
HStem: -11 64<232.5 331.5 232.5 355.5> 552 65<232.5 331.5> 664 117<257 259 202 332 315 315 315 332 370 373>
VStem: 47 72<203 281 281 325 203 408> 445 72<281 325 325 403>
LayerCount: 2
Fore
SplineSet
259 664 m 1
 202 664 l 1
 257 781 l 1
 332 781 l 1
 333 778 l 1
 259 664 l 1
373 664 m 1
 315 664 l 1
 370 781 l 1
 446 781 l 1
 447 778 l 1
 373 664 l 1
282 617 m 0
 429 617 517 513 517 303 c 0
 517 94 429 -11 282 -11 c 0
 135 -11 47 94 47 303 c 0
 47 513 135 617 282 617 c 0
282 552 m 0
 183 552 119 481 119 325 c 2
 119 281 l 2
 119 125 183 53 282 53 c 0
 381 53 445 125 445 281 c 2
 445 325 l 2
 445 481 381 552 282 552 c 0
EndSplineSet
Position2: "'cpsp' Capital Spacing lookup 0 subtable" dx=5 dy=0 dh=10 dv=0
EndChar

StartChar: Omacron
Encoding: 332 332 79
Width: 564
GlyphClass: 2
Flags: MW
HStem: -11 64<232.5 331.5 232.5 355.5> 552 65<232.5 331.5> 671 60<171 392 171 392>
VStem: 47 72<203 281 281 325 203 408> 171 221<671 731 671 731> 445 72<281 325 325 403>
LayerCount: 2
Fore
SplineSet
171 731 m 1
 392 731 l 1
 392 671 l 1
 171 671 l 1
 171 731 l 1
282 617 m 0
 429 617 517 513 517 303 c 0
 517 94 429 -11 282 -11 c 0
 135 -11 47 94 47 303 c 0
 47 513 135 617 282 617 c 0
282 552 m 0
 183 552 119 481 119 325 c 2
 119 281 l 2
 119 125 183 53 282 53 c 0
 381 53 445 125 445 281 c 2
 445 325 l 2
 445 481 381 552 282 552 c 0
EndSplineSet
Position2: "'cpsp' Capital Spacing lookup 0 subtable" dx=5 dy=0 dh=10 dv=0
EndChar

StartChar: Oslash
Encoding: 216 216 80
Width: 564
GlyphClass: 2
Flags: MW
HStem: -11 64<260.5 331.5 260.5 355.5> 552 65<232.5 303> 619 20G<467 518 518 518>
VStem: 47 72<251 281 281 325 249 408> 445 72<281 325 325 355.5 198.5 357>
AnchorPoint: "Anchor-1" 0 0 basechar 0
AnchorPoint: "Anchor-0" 282 606 basechar 0
LayerCount: 2
Fore
SplineSet
518 639 m 1
 454 538 l 1
 494 485 517 408 517 303 c 0
 517 94 429 -11 282 -11 c 0
 225 -11 178 5 140 36 c 1
 98 -33 l 1
 47 -33 l 1
 110 67 l 1
 68 119 47 199 47 303 c 0
 47 513 135 617 282 617 c 0
 339 617 386 601 424 570 c 1xd8
 467 639 l 1
 518 639 l 1
282 552 m 0
 183 552 119 481 119 325 c 2
 119 281 l 2
 119 217 129 167 149 131 c 1
 388 511 l 1
 359 540 324 552 282 552 c 0
416 476 m 1
 176 93 l 1
 204 66 239 53 282 53 c 0
 381 53 445 125 445 281 c 2
 445 325 l 2
 445 389 435 439 416 476 c 1
EndSplineSet
Position2: "'cpsp' Capital Spacing lookup 0 subtable" dx=5 dy=0 dh=10 dv=0
EndChar

StartChar: Oslashacute
Encoding: 510 510 81
Width: 564
GlyphClass: 2
Flags: MW
HStem: -11 64<260.5 331.5 260.5 355.5> 552 65<232.5 303> 619 20G<467 518 518 518> 664 117<233 379 233 379>
VStem: 47 72<251 281 281 325 249 408> 445 72<281 325 325 355.5 198.5 357>
LayerCount: 2
Fore
SplineSet
286 664 m 1
 233 664 l 1
 309 781 l 1
 379 781 l 1
 380 778 l 1
 286 664 l 1
518 639 m 1xbc
 454 538 l 1
 494 485 517 408 517 303 c 0
 517 94 429 -11 282 -11 c 0
 225 -11 178 5 140 36 c 1
 98 -33 l 1
 47 -33 l 1
 110 67 l 1
 68 119 47 199 47 303 c 0
 47 513 135 617 282 617 c 0
 339 617 386 601 424 570 c 1xdc
 467 639 l 1
 518 639 l 1xbc
282 552 m 0
 183 552 119 481 119 325 c 2
 119 281 l 2
 119 217 129 167 149 131 c 1
 388 511 l 1
 359 540 324 552 282 552 c 0
416 476 m 1
 176 93 l 1
 204 66 239 53 282 53 c 0
 381 53 445 125 445 281 c 2
 445 325 l 2
 445 389 435 439 416 476 c 1
EndSplineSet
Position2: "'cpsp' Capital Spacing lookup 0 subtable" dx=5 dy=0 dh=10 dv=0
EndChar

StartChar: Otilde
Encoding: 213 213 82
Width: 564
GlyphClass: 2
Flags: MW
HStem: -11 64<232.5 331.5 232.5 355.5> 552 65<232.5 331.5> 694 62<315.5 335 310.5 359> 719 62<228.5 248.5 205 253>
VStem: 47 72<203 281 281 325 203 408> 445 72<281 325 325 403>
LayerCount: 2
Fore
SplineSet
356 781 m 1xdc
 405 781 l 1xdc
 405 742 384 694 334 694 c 0xec
 297 694 270 719 236 719 c 0xdc
 221 719 210 713 207 694 c 1
 159 694 l 1xec
 159 731 180 781 230 781 c 0xdc
 267 781 294 756 327 756 c 0xec
 343 756 353 761 356 781 c 1xdc
282 617 m 0
 429 617 517 513 517 303 c 0
 517 94 429 -11 282 -11 c 0
 135 -11 47 94 47 303 c 0
 47 513 135 617 282 617 c 0
282 552 m 0
 183 552 119 481 119 325 c 2
 119 281 l 2
 119 125 183 53 282 53 c 0
 381 53 445 125 445 281 c 2
 445 325 l 2
 445 481 381 552 282 552 c 0
EndSplineSet
Position2: "'cpsp' Capital Spacing lookup 0 subtable" dx=5 dy=0 dh=10 dv=0
EndChar

StartChar: OE
Encoding: 338 338 83
Width: 725
GlyphClass: 2
Flags: MW
HStem: -11 64<210 274> 0 62<447 691 380 380> 279 63<447 646 447 646> 545 61<447 686 447 447> 552 65<210 274 183 289.5>
VStem: 48 72<205.5 281 281 325 205.5 408> 381 66<62 325 342 400.5>
AnchorPoint: "Anchor-1" 0 0 basechar 0
AnchorPoint: "Anchor-0" 362 606 basechar 0
LayerCount: 2
Fore
SplineSet
245 617 m 0xae
 303 617 348 592 380 544 c 1x6e
 380 606 l 1
 686 606 l 1
 686 545 l 1
 447 545 l 1
 447 342 l 1
 646 342 l 1
 646 279 l 1
 447 279 l 1
 447 62 l 1
 691 62 l 1
 691 0 l 1
 380 0 l 1x76
 380 62 l 1
 348 13 303 -11 245 -11 c 0
 121 -11 48 94 48 303 c 0
 48 513 121 617 245 617 c 0xae
250 552 m 0
 170 552 120 476 120 325 c 2
 120 281 l 2
 120 130 170 53 250 53 c 0
 329 53 381 130 381 281 c 2
 381 325 l 2
 381 476 329 552 250 552 c 0
EndSplineSet
Position2: "'cpsp' Capital Spacing lookup 0 subtable" dx=5 dy=0 dh=10 dv=0
EndChar

StartChar: P
Encoding: 80 80 84
Width: 484
GlyphClass: 2
Flags: MW
HStem: 254 63<132 280 132 281> 545 61<132 280 280 281 132 132>
VStem: 65 67<0 254 317 545> 388 72<397.5 466.5>
LayerCount: 2
Fore
SplineSet
65 0 m 1
 65 606 l 1
 280 606 l 2
 399 606 460 536 460 432 c 0
 460 327 393 254 280 254 c 2
 132 254 l 1
 132 0 l 1
 65 0 l 1
132 317 m 1
 281 317 l 2
 345 317 388 363 388 432 c 0
 388 501 351 545 281 545 c 2
 132 545 l 1
 132 317 l 1
EndSplineSet
Position2: "'cpsp' Capital Spacing lookup 0 subtable" dx=5 dy=0 dh=10 dv=0
EndChar

StartChar: Thorn
Encoding: 222 222 85
Width: 484
GlyphClass: 2
Flags: MW
HStem: 131 62<132 280 132 281> 420 62<132 280 280 281 132 280> 420 186<65 281 65 132>
VStem: 65 67<0 131 193 420 482 606> 388 72<273 342.5>
LayerCount: 2
Fore
SplineSet
132 482 m 1xd8
 280 482 l 2xd8
 399 482 460 413 460 307 c 0
 460 202 393 131 280 131 c 2
 132 131 l 1
 132 0 l 1
 65 0 l 1
 65 606 l 1
 132 606 l 1xb8
 132 482 l 1xd8
132 193 m 1
 281 193 l 2
 345 193 388 239 388 307 c 0
 388 378 351 420 281 420 c 2
 132 420 l 1
 132 193 l 1
EndSplineSet
Position2: "'cpsp' Capital Spacing lookup 0 subtable" dx=5 dy=0 dh=10 dv=0
EndChar

StartChar: Q
Encoding: 81 81 86
Width: 564
GlyphClass: 2
Flags: MW
HStem: -11 64<232.5 282 282 293> 552 65<232.5 331.5>
VStem: 47 72<203 281 281 325 203 408> 445 72<281 325 325 403>
LayerCount: 2
Fore
SplineSet
47 303 m 0
 47 513 135 617 282 617 c 0
 429 617 517 513 517 303 c 0
 517 139 463 39 370 3 c 1
 497 -110 l 1
 403 -110 l 1
 293 -11 l 1
 282 -11 l 2
 135 -11 47 94 47 303 c 0
119 325 m 2
 119 281 l 2
 119 125 183 53 282 53 c 0
 381 53 445 125 445 281 c 2
 445 325 l 2
 445 481 381 552 282 552 c 0
 183 552 119 481 119 325 c 2
EndSplineSet
Position2: "'cpsp' Capital Spacing lookup 0 subtable" dx=5 dy=0 dh=10 dv=0
EndChar

StartChar: R
Encoding: 82 82 87
Width: 523
GlyphClass: 2
Flags: MW
HStem: 272 63<132 307 132 307> 545 61<132 305 132 132>
VStem: 65 67<0 272 335 545> 417 69<408 472>
AnchorPoint: "Anchor-1" 262 0 basechar 0
AnchorPoint: "Anchor-0" 262 606 basechar 0
LayerCount: 2
Fore
SplineSet
65 606 m 1
 306 606 l 2
 424 606 486 539 486 439 c 0
 486 364 445 306 375 283 c 1
 499 0 l 1
 424 0 l 1
 307 272 l 1
 132 272 l 1
 132 0 l 1
 65 0 l 1
 65 606 l 1
132 335 m 1
 307 335 l 2
 371 335 417 377 417 439 c 0
 417 505 377 545 305 545 c 2
 132 545 l 1
 132 335 l 1
EndSplineSet
Position2: "'cpsp' Capital Spacing lookup 0 subtable" dx=5 dy=0 dh=10 dv=0
EndChar

StartChar: Racute
Encoding: 340 340 88
Width: 523
GlyphClass: 2
Flags: MW
HStem: 272 63<132 307 132 307> 545 61<132 305 132 132> 664 117<185 334 185 334>
VStem: 65 67<0 272 335 545> 417 69<408 472>
LayerCount: 2
Fore
SplineSet
240 664 m 1
 185 664 l 1
 261 781 l 1
 334 781 l 1
 335 778 l 1
 240 664 l 1
65 606 m 1
 306 606 l 2
 424 606 486 539 486 439 c 0
 486 364 445 306 375 283 c 1
 499 0 l 1
 424 0 l 1
 307 272 l 1
 132 272 l 1
 132 0 l 1
 65 0 l 1
 65 606 l 1
132 335 m 1
 307 335 l 2
 371 335 417 377 417 439 c 0
 417 505 377 545 305 545 c 2
 132 545 l 1
 132 335 l 1
EndSplineSet
Position2: "'cpsp' Capital Spacing lookup 0 subtable" dx=5 dy=0 dh=10 dv=0
EndChar

StartChar: Rcaron
Encoding: 344 344 89
Width: 523
GlyphClass: 2
Flags: MW
HStem: 272 63<132 307 132 307> 545 61<132 305 132 132> 661 120<153 228 153 292>
VStem: 65 67<0 272 335 545> 417 69<408 472>
LayerCount: 2
Fore
SplineSet
228 661 m 1
 153 781 l 1
 222 781 l 1
 262 708 l 1
 301 781 l 1
 369 781 l 1
 292 661 l 1
 228 661 l 1
65 606 m 1
 306 606 l 2
 424 606 486 539 486 439 c 0
 486 364 445 306 375 283 c 1
 499 0 l 1
 424 0 l 1
 307 272 l 1
 132 272 l 1
 132 0 l 1
 65 0 l 1
 65 606 l 1
132 335 m 1
 307 335 l 2
 371 335 417 377 417 439 c 0
 417 505 377 545 305 545 c 2
 132 545 l 1
 132 335 l 1
EndSplineSet
Position2: "'cpsp' Capital Spacing lookup 0 subtable" dx=5 dy=0 dh=10 dv=0
EndChar

StartChar: Rcommaaccent
Encoding: 342 342 90
Width: 523
GlyphClass: 2
Flags: MW
HStem: -126 72<229 256 229 295> 272 63<132 307 132 307> 545 61<132 305 132 132>
VStem: 65 67<0 272 335 545> 229 66<-121 -54 -121 -54 -121 -54> 417 69<408 472>
LayerCount: 2
Fore
SplineSet
65 606 m 1
 306 606 l 2
 424 606 486 539 486 439 c 0
 486 364 445 306 375 283 c 1
 499 0 l 1
 424 0 l 1
 307 272 l 1
 132 272 l 1
 132 0 l 1
 65 0 l 1
 65 606 l 1
132 335 m 1
 307 335 l 2
 371 335 417 377 417 439 c 0
 417 505 377 545 305 545 c 2
 132 545 l 1
 132 335 l 1
273 -185 m 1
 238 -185 l 1
 256 -126 l 1
 229 -126 l 1
 229 -54 l 1
 295 -54 l 1
 295 -121 l 1
 273 -185 l 1
EndSplineSet
Position2: "'cpsp' Capital Spacing lookup 0 subtable" dx=5 dy=0 dh=10 dv=0
EndChar

StartChar: S
Encoding: 83 83 91
Width: 484
GlyphClass: 2
Flags: MW
HStem: -11 64<200.5 278.5 200.5 299> 552 65<210.5 276>
VStem: 39 70<127 167 127 172.5> 52 72<387 495 387 511.5> 359 70<438 448 438 453 438 485.5> 373 72<125.5 241>
AnchorPoint: "Anchor-1" 242 0 basechar 0
AnchorPoint: "Anchor-0" 242 606 basechar 0
LayerCount: 2
Fore
SplineSet
241 617 m 0xe8
 346 617 429 569 429 448 c 2
 429 438 l 1
 359 438 l 1
 359 453 l 2xe8
 359 518 308 552 244 552 c 0
 177 552 124 527 124 463 c 0xd4
 124 311 445 383 445 173 c 0
 445 38 357 -11 241 -11 c 0
 131 -11 39 34 39 169 c 0
 39 176 40 185 40 187 c 2
 110 187 l 1
 109 167 l 2xe4
 109 87 165 53 236 53 c 0
 321 53 373 88 373 163 c 0
 373 319 52 240 52 456 c 0xd4
 52 567 135 617 241 617 c 0xe8
EndSplineSet
Position2: "'cpsp' Capital Spacing lookup 0 subtable" dx=5 dy=0 dh=10 dv=0
EndChar

StartChar: Sacute
Encoding: 346 346 92
Width: 484
GlyphClass: 2
Flags: MW
HStem: -11 64<200.5 278.5 200.5 299> 552 65<210.5 276> 664 117<191 340 191 340>
VStem: 39 70<127 167 127 172.5> 52 72<387 495 387 511.5> 359 70<438 448 438 453 438 485.5> 373 72<125.5 241>
LayerCount: 2
Fore
SplineSet
244 664 m 1xf4
 191 664 l 1
 267 781 l 1
 340 781 l 1
 341 778 l 1
 244 664 l 1xf4
241 617 m 0
 346 617 429 569 429 448 c 2
 429 438 l 1
 359 438 l 1
 359 453 l 2xf4
 359 518 308 552 244 552 c 0
 177 552 124 527 124 463 c 0xea
 124 311 445 383 445 173 c 0
 445 38 357 -11 241 -11 c 0
 131 -11 39 34 39 169 c 0
 39 176 40 185 40 187 c 2
 110 187 l 1
 109 167 l 2xf2
 109 87 165 53 236 53 c 0
 321 53 373 88 373 163 c 0
 373 319 52 240 52 456 c 0xea
 52 567 135 617 241 617 c 0
EndSplineSet
Position2: "'cpsp' Capital Spacing lookup 0 subtable" dx=5 dy=0 dh=10 dv=0
EndChar

StartChar: Scaron
Encoding: 352 352 93
Width: 484
GlyphClass: 2
Flags: MW
HStem: -11 64<200.5 278.5 200.5 299> 552 65<210.5 276> 661 120<135 273 135 209>
VStem: 39 70<127 167 127 172.5> 52 72<387 495 387 511.5> 359 70<438 448 438 453 438 485.5> 373 72<125.5 241>
LayerCount: 2
Fore
SplineSet
135 781 m 1xf4
 202 781 l 1
 241 708 l 1
 281 781 l 1
 349 781 l 1
 273 661 l 1
 209 661 l 1
 135 781 l 1xf4
241 617 m 0
 346 617 429 569 429 448 c 2
 429 438 l 1
 359 438 l 1
 359 453 l 2xf4
 359 518 308 552 244 552 c 0
 177 552 124 527 124 463 c 0xea
 124 311 445 383 445 173 c 0
 445 38 357 -11 241 -11 c 0
 131 -11 39 34 39 169 c 0
 39 176 40 185 40 187 c 2
 110 187 l 1
 109 167 l 2xf2
 109 87 165 53 236 53 c 0
 321 53 373 88 373 163 c 0
 373 319 52 240 52 456 c 0xea
 52 567 135 617 241 617 c 0
EndSplineSet
Position2: "'cpsp' Capital Spacing lookup 0 subtable" dx=5 dy=0 dh=10 dv=0
EndChar

StartChar: Scedilla
Encoding: 350 350 94
Width: 484
GlyphClass: 2
Flags: MW
HStem: -161 50<221.5 228 228 238 160 251.5> -68 35<201 253> -9 62<211 211> 552 65<210.5 276>
VStem: 39 70<127 167 127 172.5> 52 72<387 495 387 511.5> 260 64<-97.5 -82> 359 70<438 448 438 453 438 485.5> 373 72<125.5 241>
LayerCount: 2
Fore
SplineSet
241 617 m 0xdb
 346 617 429 569 429 448 c 2
 429 438 l 1
 359 438 l 1
 359 453 l 2xdb
 359 518 308 552 244 552 c 0
 177 552 124 527 124 463 c 0
 124 311 445 383 445 173 c 0
 445 43 364 -6 255 -10 c 1
 253 -33 l 1
 291 -35 324 -49 324 -89 c 0
 324 -149 269 -161 234 -161 c 0
 209 -161 181 -158 160 -154 c 1
 160 -111 l 1
 228 -111 l 2
 248 -111 260 -106 260 -89 c 0
 260 -75 253 -68 230 -68 c 2
 201 -68 l 1xd680
 211 -9 l 1
 113 -1 39 47 39 169 c 0
 39 176 40 185 40 187 c 2
 110 187 l 1
 109 167 l 2xfb
 109 87 165 53 236 53 c 0
 321 53 373 88 373 163 c 0
 373 319 52 240 52 456 c 0xf680
 52 567 135 617 241 617 c 0xdb
EndSplineSet
Substitution2: "'locl' Localized Forms in Latin lookup 5 subtable" Scommaaccent
Substitution2: "'locl' Localized Forms in Latin lookup 4 subtable" Scommaaccent
Substitution2: "'aalt' Access All Alternates lookup 0 subtable" Scommaaccent
Position2: "'cpsp' Capital Spacing lookup 0 subtable" dx=5 dy=0 dh=10 dv=0
EndChar

StartChar: Scircumflex
Encoding: 348 348 95
Width: 484
GlyphClass: 2
Flags: MW
HStem: -11 64<200.5 278.5 200.5 299> 552 65<210.5 276> 660 120<135 274 135 274 211 281 211 349>
VStem: 39 70<127 167 127 172.5> 52 72<387 495 387 511.5> 359 70<438 448 438 453 438 485.5> 373 72<125.5 241>
LayerCount: 2
Fore
SplineSet
242 732 m 1xf4
 202 660 l 1
 135 660 l 1
 211 780 l 1
 274 780 l 1
 349 660 l 1
 281 660 l 1
 242 732 l 1xf4
241 617 m 0
 346 617 429 569 429 448 c 2
 429 438 l 1
 359 438 l 1
 359 453 l 2xf4
 359 518 308 552 244 552 c 0
 177 552 124 527 124 463 c 0xea
 124 311 445 383 445 173 c 0
 445 38 357 -11 241 -11 c 0
 131 -11 39 34 39 169 c 0
 39 176 40 185 40 187 c 2
 110 187 l 1
 109 167 l 2xf2
 109 87 165 53 236 53 c 0
 321 53 373 88 373 163 c 0
 373 319 52 240 52 456 c 0xea
 52 567 135 617 241 617 c 0
EndSplineSet
Position2: "'cpsp' Capital Spacing lookup 0 subtable" dx=5 dy=0 dh=10 dv=0
EndChar

StartChar: Scommaaccent
Encoding: 536 536 96
Width: 484
GlyphClass: 2
Flags: MW
HStem: -126 72<209 235 209 274> -11 64<200.5 278.5 200.5 299> 552 65<210.5 276>
VStem: 39 70<127 167 127 172.5> 52 72<387 495 387 511.5> 209 65<-121 -54 -121 -54 -121 -54> 359 70<438 448 438 453 438 485.5> 373 72<125.5 241>
AnchorPoint: "Anchor-1" 242 0 basechar 0
AnchorPoint: "Anchor-0" 242 606 basechar 0
LayerCount: 2
Fore
SplineSet
241 617 m 0xf6
 346 617 429 569 429 448 c 2
 429 438 l 1
 359 438 l 1
 359 453 l 2xf6
 359 518 308 552 244 552 c 0
 177 552 124 527 124 463 c 0xed
 124 311 445 383 445 173 c 0
 445 38 357 -11 241 -11 c 0
 131 -11 39 34 39 169 c 0
 39 176 40 185 40 187 c 2
 110 187 l 1
 109 167 l 2xf5
 109 87 165 53 236 53 c 0
 321 53 373 88 373 163 c 0
 373 319 52 240 52 456 c 0xed
 52 567 135 617 241 617 c 0xf6
217 -185 m 1
 235 -126 l 1
 209 -126 l 1
 209 -54 l 1
 274 -54 l 1
 274 -121 l 1
 252 -185 l 1
 217 -185 l 1
EndSplineSet
Position2: "'cpsp' Capital Spacing lookup 0 subtable" dx=5 dy=0 dh=10 dv=0
EndChar

StartChar: T
Encoding: 84 84 97
Width: 443
GlyphClass: 2
Flags: MW
HStem: 545 61<18 187 18 424 255 424 255 255>
VStem: 187 68<0 545 0 545>
AnchorPoint: "Anchor-1" 222 0 basechar 0
AnchorPoint: "Anchor-0" 222 606 basechar 0
LayerCount: 2
Fore
SplineSet
255 545 m 1
 255 0 l 1
 187 0 l 1
 187 545 l 1
 18 545 l 1
 18 606 l 1
 424 606 l 1
 424 545 l 1
 255 545 l 1
EndSplineSet
Position2: "'cpsp' Capital Spacing lookup 0 subtable" dx=5 dy=0 dh=10 dv=0
EndChar

StartChar: Tbar
Encoding: 358 358 98
Width: 443
GlyphClass: 2
Flags: MW
HStem: 287 60<69 187 69 187 255 376> 545 61<18 187 18 424 255 424 255 255>
VStem: 187 68<0 287 0 287 347 545>
LayerCount: 2
Fore
SplineSet
255 545 m 1
 255 347 l 1
 376 347 l 1
 376 287 l 1
 255 287 l 1
 255 0 l 1
 187 0 l 1
 187 287 l 1
 69 287 l 1
 69 347 l 1
 187 347 l 1
 187 545 l 1
 18 545 l 1
 18 606 l 1
 424 606 l 1
 424 545 l 1
 255 545 l 1
EndSplineSet
Position2: "'cpsp' Capital Spacing lookup 0 subtable" dx=5 dy=0 dh=10 dv=0
EndChar

StartChar: Tcaron
Encoding: 356 356 99
Width: 443
GlyphClass: 2
Flags: MW
HStem: 545 61<18 187 18 424 255 424 255 255> 661 120<113 189 113 252>
VStem: 187 68<0 545 0 545>
LayerCount: 2
Fore
SplineSet
189 661 m 1
 113 781 l 1
 182 781 l 1
 221 708 l 1
 261 781 l 1
 328 781 l 1
 252 661 l 1
 189 661 l 1
255 545 m 1
 255 0 l 1
 187 0 l 1
 187 545 l 1
 18 545 l 1
 18 606 l 1
 424 606 l 1
 424 545 l 1
 255 545 l 1
EndSplineSet
Position2: "'cpsp' Capital Spacing lookup 0 subtable" dx=5 dy=0 dh=10 dv=0
EndChar

StartChar: Tcedilla
Encoding: 354 354 100
Width: 443
GlyphClass: 2
Flags: MW
HStem: -161 50<201.5 208 208 217.5 140 231.5> -68 35<181 232> 545 61<18 187 18 424 255 255 255 424>
VStem: 187 68<0 545 0 545> 240 65<-97.5 -82>
AnchorPoint: "Anchor-1" 222 0 basechar 0
AnchorPoint: "Anchor-0" 222 606 basechar 0
LayerCount: 2
Fore
SplineSet
238 0 m 1xf0
 232 -33 l 1
 270 -35 305 -49 305 -89 c 0
 305 -149 249 -161 214 -161 c 0
 189 -161 161 -158 140 -154 c 1
 140 -111 l 1
 208 -111 l 2
 227 -111 240 -106 240 -89 c 0
 240 -75 233 -68 210 -68 c 2
 181 -68 l 1xe8
 192 0 l 1
 187 0 l 1
 187 545 l 1
 18 545 l 1
 18 606 l 1
 424 606 l 1
 424 545 l 1
 255 545 l 1
 255 0 l 1
 238 0 l 1xf0
EndSplineSet
Substitution2: "'locl' Localized Forms in Latin lookup 5 subtable" uni021A
Substitution2: "'locl' Localized Forms in Latin lookup 4 subtable" uni021A
Substitution2: "'aalt' Access All Alternates lookup 0 subtable" uni021A
Position2: "'cpsp' Capital Spacing lookup 0 subtable" dx=5 dy=0 dh=10 dv=0
EndChar

StartChar: uni021A
Encoding: 538 538 101
Width: 443
GlyphClass: 2
Flags: MW
HStem: -126 72<189 215 189 254> 545 61<18 187 18 424 255 424 255 255>
VStem: 187 68<0 545 0 545>
LayerCount: 2
Fore
SplineSet
255 545 m 1
 255 0 l 1
 187 0 l 1
 187 545 l 1
 18 545 l 1
 18 606 l 1
 424 606 l 1
 424 545 l 1
 255 545 l 1
232 -185 m 1
 198 -185 l 1
 215 -126 l 1
 189 -126 l 1
 189 -54 l 1
 254 -54 l 1
 254 -121 l 1
 232 -185 l 1
EndSplineSet
Position2: "'cpsp' Capital Spacing lookup 0 subtable" dx=5 dy=0 dh=10 dv=0
EndChar

StartChar: U
Encoding: 85 85 102
Width: 523
GlyphClass: 2
Flags: MW
HStem: -11 64<221.5 302.5 221.5 323> 586 20G<64 132 132 132 392 458 458 458>
VStem: 64 68<199 606> 392 66<193 199 199 606>
AnchorPoint: "Anchor-1" 0 0 basechar 0
AnchorPoint: "Anchor-0" 262 606 basechar 0
LayerCount: 2
Fore
SplineSet
458 606 m 1
 458 199 l 2
 458 62 384 -11 262 -11 c 0
 138 -11 64 62 64 199 c 2
 64 606 l 1
 132 606 l 1
 132 193 l 2
 132 102 181 53 262 53 c 0
 343 53 392 102 392 193 c 2
 392 606 l 1
 458 606 l 1
EndSplineSet
Position2: "'cpsp' Capital Spacing lookup 0 subtable" dx=5 dy=0 dh=10 dv=0
EndChar

StartChar: Uacute
Encoding: 218 218 103
Width: 523
GlyphClass: 2
Flags: MW
HStem: -11 64<221.5 302.5 221.5 323> 586 20G<64 132 132 132 392 458 458 458> 664 117<211 358 211 358>
VStem: 64 68<199 606> 392 66<193 199 199 606>
LayerCount: 2
Fore
SplineSet
266 664 m 1
 211 664 l 1
 287 781 l 1
 358 781 l 1
 359 778 l 1
 266 664 l 1
458 606 m 1
 458 199 l 2
 458 62 384 -11 262 -11 c 0
 138 -11 64 62 64 199 c 2
 64 606 l 1
 132 606 l 1
 132 193 l 2
 132 102 181 53 262 53 c 0
 343 53 392 102 392 193 c 2
 392 606 l 1
 458 606 l 1
EndSplineSet
Position2: "'cpsp' Capital Spacing lookup 0 subtable" dx=5 dy=0 dh=10 dv=0
EndChar

StartChar: Ubreve
Encoding: 364 364 104
Width: 523
GlyphClass: 2
Flags: MW
HStem: -11 64<221.5 302.5 221.5 323> 586 20G<64 132 132 132 392 458 458 458> 698 53<247 277 247 295.5>
VStem: 64 68<199 606> 392 66<193 199 199 606>
LayerCount: 2
Fore
SplineSet
315 781 m 1
 368 781 l 1
 368 742 329 698 262 698 c 0
 196 698 154 742 154 781 c 1
 210 781 l 1
 212 768 232 751 262 751 c 0
 292 751 313 768 315 781 c 1
458 606 m 1
 458 199 l 2
 458 62 384 -11 262 -11 c 0
 138 -11 64 62 64 199 c 2
 64 606 l 1
 132 606 l 1
 132 193 l 2
 132 102 181 53 262 53 c 0
 343 53 392 102 392 193 c 2
 392 606 l 1
 458 606 l 1
EndSplineSet
Position2: "'cpsp' Capital Spacing lookup 0 subtable" dx=5 dy=0 dh=10 dv=0
EndChar

StartChar: Ucircumflex
Encoding: 219 219 105
Width: 523
GlyphClass: 2
Flags: MW
HStem: -11 64<221.5 302.5 221.5 323> 586 20G<64 132 132 132 392 458 458 458> 660 120<153 293 153 293 229 369 229 301>
VStem: 64 68<199 606> 392 66<193 199 199 606>
LayerCount: 2
Fore
SplineSet
301 660 m 1
 263 732 l 1
 222 660 l 1
 153 660 l 1
 229 780 l 1
 293 780 l 1
 369 660 l 1
 301 660 l 1
458 606 m 1
 458 199 l 2
 458 62 384 -11 262 -11 c 0
 138 -11 64 62 64 199 c 2
 64 606 l 1
 132 606 l 1
 132 193 l 2
 132 102 181 53 262 53 c 0
 343 53 392 102 392 193 c 2
 392 606 l 1
 458 606 l 1
EndSplineSet
Position2: "'cpsp' Capital Spacing lookup 0 subtable" dx=5 dy=0 dh=10 dv=0
EndChar

StartChar: Udieresis
Encoding: 220 220 106
Width: 523
GlyphClass: 2
Flags: MW
HStem: -11 64<221.5 302.5 221.5 323> 586 20G<64 132 132 132 392 458 458 458> 701 80<160 234 160 234 288 362 160 288>
VStem: 64 68<199 606> 160 74<701 781 701 781> 288 74<701 781 701 781> 392 66<193 199 199 606>
LayerCount: 2
Fore
SplineSet
160 701 m 1
 160 781 l 1
 234 781 l 1
 234 701 l 1
 160 701 l 1
288 701 m 1
 288 781 l 1
 362 781 l 1
 362 701 l 1
 288 701 l 1
458 606 m 1xf2
 458 199 l 2
 458 62 384 -11 262 -11 c 0
 138 -11 64 62 64 199 c 2
 64 606 l 1
 132 606 l 1
 132 193 l 2
 132 102 181 53 262 53 c 0
 343 53 392 102 392 193 c 2
 392 606 l 1
 458 606 l 1xf2
EndSplineSet
Position2: "'cpsp' Capital Spacing lookup 0 subtable" dx=5 dy=0 dh=10 dv=0
EndChar

StartChar: Ugrave
Encoding: 217 217 107
Width: 523
GlyphClass: 2
Flags: MW
HStem: -11 64<221.5 302.5 221.5 323> 586 20G<64 132 132 132 392 458 458 458> 664 117<163 260 163 311>
VStem: 64 68<199 606> 392 66<193 199 199 606>
LayerCount: 2
Fore
SplineSet
260 664 m 1
 162 778 l 1
 163 781 l 1
 237 781 l 1
 311 664 l 1
 260 664 l 1
458 606 m 1
 458 199 l 2
 458 62 384 -11 262 -11 c 0
 138 -11 64 62 64 199 c 2
 64 606 l 1
 132 606 l 1
 132 193 l 2
 132 102 181 53 262 53 c 0
 343 53 392 102 392 193 c 2
 392 606 l 1
 458 606 l 1
EndSplineSet
Position2: "'cpsp' Capital Spacing lookup 0 subtable" dx=5 dy=0 dh=10 dv=0
EndChar

StartChar: Uhungarumlaut
Encoding: 368 368 108
Width: 523
GlyphClass: 2
Flags: MW
HStem: -11 64<221.5 302.5 221.5 323> 586 20G<64 132 132 132 392 458 458 458> 664 117<236 240 181 313 295 295 295 313 349 352>
VStem: 64 68<199 606> 392 66<193 199 199 606>
LayerCount: 2
Fore
SplineSet
240 664 m 1
 181 664 l 1
 236 781 l 1
 313 781 l 1
 314 778 l 1
 240 664 l 1
352 664 m 1
 295 664 l 1
 349 781 l 1
 425 781 l 1
 426 778 l 1
 352 664 l 1
458 606 m 1
 458 199 l 2
 458 62 384 -11 262 -11 c 0
 138 -11 64 62 64 199 c 2
 64 606 l 1
 132 606 l 1
 132 193 l 2
 132 102 181 53 262 53 c 0
 343 53 392 102 392 193 c 2
 392 606 l 1
 458 606 l 1
EndSplineSet
Position2: "'cpsp' Capital Spacing lookup 0 subtable" dx=5 dy=0 dh=10 dv=0
EndChar

StartChar: Umacron
Encoding: 362 362 109
Width: 523
GlyphClass: 2
Flags: MW
HStem: -11 64<221.5 302.5 221.5 323> 586 20G<64 132 132 132 392 458 458 458> 671 60<152 371 152 371>
VStem: 64 68<199 606> 152 219<671 731 671 731> 392 66<193 199 199 606>
LayerCount: 2
Fore
SplineSet
152 671 m 1
 152 731 l 1
 371 731 l 1
 371 671 l 1
 152 671 l 1
458 606 m 1xf4
 458 199 l 2
 458 62 384 -11 262 -11 c 0
 138 -11 64 62 64 199 c 2
 64 606 l 1
 132 606 l 1
 132 193 l 2
 132 102 181 53 262 53 c 0
 343 53 392 102 392 193 c 2
 392 606 l 1
 458 606 l 1xf4
EndSplineSet
Position2: "'cpsp' Capital Spacing lookup 0 subtable" dx=5 dy=0 dh=10 dv=0
EndChar

StartChar: Uogonek
Encoding: 370 370 110
Width: 523
GlyphClass: 2
Flags: MW
HStem: -160 57<325 396> -11 64<221.5 267> 586 20G<64 132 132 132 392 458 458 458>
VStem: 64 68<197 606> 262 64<-67 -65> 392 66<191 197 197 606>
LayerCount: 2
Fore
SplineSet
458 606 m 1
 458 197 l 2
 458 97 418 33 349 4 c 1
 338 -8 326 -30 326 -54 c 0
 326 -80 337 -103 367 -103 c 2
 396 -103 l 1
 396 -148 l 1
 379 -155 361 -160 344 -160 c 0
 306 -160 262 -141 262 -80 c 0
 262 -50 271 -28 285 -9 c 1
 279 -11 272 -11 262 -11 c 0
 138 -11 64 61 64 197 c 2
 64 606 l 1
 132 606 l 1
 132 191 l 2
 132 101 181 53 262 53 c 0
 343 53 392 101 392 191 c 2
 392 606 l 1
 458 606 l 1
EndSplineSet
Position2: "'cpsp' Capital Spacing lookup 0 subtable" dx=5 dy=0 dh=10 dv=0
EndChar

StartChar: Uring
Encoding: 366 366 111
Width: 523
GlyphClass: 2
Flags: MW
HStem: -11 64<221.5 302.5 221.5 323> 586 20G<64 132 132 132 392 458 458 458> 640 38<249 274.5 249 285.5> 771 39<249 274.5>
VStem: 64 68<199 606> 177 39<712 737.5 712 748.5> 308 39<712 737.5> 392 66<193 199 199 606>
LayerCount: 2
Fore
SplineSet
262 810 m 0
 309 810 347 771 347 725 c 0
 347 678 309 640 262 640 c 0
 216 640 177 677 177 725 c 0
 177 772 215 810 262 810 c 0
262 771 m 0
 236 771 216 750 216 725 c 0
 216 699 236 678 262 678 c 0
 287 678 308 699 308 725 c 0
 308 750 287 771 262 771 c 0
458 606 m 1
 458 199 l 2
 458 62 384 -11 262 -11 c 0
 138 -11 64 62 64 199 c 2
 64 606 l 1
 132 606 l 1
 132 193 l 2
 132 102 181 53 262 53 c 0
 343 53 392 102 392 193 c 2
 392 606 l 1
 458 606 l 1
EndSplineSet
Position2: "'cpsp' Capital Spacing lookup 0 subtable" dx=5 dy=0 dh=10 dv=0
EndChar

StartChar: Utilde
Encoding: 360 360 112
Width: 523
GlyphClass: 2
Flags: MW
HStem: -11 64<221.5 302.5 221.5 323> 586 20G<64 132 132 132 392 458 458 458> 694 62<295 314.5 290.5 339> 719 62<208.5 228.5 185 232.5>
VStem: 64 68<199 606> 392 66<193 199 199 606>
LayerCount: 2
Fore
SplineSet
335 781 m 1xdc
 385 781 l 1xdc
 385 742 364 694 314 694 c 0xec
 276 694 249 719 216 719 c 0xdc
 201 719 191 713 188 694 c 1
 139 694 l 1xec
 139 731 160 781 210 781 c 0xdc
 247 781 274 756 307 756 c 0xec
 322 756 334 761 335 781 c 1xdc
458 606 m 1
 458 199 l 2
 458 62 384 -11 262 -11 c 0
 138 -11 64 62 64 199 c 2
 64 606 l 1
 132 606 l 1
 132 193 l 2
 132 102 181 53 262 53 c 0
 343 53 392 102 392 193 c 2
 392 606 l 1
 458 606 l 1
EndSplineSet
Position2: "'cpsp' Capital Spacing lookup 0 subtable" dx=5 dy=0 dh=10 dv=0
EndChar

StartChar: V
Encoding: 86 86 113
Width: 484
GlyphClass: 2
Flags: MW
HStem: 0 61<243 247 243 290 194 247> 586 20G<9 86 86 86 409 474 474 474>
VStem: 9 465<606 606>
LayerCount: 2
Fore
SplineSet
9 606 m 1
 86 606 l 1
 243 61 l 1
 247 61 l 1
 409 606 l 1
 474 606 l 1
 290 0 l 1
 194 0 l 1
 9 606 l 1
EndSplineSet
Position2: "'cpsp' Capital Spacing lookup 0 subtable" dx=5 dy=0 dh=10 dv=0
EndChar

StartChar: W
Encoding: 87 87 114
Width: 684
GlyphClass: 2
Flags: MW
HStem: 0 60<204 208 204 251 154 208 488 491> 551 55<339 343 339 339>
VStem: 12 661<606 606>
AnchorPoint: "Anchor-1" 0 0 basechar 0
AnchorPoint: "Anchor-0" 342 606 basechar 0
LayerCount: 2
Fore
SplineSet
433 0 m 1
 361 418 l 2
 354 462 343 551 343 551 c 1
 339 551 l 1
 339 551 329 464 322 418 c 2
 251 0 l 1
 154 0 l 1
 12 606 l 1
 85 606 l 1
 184 173 l 2
 193 136 204 60 204 60 c 1
 208 60 l 1
 208 60 214 112 224 173 c 2
 293 606 l 1
 395 606 l 1
 471 173 l 2
 480 123 488 60 488 60 c 1
 491 60 l 1
 491 60 502 132 512 173 c 2
 611 606 l 1
 673 606 l 1
 530 0 l 1
 433 0 l 1
EndSplineSet
Position2: "'cpsp' Capital Spacing lookup 0 subtable" dx=5 dy=0 dh=10 dv=0
EndChar

StartChar: Wacute
Encoding: 7810 7810 115
Width: 684
GlyphClass: 2
Flags: MW
HStem: 0 60<204 208 204 251 154 208 488 491> 551 55<339 343 339 339> 664 117<293 440 293 440>
VStem: 12 661<606 606>
LayerCount: 2
Fore
SplineSet
346 664 m 1
 293 664 l 1
 369 781 l 1
 440 781 l 1
 441 778 l 1
 346 664 l 1
433 0 m 1
 361 418 l 2
 354 462 343 551 343 551 c 1
 339 551 l 1
 339 551 329 464 322 418 c 2
 251 0 l 1
 154 0 l 1
 12 606 l 1
 85 606 l 1
 184 173 l 2
 193 136 204 60 204 60 c 1
 208 60 l 1
 208 60 214 112 224 173 c 2
 293 606 l 1
 395 606 l 1
 471 173 l 2
 480 123 488 60 488 60 c 1
 491 60 l 1
 491 60 502 132 512 173 c 2
 611 606 l 1
 673 606 l 1
 530 0 l 1
 433 0 l 1
EndSplineSet
Position2: "'cpsp' Capital Spacing lookup 0 subtable" dx=5 dy=0 dh=10 dv=0
EndChar

StartChar: Wcircumflex
Encoding: 372 372 116
Width: 684
GlyphClass: 2
Flags: MW
HStem: 0 60<204 208 204 251 154 208 488 491> 551 55<339 343 339 339> 660 120<234 374 234 374 312 382 312 451>
VStem: 12 661<606 606>
LayerCount: 2
Fore
SplineSet
343 732 m 1
 303 660 l 1
 234 660 l 1
 312 780 l 1
 374 780 l 1
 451 660 l 1
 382 660 l 1
 343 732 l 1
433 0 m 1
 361 418 l 2
 354 462 343 551 343 551 c 1
 339 551 l 1
 339 551 329 464 322 418 c 2
 251 0 l 1
 154 0 l 1
 12 606 l 1
 85 606 l 1
 184 173 l 2
 193 136 204 60 204 60 c 1
 208 60 l 1
 208 60 214 112 224 173 c 2
 293 606 l 1
 395 606 l 1
 471 173 l 2
 480 123 488 60 488 60 c 1
 491 60 l 1
 491 60 502 132 512 173 c 2
 611 606 l 1
 673 606 l 1
 530 0 l 1
 433 0 l 1
EndSplineSet
Position2: "'cpsp' Capital Spacing lookup 0 subtable" dx=5 dy=0 dh=10 dv=0
EndChar

StartChar: Wdieresis
Encoding: 7812 7812 117
Width: 684
GlyphClass: 2
Flags: MW
HStem: 0 60<204 208 204 251 154 208 488 491> 551 55<339 343 339 339> 701 80<243 315 243 315 368 442 243 368>
VStem: 243 72<701 781 701 781> 368 74<701 781 701 781>
LayerCount: 2
Fore
SplineSet
243 701 m 1
 243 781 l 1
 315 781 l 1
 315 701 l 1
 243 701 l 1
368 701 m 1
 368 781 l 1
 442 781 l 1
 442 701 l 1
 368 701 l 1
433 0 m 1
 361 418 l 2
 354 462 343 551 343 551 c 1
 339 551 l 1
 339 551 329 464 322 418 c 2
 251 0 l 1
 154 0 l 1
 12 606 l 1
 85 606 l 1
 184 173 l 2
 193 136 204 60 204 60 c 1
 208 60 l 1
 208 60 214 112 224 173 c 2
 293 606 l 1
 395 606 l 1
 471 173 l 2
 480 123 488 60 488 60 c 1
 491 60 l 1
 491 60 502 132 512 173 c 2
 611 606 l 1
 673 606 l 1
 530 0 l 1
 433 0 l 1
EndSplineSet
Position2: "'cpsp' Capital Spacing lookup 0 subtable" dx=5 dy=0 dh=10 dv=0
EndChar

StartChar: Wgrave
Encoding: 7808 7808 118
Width: 684
GlyphClass: 2
Flags: MW
HStem: 0 60<204 208 204 251 154 208 488 491> 551 55<339 343 339 339> 664 117<246 339 246 393>
VStem: 12 661<606 606>
LayerCount: 2
Fore
SplineSet
339 664 m 1
 245 778 l 1
 246 781 l 1
 317 781 l 1
 393 664 l 1
 339 664 l 1
433 0 m 1
 361 418 l 2
 354 462 343 551 343 551 c 1
 339 551 l 1
 339 551 329 464 322 418 c 2
 251 0 l 1
 154 0 l 1
 12 606 l 1
 85 606 l 1
 184 173 l 2
 193 136 204 60 204 60 c 1
 208 60 l 1
 208 60 214 112 224 173 c 2
 293 606 l 1
 395 606 l 1
 471 173 l 2
 480 123 488 60 488 60 c 1
 491 60 l 1
 491 60 502 132 512 173 c 2
 611 606 l 1
 673 606 l 1
 530 0 l 1
 433 0 l 1
EndSplineSet
Position2: "'cpsp' Capital Spacing lookup 0 subtable" dx=5 dy=0 dh=10 dv=0
EndChar

StartChar: X
Encoding: 88 88 119
Width: 484
GlyphClass: 2
Flags: MW
HStem: 586 20G<22 104 104 104 385 459 459 459>
VStem: 5 474<0 0>
LayerCount: 2
Fore
SplineSet
397 0 m 1
 239 251 l 1
 78 0 l 1
 5 0 l 1
 205 314 l 1
 22 606 l 1
 104 606 l 1
 244 385 l 1
 385 606 l 1
 459 606 l 1
 278 323 l 1
 479 0 l 1
 397 0 l 1
EndSplineSet
Position2: "'cpsp' Capital Spacing lookup 0 subtable" dx=5 dy=0 dh=10 dv=0
EndChar

StartChar: Y
Encoding: 89 89 120
Width: 484
GlyphClass: 2
Flags: MW
HStem: 586 20G<9 85 85 85 410 474 474 474>
VStem: 208 68<0 257 0 257>
AnchorPoint: "Anchor-1" 0 0 basechar 0
AnchorPoint: "Anchor-0" 242 606 basechar 0
LayerCount: 2
Fore
SplineSet
208 0 m 1
 208 257 l 1
 9 606 l 1
 85 606 l 1
 248 321 l 1
 251 321 l 1
 410 606 l 1
 474 606 l 1
 276 257 l 1
 276 0 l 1
 208 0 l 1
EndSplineSet
Position2: "'cpsp' Capital Spacing lookup 0 subtable" dx=5 dy=0 dh=10 dv=0
EndChar

StartChar: Yacute
Encoding: 221 221 121
Width: 484
GlyphClass: 2
Flags: MW
HStem: 586 20G<9 85 85 85 410 474 474 474> 664 117<191 340 191 340>
VStem: 208 68<0 257>
LayerCount: 2
Fore
SplineSet
244 664 m 1
 191 664 l 1
 267 781 l 1
 340 781 l 1
 341 778 l 1
 244 664 l 1
276 0 m 1
 208 0 l 1
 208 257 l 1
 9 606 l 1
 85 606 l 1
 248 321 l 1
 251 321 l 1
 410 606 l 1
 474 606 l 1
 276 257 l 1
 276 0 l 1
EndSplineSet
Position2: "'cpsp' Capital Spacing lookup 0 subtable" dx=5 dy=0 dh=10 dv=0
EndChar

StartChar: Ycircumflex
Encoding: 374 374 122
Width: 484
GlyphClass: 2
Flags: MW
HStem: 586 20G<9 85 85 85 410 474 474 474> 660 120<135 274 135 274 211 281 211 349>
VStem: 208 68<0 257 0 257>
LayerCount: 2
Fore
SplineSet
242 732 m 1
 202 660 l 1
 135 660 l 1
 211 780 l 1
 274 780 l 1
 349 660 l 1
 281 660 l 1
 242 732 l 1
208 0 m 1
 208 257 l 1
 9 606 l 1
 85 606 l 1
 248 321 l 1
 251 321 l 1
 410 606 l 1
 474 606 l 1
 276 257 l 1
 276 0 l 1
 208 0 l 1
EndSplineSet
Position2: "'cpsp' Capital Spacing lookup 0 subtable" dx=5 dy=0 dh=10 dv=0
EndChar

StartChar: Ydieresis
Encoding: 376 376 123
Width: 484
GlyphClass: 2
Flags: MW
HStem: 586 20G<9 85 85 85 410 474 474 474> 701 80<142 215 142 215 269 342 142 269>
VStem: 142 73<701 781 701 781> 208 68<0 257> 269 73<701 781 701 781>
LayerCount: 2
Fore
SplineSet
142 701 m 1xe8
 142 781 l 1
 215 781 l 1
 215 701 l 1
 142 701 l 1xe8
269 701 m 1
 269 781 l 1
 342 781 l 1
 342 701 l 1
 269 701 l 1
276 0 m 1xd0
 208 0 l 1
 208 257 l 1
 9 606 l 1
 85 606 l 1
 248 321 l 1
 251 321 l 1
 410 606 l 1
 474 606 l 1
 276 257 l 1
 276 0 l 1xd0
EndSplineSet
Position2: "'cpsp' Capital Spacing lookup 0 subtable" dx=5 dy=0 dh=10 dv=0
EndChar

StartChar: Ygrave
Encoding: 7922 7922 124
Width: 484
GlyphClass: 2
Flags: MW
HStem: 586 20G<9 85 85 85 410 474 474 474> 664 117<145 238 145 292>
VStem: 208 68<0 257>
LayerCount: 2
Fore
SplineSet
238 664 m 1
 144 778 l 1
 145 781 l 1
 216 781 l 1
 292 664 l 1
 238 664 l 1
276 0 m 1
 208 0 l 1
 208 257 l 1
 9 606 l 1
 85 606 l 1
 248 321 l 1
 251 321 l 1
 410 606 l 1
 474 606 l 1
 276 257 l 1
 276 0 l 1
EndSplineSet
Position2: "'cpsp' Capital Spacing lookup 0 subtable" dx=5 dy=0 dh=10 dv=0
EndChar

StartChar: Z
Encoding: 90 90 125
Width: 443
GlyphClass: 2
Flags: MW
HStem: 0 62<116 423 116 423> 545 61<37 319 37 417>
VStem: 19 404<0 31 31 31>
AnchorPoint: "Anchor-1" 0 0 basechar 0
AnchorPoint: "Anchor-0" 222 606 basechar 0
LayerCount: 2
Fore
SplineSet
116 62 m 1
 423 62 l 1
 423 0 l 1
 19 0 l 1
 19 31 l 1
 319 545 l 1
 37 545 l 1
 37 606 l 1
 417 606 l 1
 417 576 l 1
 116 62 l 1
EndSplineSet
Position2: "'cpsp' Capital Spacing lookup 0 subtable" dx=5 dy=0 dh=10 dv=0
EndChar

StartChar: Zacute
Encoding: 377 377 126
Width: 443
GlyphClass: 2
Flags: MW
HStem: 0 62<116 423 116 423> 545 61<37 319 37 417> 664 117<171 318 171 318>
VStem: 19 404<0 31 31 31>
LayerCount: 2
Fore
SplineSet
225 664 m 1
 171 664 l 1
 247 781 l 1
 318 781 l 1
 319 778 l 1
 225 664 l 1
116 62 m 1
 423 62 l 1
 423 0 l 1
 19 0 l 1
 19 31 l 1
 319 545 l 1
 37 545 l 1
 37 606 l 1
 417 606 l 1
 417 576 l 1
 116 62 l 1
EndSplineSet
Position2: "'cpsp' Capital Spacing lookup 0 subtable" dx=5 dy=0 dh=10 dv=0
EndChar

StartChar: Zcaron
Encoding: 381 381 127
Width: 443
GlyphClass: 2
Flags: MW
HStem: 0 62<116 423 116 423> 545 61<37 319 37 417> 661 120<113 189 113 252>
VStem: 19 404<0 31 31 31>
LayerCount: 2
Fore
SplineSet
189 661 m 1
 113 781 l 1
 182 781 l 1
 221 708 l 1
 261 781 l 1
 328 781 l 1
 252 661 l 1
 189 661 l 1
116 62 m 1
 423 62 l 1
 423 0 l 1
 19 0 l 1
 19 31 l 1
 319 545 l 1
 37 545 l 1
 37 606 l 1
 417 606 l 1
 417 576 l 1
 116 62 l 1
EndSplineSet
Position2: "'cpsp' Capital Spacing lookup 0 subtable" dx=5 dy=0 dh=10 dv=0
EndChar

StartChar: Zdotaccent
Encoding: 379 379 128
Width: 443
GlyphClass: 2
Flags: MW
HStem: 0 62<116 423 116 423> 545 61<37 319 37 417> 702 79<186 257 186 257>
VStem: 186 71<702 781 702 781>
LayerCount: 2
Fore
SplineSet
186 702 m 1
 186 781 l 1
 257 781 l 1
 257 702 l 1
 186 702 l 1
116 62 m 1
 423 62 l 1
 423 0 l 1
 19 0 l 1
 19 31 l 1
 319 545 l 1
 37 545 l 1
 37 606 l 1
 417 606 l 1
 417 576 l 1
 116 62 l 1
EndSplineSet
Position2: "'cpsp' Capital Spacing lookup 0 subtable" dx=5 dy=0 dh=10 dv=0
EndChar

StartChar: a
Encoding: 97 97 129
Width: 403
GlyphClass: 2
Flags: MW
HStem: -11 58<146.5 181.5> 212 62<219.5 271> 417 59<162 223.5>
VStem: 35 67<94 161.5 94 184.5> 52 62<327 390> 271 63<166 212 212 212 274 337 337 348>
AnchorPoint: "Anchor-1" 0 0 basechar 0
AnchorPoint: "Anchor-0" 202 465 basechar 0
LayerCount: 2
Fore
SplineSet
198 476 m 0xec
 288 476 334 429 334 348 c 2
 334 78 l 2
 334 56 346 47 358 47 c 2
 390 47 l 1
 390 4 l 1
 382 0 366 -6 346 -6 c 0
 309 -6 283 17 276 50 c 1
 270 50 l 1
 247 12 204 -11 159 -11 c 0
 112 -11 35 7 35 120 c 0xf4
 35 249 136 274 271 274 c 1
 271 337 l 2
 271 385 256 417 191 417 c 0
 133 417 114 376 114 337 c 2
 114 327 l 1
 53 327 l 1
 52 332 52 339 52 347 c 0
 52 433 114 476 198 476 c 0xec
271 166 m 2
 271 212 l 1
 168 212 102 199 102 124 c 0xf4
 102 64 125 47 168 47 c 0
 212 47 271 82 271 166 c 2
EndSplineSet
Substitution2: "Single Substitution lookup 21 subtable" ordfeminine
Substitution2: "'aalt' Access All Alternates lookup 0 subtable" ordfeminine
EndChar

StartChar: aacute
Encoding: 225 225 130
Width: 403
GlyphClass: 2
Flags: MW
HStem: -11 58<146.5 181.5> 212 62<219.5 271> 417 59<162 223.5> 522 117<149 297 149 297>
VStem: 35 67<94 161.5 94 184.5> 52 62<327 390> 271 63<166 212 212 212 274 337 337 348>
LayerCount: 2
Fore
SplineSet
202 522 m 1xf6
 149 522 l 1
 225 639 l 1
 297 639 l 1
 297 636 l 1
 202 522 l 1xf6
198 476 m 0
 288 476 334 429 334 348 c 2
 334 78 l 2
 334 56 346 47 358 47 c 2
 390 47 l 1
 390 4 l 1
 382 0 366 -6 346 -6 c 0
 309 -6 283 17 276 50 c 1
 270 50 l 1
 247 12 204 -11 159 -11 c 0
 112 -11 35 7 35 120 c 0xfa
 35 249 136 274 271 274 c 1
 271 337 l 2
 271 385 256 417 191 417 c 0
 133 417 114 376 114 337 c 2
 114 327 l 1
 53 327 l 1
 52 332 52 339 52 347 c 0
 52 433 114 476 198 476 c 0
271 166 m 2
 271 212 l 1
 168 212 102 199 102 124 c 0xfa
 102 64 125 47 168 47 c 0
 212 47 271 82 271 166 c 2
EndSplineSet
EndChar

StartChar: abreve
Encoding: 259 259 131
Width: 403
GlyphClass: 2
Flags: MW
HStem: -11 58<146.5 181.5> 212 62<219.5 271> 417 59<162 223.5> 555 55<189 220 189 238.5> 555 84<98 238.5>
VStem: 35 67<94 161.5 94 184.5> 52 62<327 390> 271 63<166 212 212 212 274 337 337 348>
LayerCount: 2
Fore
SplineSet
258 639 m 1xeb
 311 639 l 1xeb
 311 600 272 555 205 555 c 0xf3
 139 555 98 600 98 639 c 1
 152 639 l 1xeb
 155 627 173 610 205 610 c 0xf3
 235 610 256 627 258 639 c 1xeb
198 476 m 0
 288 476 334 429 334 348 c 2
 334 78 l 2
 334 56 346 47 358 47 c 2
 390 47 l 1
 390 4 l 1
 382 0 366 -6 346 -6 c 0
 309 -6 283 17 276 50 c 1
 270 50 l 1
 247 12 204 -11 159 -11 c 0
 112 -11 35 7 35 120 c 0xf5
 35 249 136 274 271 274 c 1
 271 337 l 2
 271 385 256 417 191 417 c 0
 133 417 114 376 114 337 c 2
 114 327 l 1
 53 327 l 1
 52 332 52 339 52 347 c 0
 52 433 114 476 198 476 c 0
271 166 m 2
 271 212 l 1
 168 212 102 199 102 124 c 0
 102 64 125 47 168 47 c 0xf5
 212 47 271 82 271 166 c 2
EndSplineSet
EndChar

StartChar: acircumflex
Encoding: 226 226 132
Width: 403
GlyphClass: 2
Flags: MW
HStem: -11 58<146.5 181.5> 212 62<219.5 271> 417 59<162 223.5> 519 119<98 237 98 237 172 244 172 312> 591 47<205 205>
VStem: 35 67<94 161.5 94 184.5> 52 62<327 390> 271 63<166 212 212 212 274 337 337 348>
LayerCount: 2
Fore
SplineSet
205 591 m 1xeb
 166 519 l 1
 98 519 l 1
 172 638 l 1
 237 638 l 1
 312 519 l 1
 244 519 l 1xf3
 205 591 l 1xeb
198 476 m 0
 288 476 334 429 334 348 c 2
 334 78 l 2
 334 56 346 47 358 47 c 2
 390 47 l 1
 390 4 l 1
 382 0 366 -6 346 -6 c 0
 309 -6 283 17 276 50 c 1
 270 50 l 1
 247 12 204 -11 159 -11 c 0
 112 -11 35 7 35 120 c 0xf5
 35 249 136 274 271 274 c 1
 271 337 l 2
 271 385 256 417 191 417 c 0
 133 417 114 376 114 337 c 2
 114 327 l 1
 53 327 l 1
 52 332 52 339 52 347 c 0
 52 433 114 476 198 476 c 0
271 166 m 2
 271 212 l 1
 168 212 102 199 102 124 c 0
 102 64 125 47 168 47 c 0xf5
 212 47 271 82 271 166 c 2
EndSplineSet
EndChar

StartChar: adieresis
Encoding: 228 228 133
Width: 403
GlyphClass: 2
Flags: MW
HStem: -11 58<146.5 181.5> 212 62<219.5 271> 417 59<162 223.5> 559 80<103 177 103 177 230 305 103 230>
VStem: 35 67<94 161.5 94 184.5> 52 62<327 390> 103 74<559 639 559 639> 230 75<559 639 559 639> 271 63<166 212 212 212 274 337 337 348>
LayerCount: 2
Fore
SplineSet
103 559 m 1xf3
 103 639 l 1
 177 639 l 1
 177 559 l 1
 103 559 l 1xf3
230 559 m 1
 230 639 l 1
 305 639 l 1
 305 559 l 1
 230 559 l 1
198 476 m 0xf480
 288 476 334 429 334 348 c 2
 334 78 l 2
 334 56 346 47 358 47 c 2
 390 47 l 1
 390 4 l 1
 382 0 366 -6 346 -6 c 0
 309 -6 283 17 276 50 c 1
 270 50 l 1
 247 12 204 -11 159 -11 c 0
 112 -11 35 7 35 120 c 0xf880
 35 249 136 274 271 274 c 1
 271 337 l 2
 271 385 256 417 191 417 c 0
 133 417 114 376 114 337 c 2
 114 327 l 1
 53 327 l 1
 52 332 52 339 52 347 c 0
 52 433 114 476 198 476 c 0xf480
271 166 m 2
 271 212 l 1
 168 212 102 199 102 124 c 0
 102 64 125 47 168 47 c 0xf880
 212 47 271 82 271 166 c 2
EndSplineSet
EndChar

StartChar: agrave
Encoding: 224 224 134
Width: 403
GlyphClass: 2
Flags: MW
HStem: -11 58<146.5 181.5> 212 62<219.5 271> 417 59<162 223.5> 522 117<102 196 102 249>
VStem: 35 67<94 161.5 94 184.5> 52 62<327 390> 271 63<166 212 212 212 274 337 337 348>
LayerCount: 2
Fore
SplineSet
196 522 m 1xf6
 101 636 l 1
 102 639 l 1
 173 639 l 1
 249 522 l 1
 196 522 l 1xf6
198 476 m 0
 288 476 334 429 334 348 c 2
 334 78 l 2
 334 56 346 47 358 47 c 2
 390 47 l 1
 390 4 l 1
 382 0 366 -6 346 -6 c 0
 309 -6 283 17 276 50 c 1
 270 50 l 1
 247 12 204 -11 159 -11 c 0
 112 -11 35 7 35 120 c 0xfa
 35 249 136 274 271 274 c 1
 271 337 l 2
 271 385 256 417 191 417 c 0
 133 417 114 376 114 337 c 2
 114 327 l 1
 53 327 l 1
 52 332 52 339 52 347 c 0
 52 433 114 476 198 476 c 0
271 166 m 2
 271 212 l 1
 168 212 102 199 102 124 c 0xfa
 102 64 125 47 168 47 c 0
 212 47 271 82 271 166 c 2
EndSplineSet
EndChar

StartChar: amacron
Encoding: 257 257 135
Width: 403
GlyphClass: 2
Flags: MW
HStem: -11 58<146.5 181.5> 212 62<219.5 271> 417 59<162 223.5> 530 59<95 315 95 315>
VStem: 35 67<94 161.5 94 184.5> 52 62<327 390> 95 220<530 589 530 589> 271 63<166 212 212 212 274 337 337 348>
LayerCount: 2
Fore
SplineSet
95 589 m 1xf2
 315 589 l 1
 315 530 l 1
 95 530 l 1
 95 589 l 1xf2
198 476 m 0xf5
 288 476 334 429 334 348 c 2
 334 78 l 2
 334 56 346 47 358 47 c 2
 390 47 l 1
 390 4 l 1
 382 0 366 -6 346 -6 c 0
 309 -6 283 17 276 50 c 1
 270 50 l 1
 247 12 204 -11 159 -11 c 0
 112 -11 35 7 35 120 c 0xf9
 35 249 136 274 271 274 c 1
 271 337 l 2
 271 385 256 417 191 417 c 0
 133 417 114 376 114 337 c 2
 114 327 l 1
 53 327 l 1
 52 332 52 339 52 347 c 0
 52 433 114 476 198 476 c 0xf5
271 166 m 2
 271 212 l 1
 168 212 102 199 102 124 c 0
 102 64 125 47 168 47 c 0xf9
 212 47 271 82 271 166 c 2
EndSplineSet
EndChar

StartChar: aogonek
Encoding: 261 261 136
Width: 403
GlyphClass: 2
Flags: MW
HStem: -160 57<367 438> -11 58<146.5 181.5> 212 62<219.5 271> 417 59<162 223.5>
VStem: 35 67<94 161.5 94 184.5> 52 62<327 390> 271 63<166 212 212 212 274 337 337 348> 304 63<-67 -63>
LayerCount: 2
Fore
SplineSet
438 -103 m 1xf5
 438 -148 l 1
 420 -155 403 -160 386 -160 c 0
 348 -160 304 -141 304 -80 c 0xf5
 304 -46 315 -24 329 -4 c 1
 302 2 282 21 276 50 c 1
 270 50 l 1
 247 12 204 -11 159 -11 c 0
 112 -11 35 7 35 120 c 0xfa
 35 249 136 274 271 274 c 1
 271 337 l 2
 271 385 256 417 191 417 c 0
 133 417 114 376 114 337 c 2
 114 327 l 1
 53 327 l 1
 52 332 52 339 52 347 c 0
 52 433 114 476 198 476 c 0
 288 476 334 429 334 348 c 2
 334 78 l 2
 334 56 346 47 358 47 c 2
 390 47 l 1xf6
 390 4 l 1
 378 -10 367 -31 367 -54 c 0
 367 -80 377 -103 408 -103 c 2
 438 -103 l 1xf5
271 166 m 2xfa
 271 212 l 1
 168 212 102 199 102 124 c 0
 102 64 125 47 168 47 c 0
 212 47 271 82 271 166 c 2xfa
EndSplineSet
EndChar

StartChar: aring
Encoding: 229 229 137
Width: 403
GlyphClass: 2
Flags: MW
HStem: -11 58<146.5 181.5> 212 62<219.5 271> 417 59<162 223.5> 497 39<192 216.5 192 228> 629 38<192 216.5>
VStem: 35 67<94 161.5 94 184.5> 52 62<327 390> 120 37<571 596 571 606.5> 251 38<571 596> 271 63<166 212 212 212 274 337 337 348>
LayerCount: 2
Fore
SplineSet
205 667 m 0xf980
 252 667 289 628 289 584 c 0
 289 535 251 497 205 497 c 0
 159 497 120 534 120 584 c 0
 120 629 158 667 205 667 c 0xf980
205 629 m 0
 179 629 157 608 157 584 c 0
 157 558 179 536 205 536 c 0
 228 536 251 558 251 584 c 0
 251 608 228 629 205 629 c 0
198 476 m 0xea40
 288 476 334 429 334 348 c 2
 334 78 l 2
 334 56 346 47 358 47 c 2
 390 47 l 1
 390 4 l 1
 382 0 366 -6 346 -6 c 0
 309 -6 283 17 276 50 c 1
 270 50 l 1
 247 12 204 -11 159 -11 c 0
 112 -11 35 7 35 120 c 0xec40
 35 249 136 274 271 274 c 1
 271 337 l 2
 271 385 256 417 191 417 c 0
 133 417 114 376 114 337 c 2
 114 327 l 1
 53 327 l 1
 52 332 52 339 52 347 c 0
 52 433 114 476 198 476 c 0xea40
271 166 m 2
 271 212 l 1
 168 212 102 199 102 124 c 0
 102 64 125 47 168 47 c 0xec40
 212 47 271 82 271 166 c 2
EndSplineSet
EndChar

StartChar: aringacute
Encoding: 507 507 138
Width: 392
GlyphClass: 2
Flags: MW
HStem: -11 58<146.5 181.5> 212 62<219.5 271> 417 59<162 223.5> 500 37<193 216.5 193 228.5> 621 38<193 216.5> 679 102<179 317 179 317>
VStem: 35 67<94 161.5 94 184.5> 52 62<327 390> 120 37<567 591.5 567 601.5> 251 38<567 591.5> 271 63<166 212 212 212 274 337 337 348>
LayerCount: 2
Fore
SplineSet
232 679 m 1xed20
 179 679 l 1
 246 781 l 1
 317 781 l 1
 318 778 l 1
 232 679 l 1xed20
205 659 m 0xf8c0
 253 659 289 623 289 579 c 0
 289 534 252 500 205 500 c 0
 159 500 120 533 120 579 c 0
 120 624 158 659 205 659 c 0xf8c0
205 621 m 0
 181 621 157 604 157 579 c 0
 157 555 181 537 205 537 c 0
 228 537 251 555 251 579 c 0
 251 604 228 621 205 621 c 0
198 476 m 0xe920
 288 476 334 429 334 348 c 2
 334 78 l 2
 334 56 346 47 358 47 c 2
 390 47 l 1
 390 4 l 1
 382 0 366 -6 346 -6 c 0
 309 -6 283 17 276 50 c 1
 270 50 l 1
 247 12 204 -11 159 -11 c 0
 112 -11 35 7 35 120 c 0xea20
 35 249 136 274 271 274 c 1
 271 337 l 2
 271 385 256 417 191 417 c 0
 133 417 114 376 114 337 c 2
 114 327 l 1
 53 327 l 1
 52 332 52 339 52 347 c 0
 52 433 114 476 198 476 c 0xe920
271 166 m 2
 271 212 l 1
 168 212 102 199 102 124 c 0
 102 64 125 47 168 47 c 0xea20
 212 47 271 82 271 166 c 2
EndSplineSet
EndChar

StartChar: atilde
Encoding: 227 227 139
Width: 403
GlyphClass: 2
Flags: MW
HStem: -11 58<146.5 181.5> 212 62<219.5 271> 417 59<162 223.5> 552 62<237.5 257 233 281.5> 578 61<151.5 171.5 128 175.5>
VStem: 35 67<94 161.5 94 184.5> 52 62<327 390> 271 63<166 212 212 212 274 337 337 348>
LayerCount: 2
Fore
SplineSet
278 639 m 1xeb
 328 639 l 1xeb
 328 600 307 552 256 552 c 0xf3
 219 552 192 578 159 578 c 0xeb
 144 578 132 572 130 552 c 1
 81 552 l 1
 81 590 103 639 153 639 c 0
 190 639 217 614 249 614 c 0xf3
 265 614 277 620 278 639 c 1xeb
198 476 m 0
 288 476 334 429 334 348 c 2
 334 78 l 2
 334 56 346 47 358 47 c 2
 390 47 l 1
 390 4 l 1
 382 0 366 -6 346 -6 c 0
 309 -6 283 17 276 50 c 1
 270 50 l 1
 247 12 204 -11 159 -11 c 0
 112 -11 35 7 35 120 c 0xed
 35 249 136 274 271 274 c 1
 271 337 l 2
 271 385 256 417 191 417 c 0
 133 417 114 376 114 337 c 2
 114 327 l 1
 53 327 l 1
 52 332 52 339 52 347 c 0
 52 433 114 476 198 476 c 0
271 166 m 2
 271 212 l 1
 168 212 102 199 102 124 c 0
 102 64 125 47 168 47 c 0xed
 212 47 271 82 271 166 c 2
EndSplineSet
EndChar

StartChar: ae
Encoding: 230 230 140
Width: 644
GlyphClass: 2
Flags: MW
HStem: -11 58<147 190.5 147 197.5> 212 62<220.5 273 339 529> 417 59<162.5 224 419 473.5>
VStem: 36 66<94 161.5 94 184.5> 52 64<327 390> 273 66<157 212 154.5 212 154.5 337> 529 65
AnchorPoint: "Anchor-1" 0 0 basechar 0
AnchorPoint: "Anchor-0" 323 465 basechar 0
LayerCount: 2
Fore
SplineSet
447 476 m 0xf6
 545 476 594 417 594 264 c 2
 594 212 l 1
 339 212 l 1
 339 97 375 48 449 48 c 0
 498 48 533 90 533 156 c 1
 594 156 l 1
 594 57 536 -11 446 -11 c 0
 381 -11 333 11 304 62 c 1
 272 18 223 -11 172 -11 c 0
 112 -11 36 7 36 120 c 0xf6
 36 249 137 274 273 274 c 1
 273 337 l 2
 273 385 256 417 192 417 c 0
 133 417 116 376 116 337 c 2
 116 327 l 1
 53 327 l 1
 52 332 52 339 52 347 c 0xee
 52 433 114 476 199 476 c 0
 257 476 299 456 319 421 c 1
 348 458 391 476 447 476 c 0xf6
447 417 m 0
 376 417 347 369 339 274 c 1
 529 274 l 1
 529 368 500 417 447 417 c 0
273 157 m 2
 273 212 l 1
 168 212 102 199 102 124 c 0
 102 64 126 47 168 47 c 0
 213 47 273 78 273 157 c 2
EndSplineSet
EndChar

StartChar: aeacute
Encoding: 509 509 141
Width: 644
GlyphClass: 2
Flags: MW
HStem: -11 58<147 190.5 147 197.5> 212 62<220.5 273 339 529> 417 59<162.5 224 419 473.5> 522 117<272 419 272 419>
VStem: 36 66<94 161.5 94 184.5> 52 64<327 390> 273 66<157 212 154.5 212 154.5 337> 529 65
LayerCount: 2
Fore
SplineSet
326 522 m 1xfb
 272 522 l 1
 348 639 l 1
 419 639 l 1
 420 636 l 1
 326 522 l 1xfb
447 476 m 0
 545 476 594 417 594 264 c 2
 594 212 l 1
 339 212 l 1
 339 97 375 48 449 48 c 0
 498 48 533 90 533 156 c 1
 594 156 l 1
 594 57 536 -11 446 -11 c 0
 381 -11 333 11 304 62 c 1
 272 18 223 -11 172 -11 c 0
 112 -11 36 7 36 120 c 0xfb
 36 249 137 274 273 274 c 1
 273 337 l 2
 273 385 256 417 192 417 c 0
 133 417 116 376 116 337 c 2
 116 327 l 1
 53 327 l 1
 52 332 52 339 52 347 c 0xf7
 52 433 114 476 199 476 c 0
 257 476 299 456 319 421 c 1
 348 458 391 476 447 476 c 0
447 417 m 0
 376 417 347 369 339 274 c 1
 529 274 l 1
 529 368 500 417 447 417 c 0
273 157 m 2
 273 212 l 1
 168 212 102 199 102 124 c 0
 102 64 126 47 168 47 c 0
 213 47 273 78 273 157 c 2
EndSplineSet
EndChar

StartChar: b
Encoding: 98 98 142
Width: 391
GlyphClass: 2
Flags: MW
HStem: -11 56<193 232 175.5 257.5> 420 56<197 232> 619 20G<54 117 117 117>
VStem: 54 63<159 216 216 245 422 639> 291 66<216 249 249 311.5>
LayerCount: 2
Fore
SplineSet
117 422 m 1
 121 422 l 1
 137 455 175 476 219 476 c 0
 295 476 357 402 357 233 c 0
 357 62 301 -11 214 -11 c 0
 172 -11 135 11 113 53 c 1
 109 53 l 1
 99 0 l 1
 54 0 l 1
 54 639 l 1
 117 639 l 1
 117 422 l 1
204 420 m 0
 147 420 117 362 117 245 c 2
 117 216 l 2
 117 102 147 45 204 45 c 0
 260 45 291 91 291 216 c 2
 291 249 l 2
 291 374 260 420 204 420 c 0
EndSplineSet
EndChar

StartChar: c
Encoding: 99 99 143
Width: 350
GlyphClass: 2
Flags: MW
HStem: -11 58<154.5 213 154.5 236.5> 418 58<155 214>
VStem: 31 66<160 216 216 249 160 316> 257 65<294 336>
AnchorPoint: "Anchor-1" 175 0 basechar 0
AnchorPoint: "Anchor-0" 175 465 basechar 0
LayerCount: 2
Fore
SplineSet
186 476 m 0
 287 476 322 408 322 294 c 1
 257 294 l 1
 257 378 242 418 186 418 c 0
 124 418 97 361 97 249 c 2
 97 216 l 2
 97 104 124 47 185 47 c 0
 241 47 261 90 261 171 c 1
 322 171 l 1
 322 84 288 -11 185 -11 c 0
 78 -11 31 65 31 232 c 0
 31 400 78 476 186 476 c 0
EndSplineSet
EndChar

StartChar: cacute
Encoding: 263 263 144
Width: 350
GlyphClass: 2
Flags: MW
HStem: -11 58<154.5 213 154.5 236.5> 418 58<155 214> 522 117<133 282 133 282>
VStem: 31 66<160 216 216 249 160 316> 257 65<294 336>
LayerCount: 2
Fore
SplineSet
188 522 m 1
 133 522 l 1
 209 639 l 1
 282 639 l 1
 282 636 l 1
 188 522 l 1
186 476 m 0
 287 476 322 408 322 294 c 1
 257 294 l 1
 257 378 242 418 186 418 c 0
 124 418 97 361 97 249 c 2
 97 216 l 2
 97 104 124 47 185 47 c 0
 241 47 261 90 261 171 c 1
 322 171 l 1
 322 84 288 -11 185 -11 c 0
 78 -11 31 65 31 232 c 0
 31 400 78 476 186 476 c 0
EndSplineSet
EndChar

StartChar: ccaron
Encoding: 269 269 145
Width: 350
GlyphClass: 2
Flags: MW
HStem: -11 58<154.5 213 154.5 236.5> 418 58<155 214> 520 119<66 205 66 141>
VStem: 31 66<160 216 216 249 160 316> 257 65<294 336>
LayerCount: 2
Fore
SplineSet
66 639 m 1
 133 639 l 1
 172 566 l 1
 213 639 l 1
 281 639 l 1
 205 520 l 1
 141 520 l 1
 66 639 l 1
186 476 m 0
 287 476 322 408 322 294 c 1
 257 294 l 1
 257 378 242 418 186 418 c 0
 124 418 97 361 97 249 c 2
 97 216 l 2
 97 104 124 47 185 47 c 0
 241 47 261 90 261 171 c 1
 322 171 l 1
 322 84 288 -11 185 -11 c 0
 78 -11 31 65 31 232 c 0
 31 400 78 476 186 476 c 0
EndSplineSet
EndChar

StartChar: ccedilla
Encoding: 231 231 146
Width: 350
GlyphClass: 2
Flags: MW
HStem: -161 50<151 157 157 167 89 181.5> -68 35<130 182> -11 58<184 184> 418 58<155 214>
VStem: 31 66<161 216 216 249 160 316> 189 64<-97.5 -82> 257 65<294 336>
LayerCount: 2
Fore
SplineSet
186 476 m 0
 287 476 322 408 322 294 c 1
 257 294 l 1
 257 378 242 418 186 418 c 0
 124 418 97 361 97 249 c 2
 97 216 l 2
 97 104 124 47 185 47 c 0
 241 47 261 90 261 171 c 1
 322 171 l 1xba
 322 84 287 -10 184 -11 c 1xbc
 182 -33 l 1
 220 -35 253 -49 253 -89 c 0
 253 -149 200 -161 163 -161 c 0
 139 -161 110 -158 89 -154 c 1
 89 -111 l 1
 157 -111 l 2
 177 -111 189 -106 189 -89 c 0
 189 -75 182 -68 159 -68 c 2
 130 -68 l 1
 141 -4 l 1xfc
 65 14 31 90 31 232 c 0
 31 400 78 476 186 476 c 0
EndSplineSet
EndChar

StartChar: ccircumflex
Encoding: 265 265 147
Width: 350
GlyphClass: 2
Flags: MW
HStem: -11 58<154.5 213 154.5 236.5> 418 58<155 214> 519 119<66 206 66 206 142 213 142 281> 591 47<174 174>
VStem: 31 66<160 216 216 249 160 316> 257 65<294 336>
LayerCount: 2
Fore
SplineSet
174 591 m 1xdc
 133 519 l 1
 66 519 l 1
 142 638 l 1
 206 638 l 1
 281 519 l 1
 213 519 l 1xec
 174 591 l 1xdc
186 476 m 0
 287 476 322 408 322 294 c 1
 257 294 l 1
 257 378 242 418 186 418 c 0
 124 418 97 361 97 249 c 2
 97 216 l 2
 97 104 124 47 185 47 c 0
 241 47 261 90 261 171 c 1
 322 171 l 1
 322 84 288 -11 185 -11 c 0
 78 -11 31 65 31 232 c 0
 31 400 78 476 186 476 c 0
EndSplineSet
EndChar

StartChar: cdotaccent
Encoding: 267 267 148
Width: 350
GlyphClass: 2
Flags: MW
HStem: -11 58<154.5 213 154.5 236.5> 418 58<155 214> 560 79<137 209 137 209>
VStem: 31 66<160 216 216 249 160 316> 137 72<560 639 560 639> 257 65<294 336>
LayerCount: 2
Fore
SplineSet
137 639 m 1
 209 639 l 1
 209 560 l 1
 137 560 l 1
 137 639 l 1
186 476 m 0
 287 476 322 408 322 294 c 1
 257 294 l 1
 257 378 242 418 186 418 c 0
 124 418 97 361 97 249 c 2
 97 216 l 2
 97 104 124 47 185 47 c 0
 241 47 261 90 261 171 c 1
 322 171 l 1
 322 84 288 -11 185 -11 c 0
 78 -11 31 65 31 232 c 0
 31 400 78 476 186 476 c 0
EndSplineSet
EndChar

StartChar: d
Encoding: 100 100 149
Width: 391
GlyphClass: 2
Flags: MW
HStem: -11 56<159 198.5> 420 56<159 194.5 134.5 215.5> 619 20G<275 337 337 337>
VStem: 35 65<153.5 216 216 249 153.5 317.5> 275 62<216 245 245 303.5 422 639 0 639>
LayerCount: 2
Fore
SplineSet
283 53 m 1
 278 53 l 1
 256 11 220 -11 177 -11 c 0
 90 -11 35 62 35 233 c 0
 35 402 97 476 172 476 c 0
 217 476 254 455 270 422 c 1
 275 422 l 1
 275 639 l 1
 337 639 l 1
 337 0 l 1
 292 0 l 1
 283 53 l 1
187 420 m 0
 131 420 100 374 100 249 c 2
 100 216 l 2
 100 91 131 45 187 45 c 0
 244 45 275 102 275 216 c 2
 275 245 l 2
 275 362 244 420 187 420 c 0
EndSplineSet
EndChar

StartChar: eth
Encoding: 240 240 150
Width: 391
GlyphClass: 2
Flags: MW
HStem: -11 58<164.5 227 164.5 247.5> 418 58<164.5 199 146.5 226> 444 20G 538.5 48.5 538.5 100.5 552 54 590 49<140 140>
VStem: 35 65<160 216 216 249 160 320> 78 230<555 555 555 584 584 584> 291 65<216 249 249 295 148.5 305>
LayerCount: 2
Fore
SplineSet
308 555 m 1xc480
 246 549 l 1
 314 459 356 358 356 232 c 0
 356 65 299 -11 196 -11 c 0
 92 -11 35 65 35 232 c 0xc540
 35 408 102 476 191 476 c 0xc880
 207 476 220 471 234 464 c 1
 218 492 200 516 180 543 c 1
 78 534 l 1xa880
 78 584 l 1xd080
 140 590 l 1xc280
 128 603 116 619 99 636 c 1
 101 639 l 1
 170 639 l 1xc880
 183 624 197 610 209 596 c 1
 308 606 l 1
 308 555 l 1xc480
291 216 m 2
 291 249 l 2
 291 361 256 418 196 418 c 0
 133 418 100 361 100 249 c 2
 100 216 l 2
 100 104 133 47 196 47 c 0
 258 47 291 104 291 216 c 2
EndSplineSet
EndChar

StartChar: dcaron
Encoding: 271 271 151
Width: 424
GlyphClass: 2
Flags: MW
HStem: -11 56<159 198.5> 417 189<374 453 374 415> 420 56<159 194.5 134.5 215.5> 519 87<374 407 374 453> 519 120<275 407 275 374>
VStem: 35 65<153.5 216 216 249 153.5 317.5> 275 62<216 245 245 303.5 422 639 0 639> 374 79<526 606 526 606 526 606>
LayerCount: 2
Fore
SplineSet
283 53 m 1xb7
 278 53 l 1xb7
 256 11 220 -11 177 -11 c 0
 90 -11 35 62 35 233 c 0
 35 402 97 476 172 476 c 0
 217 476 254 455 270 422 c 1
 275 422 l 1
 275 639 l 1
 337 639 l 1xaf
 337 0 l 1
 292 0 l 1
 283 53 l 1xb7
374 417 m 1xc7
 407 519 l 1
 374 519 l 1
 374 606 l 1
 453 606 l 1
 453 526 l 1xb7
 415 417 l 1
 374 417 l 1xc7
187 420 m 0
 131 420 100 374 100 249 c 2
 100 216 l 2
 100 91 131 45 187 45 c 0
 244 45 275 102 275 216 c 2
 275 245 l 2
 275 362 244 420 187 420 c 0
EndSplineSet
EndChar

StartChar: dcroat
Encoding: 273 273 152
Width: 386
GlyphClass: 2
Flags: MW
HStem: -11 56<159 198.5> 420 56<159 194.5 134.5 215.5> 515 55<181 275 181 275 337 389> 515 124<181 337 181 337 275 389 275 337>
VStem: 35 65<153.5 216 216 249 153.5 317.5> 275 62<216 245 245 303.5 422 515 0 515 570 639>
LayerCount: 2
Fore
SplineSet
389 570 m 1xec
 389 515 l 1
 337 515 l 1
 337 0 l 1
 292 0 l 1
 283 53 l 1
 278 53 l 1
 256 11 220 -11 177 -11 c 0
 90 -11 35 62 35 233 c 0
 35 402 97 476 172 476 c 0
 217 476 254 455 270 422 c 1
 275 422 l 1
 275 515 l 1
 181 515 l 1xdc
 181 570 l 1
 275 570 l 1xec
 275 639 l 1
 337 639 l 1xdc
 337 570 l 1
 389 570 l 1xec
187 420 m 0
 131 420 100 374 100 249 c 2
 100 216 l 2
 100 91 131 45 187 45 c 0
 244 45 275 102 275 216 c 2
 275 245 l 2
 275 362 244 420 187 420 c 0
EndSplineSet
EndChar

StartChar: e
Encoding: 101 101 153
Width: 403
GlyphClass: 2
Flags: MW
HStem: -11 59<179.5 240.5 179.5 258.5> 212 62<107 297 107 362 106 297> 417 59<179 241>
VStem: 40 66<212 212 212 316> 300 62<123 156>
AnchorPoint: "Anchor-1" 202 0 basechar 0
AnchorPoint: "Anchor-0" 202 465 basechar 0
LayerCount: 2
Fore
SplineSet
214 476 m 0
 313 476 362 417 362 264 c 2
 362 212 l 1
 106 212 l 1
 107 97 143 48 216 48 c 0
 265 48 300 90 300 156 c 1
 362 156 l 1
 362 57 303 -11 214 -11 c 0
 99 -11 40 59 40 232 c 0
 40 400 96 476 214 476 c 0
214 417 m 0
 144 417 114 369 107 274 c 1
 297 274 l 1
 297 368 268 417 214 417 c 0
EndSplineSet
EndChar

StartChar: eacute
Encoding: 233 233 154
Width: 403
GlyphClass: 2
Flags: MW
HStem: -11 59<179.5 240.5 179.5 258.5> 212 62<107 297 107 362 106 297> 417 59<179 241> 522 117<164 313 164 313>
VStem: 40 66<212 212 212 316> 300 62<123 156>
LayerCount: 2
Fore
SplineSet
219 522 m 1
 164 522 l 1
 240 639 l 1
 313 639 l 1
 314 636 l 1
 219 522 l 1
214 476 m 0
 313 476 362 417 362 264 c 2
 362 212 l 1
 106 212 l 1
 107 97 143 48 216 48 c 0
 265 48 300 90 300 156 c 1
 362 156 l 1
 362 57 303 -11 214 -11 c 0
 99 -11 40 59 40 232 c 0
 40 400 96 476 214 476 c 0
214 417 m 0
 144 417 114 369 107 274 c 1
 297 274 l 1
 297 368 268 417 214 417 c 0
EndSplineSet
EndChar

StartChar: ebreve
Encoding: 277 277 155
Width: 403
GlyphClass: 2
Flags: MW
HStem: -11 59<179.5 240.5 179.5 258.5> 212 62<107 297 107 362 106 297> 417 59<179 241> 555 55<186.5 217 186.5 235.5> 555 84<94 235.5>
VStem: 40 66<212 212 212 316> 300 62<123 156>
LayerCount: 2
Fore
SplineSet
255 639 m 1xee
 308 639 l 1xee
 308 600 269 555 202 555 c 0xf6
 135 555 94 600 94 639 c 1
 149 639 l 1xee
 152 627 171 610 202 610 c 0xf6
 232 610 253 627 255 639 c 1xee
214 476 m 0
 313 476 362 417 362 264 c 2
 362 212 l 1
 106 212 l 1
 107 97 143 48 216 48 c 0
 265 48 300 90 300 156 c 1
 362 156 l 1
 362 57 303 -11 214 -11 c 0
 99 -11 40 59 40 232 c 0
 40 400 96 476 214 476 c 0
214 417 m 0
 144 417 114 369 107 274 c 1
 297 274 l 1
 297 368 268 417 214 417 c 0
EndSplineSet
EndChar

StartChar: ecaron
Encoding: 283 283 156
Width: 403
GlyphClass: 2
Flags: MW
HStem: -11 59<179.5 240.5 179.5 258.5> 212 62<107 297 107 362 106 297> 417 59<179 241> 520 119<95 233 95 168>
VStem: 40 66<212 212 212 316> 300 62<123 156>
LayerCount: 2
Fore
SplineSet
95 639 m 1
 163 639 l 1
 202 566 l 1
 241 639 l 1
 309 639 l 1
 233 520 l 1
 168 520 l 1
 95 639 l 1
214 476 m 0
 313 476 362 417 362 264 c 2
 362 212 l 1
 106 212 l 1
 107 97 143 48 216 48 c 0
 265 48 300 90 300 156 c 1
 362 156 l 1
 362 57 303 -11 214 -11 c 0
 99 -11 40 59 40 232 c 0
 40 400 96 476 214 476 c 0
214 417 m 0
 144 417 114 369 107 274 c 1
 297 274 l 1
 297 368 268 417 214 417 c 0
EndSplineSet
EndChar

StartChar: ecircumflex
Encoding: 234 234 157
Width: 403
GlyphClass: 2
Flags: MW
HStem: -11 59<179.5 240.5 179.5 258.5> 212 62<107 297 107 362 106 297> 417 59<179 241> 519 119<95 234 95 234 169 241 169 309> 591 47<202 202>
VStem: 40 66<212 212 212 316> 300 62<123 156>
LayerCount: 2
Fore
SplineSet
202 591 m 1xee
 163 519 l 1
 95 519 l 1
 169 638 l 1
 234 638 l 1
 309 519 l 1
 241 519 l 1xf6
 202 591 l 1xee
214 476 m 0
 313 476 362 417 362 264 c 2
 362 212 l 1
 106 212 l 1
 107 97 143 48 216 48 c 0
 265 48 300 90 300 156 c 1
 362 156 l 1
 362 57 303 -11 214 -11 c 0
 99 -11 40 59 40 232 c 0
 40 400 96 476 214 476 c 0
214 417 m 0
 144 417 114 369 107 274 c 1
 297 274 l 1
 297 368 268 417 214 417 c 0
EndSplineSet
EndChar

StartChar: edieresis
Encoding: 235 235 158
Width: 403
GlyphClass: 2
Flags: MW
HStem: -11 59<179.5 240.5 179.5 258.5> 212 62<107 297 107 362 106 297> 417 59<179 241> 559 80<101 174 101 174 227 302 101 227>
VStem: 40 66<212 212 212 316> 101 73<559 639 559 639> 227 75<559 639 559 639> 300 62<123 156>
LayerCount: 2
Fore
SplineSet
101 559 m 1xf6
 101 639 l 1
 174 639 l 1
 174 559 l 1
 101 559 l 1xf6
227 559 m 1
 227 639 l 1
 302 639 l 1
 302 559 l 1
 227 559 l 1
214 476 m 0xf9
 313 476 362 417 362 264 c 2
 362 212 l 1
 106 212 l 1
 107 97 143 48 216 48 c 0
 265 48 300 90 300 156 c 1
 362 156 l 1
 362 57 303 -11 214 -11 c 0
 99 -11 40 59 40 232 c 0
 40 400 96 476 214 476 c 0xf9
214 417 m 0
 144 417 114 369 107 274 c 1
 297 274 l 1
 297 368 268 417 214 417 c 0
EndSplineSet
EndChar

StartChar: edotaccent
Encoding: 279 279 159
Width: 403
GlyphClass: 2
Flags: MW
HStem: -11 59<179.5 240.5 179.5 258.5> 212 62<107 297 107 362 106 297> 417 59<179 241> 560 79<167 237 167 237>
VStem: 40 66<212 212 212 316> 167 70<560 639 560 639> 300 62<123 156>
LayerCount: 2
Fore
SplineSet
167 639 m 1
 237 639 l 1
 237 560 l 1
 167 560 l 1
 167 639 l 1
214 476 m 0
 313 476 362 417 362 264 c 2
 362 212 l 1
 106 212 l 1
 107 97 143 48 216 48 c 0
 265 48 300 90 300 156 c 1
 362 156 l 1
 362 57 303 -11 214 -11 c 0
 99 -11 40 59 40 232 c 0
 40 400 96 476 214 476 c 0
214 417 m 0
 144 417 114 369 107 274 c 1
 297 274 l 1
 297 368 268 417 214 417 c 0
EndSplineSet
EndChar

StartChar: egrave
Encoding: 232 232 160
Width: 403
GlyphClass: 2
Flags: MW
HStem: -11 59<179.5 240.5 179.5 258.5> 212 62<107 297 107 362 106 297> 417 59<179 241> 522 117<118 211 118 264>
VStem: 40 66<212 212 212 316> 300 62<123 156>
LayerCount: 2
Fore
SplineSet
211 522 m 1
 116 636 l 1
 118 639 l 1
 188 639 l 1
 264 522 l 1
 211 522 l 1
214 476 m 0
 313 476 362 417 362 264 c 2
 362 212 l 1
 106 212 l 1
 107 97 143 48 216 48 c 0
 265 48 300 90 300 156 c 1
 362 156 l 1
 362 57 303 -11 214 -11 c 0
 99 -11 40 59 40 232 c 0
 40 400 96 476 214 476 c 0
214 417 m 0
 144 417 114 369 107 274 c 1
 297 274 l 1
 297 368 268 417 214 417 c 0
EndSplineSet
EndChar

StartChar: emacron
Encoding: 275 275 161
Width: 403
GlyphClass: 2
Flags: MW
HStem: -11 59<179.5 240.5 179.5 258.5> 212 62<107 297 107 362 106 297> 417 59<179 241> 530 59<92 312 92 312>
VStem: 40 66<212 212 212 316> 92 220<530 589 530 589> 300 62<123 156>
LayerCount: 2
Fore
SplineSet
92 589 m 1xf4
 312 589 l 1
 312 530 l 1
 92 530 l 1
 92 589 l 1xf4
214 476 m 0xfa
 313 476 362 417 362 264 c 2
 362 212 l 1
 106 212 l 1
 107 97 143 48 216 48 c 0
 265 48 300 90 300 156 c 1
 362 156 l 1
 362 57 303 -11 214 -11 c 0
 99 -11 40 59 40 232 c 0
 40 400 96 476 214 476 c 0xfa
214 417 m 0
 144 417 114 369 107 274 c 1
 297 274 l 1
 297 368 268 417 214 417 c 0
EndSplineSet
EndChar

StartChar: eogonek
Encoding: 281 281 162
Width: 403
GlyphClass: 2
Flags: MW
HStem: -160 57<259 331> -11 59<179.5 214 214 219> 212 62<107 297 107 362 106 297> 417 59<179 241>
VStem: 40 66<212 212 212 316> 196 64<-67 -65.5> 300 62<123 156>
LayerCount: 2
Fore
SplineSet
362 212 m 1
 106 212 l 1
 107 97 143 48 216 48 c 0
 265 48 300 90 300 156 c 1
 362 156 l 1
 362 86 333 33 286 7 c 1
 275 -5 260 -29 260 -54 c 0
 260 -80 271 -103 300 -103 c 2
 331 -103 l 1
 331 -148 l 1
 312 -155 296 -160 278 -160 c 0
 240 -160 196 -141 196 -80 c 0
 196 -51 206 -29 219 -11 c 1
 214 -11 l 2
 99 -11 40 59 40 232 c 0
 40 400 96 476 214 476 c 0
 313 476 362 417 362 264 c 2
 362 212 l 1
107 274 m 1
 297 274 l 1
 297 368 268 417 214 417 c 0
 144 417 114 369 107 274 c 1
EndSplineSet
EndChar

StartChar: f
Encoding: 102 102 163
Width: 191
GlyphClass: 2
Flags: MW
HStem: 407 58<8 47 8 47 109 191> 593 53<138.5 144 100.5 153 100.5 191>
VStem: 47 62<0 407 0 407 465 544 544 550>
LayerCount: 2
Fore
SplineSet
134 646 m 0
 154 646 176 641 191 636 c 1
 191 593 l 1
 153 593 l 2
 124 593 109 578 109 550 c 2
 109 465 l 1
 191 465 l 1
 191 407 l 1
 109 407 l 1
 109 0 l 1
 47 0 l 1
 47 407 l 1
 8 407 l 1
 8 465 l 1
 47 465 l 1
 47 544 l 2
 47 595 67 646 134 646 c 0
EndSplineSet
EndChar

StartChar: g
Encoding: 103 103 164
Width: 391
GlyphClass: 2
Flags: MW
HStem: -161 58<88 261 130 249> 13 60<110 271 146 260> 164 55<132.5 216.5 162.5 196> 420 56<162.5 202 146.5 216.5>
VStem: 10 63<-60.5 -29 -60.5 -26.5> 33 67<107.5 130.5 105.5 138.5> 44 63<294 350.5 287 368.5> 273 63<289 343 271.5 352.5> 316 56<512.5 539> 318 63<-60.5 -29.5>
AnchorPoint: "Anchor-1" 0 0 basechar 0
AnchorPoint: "Anchor-0" 196 465 basechar 0
LayerCount: 2
Fore
SplineSet
316 539 m 1xf280
 372 539 l 1xf280
 372 486 343 442 294 430 c 1
 320 403 336 366 336 320 c 0
 336 223 279 165 196 164 c 2
 145 164 l 2
 120 164 100 143 100 118 c 0
 100 93 121 73 146 73 c 2xf5
 271 73 l 2
 341 73 381 22 381 -32 c 0
 381 -103 340 -161 249 -161 c 2
 129 -161 l 2
 47 -161 10 -109 10 -49 c 0xf840
 10 -4 32 38 72 51 c 1
 47 67 33 95 33 120 c 0xf5
 33 157 58 187 98 201 c 1
 64 228 44 268 44 320 c 0
 44 417 102 476 191 476 c 0
 213 476 236 468 254 458 c 1
 298 479 310 507 316 539 c 1xf280
189 420 m 0xf3
 136 420 107 381 107 320 c 0
 107 254 136 219 189 219 c 0
 244 219 273 258 273 320 c 0
 273 385 244 420 189 420 c 0xf3
260 13 m 2xf840
 130 13 l 2
 90 13 73 -13 73 -45 c 0
 73 -76 91 -103 130 -103 c 2
 261 -103 l 2
 293 -103 318 -76 318 -45 c 0
 318 -14 301 13 260 13 c 2xf840
EndSplineSet
EndChar

StartChar: gbreve
Encoding: 287 287 165
Width: 391
GlyphClass: 2
Flags: MW
HStem: -161 58<88 261 130 249> 13 60<110 271 146 260> 164 55<132.5 216.5 162.5 196> 420 56<162.5 202 146.5 216.5> 555 55<180.5 211 180.5 229.5> 555 84<89 229.5>
VStem: 10 63<-60.5 -29 -60.5 -26.5> 33 67<107.5 130.5 105.5 138.5> 44 63<294 350.5 287 368.5> 273 63<289 343 271.5 352.5> 316 56<512.5 539> 318 63<-60.5 -29.5>
LayerCount: 2
Fore
SplineSet
249 639 m 1xf4c0
 303 639 l 1xf4a0
 303 600 263 555 196 555 c 0xf8c0
 130 555 89 600 89 639 c 1
 143 639 l 1xf4c0
 146 627 165 610 196 610 c 0xf8c0
 226 610 247 627 249 639 c 1xf4c0
316 539 m 1
 372 539 l 1xf8a0
 372 486 343 442 294 430 c 1
 320 403 336 366 336 320 c 0
 336 223 279 165 196 164 c 2
 145 164 l 2
 120 164 100 143 100 118 c 0
 100 93 121 73 146 73 c 2xf940
 271 73 l 2
 341 73 381 22 381 -32 c 0
 381 -103 340 -161 249 -161 c 2
 129 -161 l 2
 47 -161 10 -109 10 -49 c 0xfa10
 10 -4 32 38 72 51 c 1
 47 67 33 95 33 120 c 0xf940
 33 157 58 187 98 201 c 1
 64 228 44 268 44 320 c 0
 44 417 102 476 191 476 c 0
 213 476 236 468 254 458 c 1
 298 479 310 507 316 539 c 1
189 420 m 0xf8c0
 136 420 107 381 107 320 c 0
 107 254 136 219 189 219 c 0
 244 219 273 258 273 320 c 0
 273 385 244 420 189 420 c 0xf8c0
260 13 m 2xfa10
 130 13 l 2
 90 13 73 -13 73 -45 c 0
 73 -76 91 -103 130 -103 c 2
 261 -103 l 2
 293 -103 318 -76 318 -45 c 0
 318 -14 301 13 260 13 c 2xfa10
EndSplineSet
EndChar

StartChar: gcircumflex
Encoding: 285 285 166
Width: 391
GlyphClass: 2
Flags: MW
HStem: -161 58<88 261 130 249> 13 60<110 271 146 260> 164 55<132.5 216.5 162.5 196> 420 56<162.5 202 146.5 216.5> 519 20<235 372> 519 119<89 229 89 229 163 235 163 304> 591 47<196 196>
VStem: 10 63<-60.5 -29 -60.5 -26.5> 33 67<107.5 130.5 105.5 138.5> 44 63<294 350.5 287 368.5> 273 63<289 343 271.5 352.5> 316 56<512.5 539> 318 63<-60.5 -29.5>
LayerCount: 2
Fore
SplineSet
196 591 m 1xf260
 157 519 l 1
 89 519 l 1
 163 638 l 1
 229 638 l 1
 304 519 l 1
 235 519 l 1xf460
 196 591 l 1xf260
316 539 m 1xf850
 372 539 l 1xf850
 372 486 343 442 294 430 c 1
 320 403 336 366 336 320 c 0
 336 223 279 165 196 164 c 2
 145 164 l 2
 120 164 100 143 100 118 c 0
 100 93 121 73 146 73 c 2xf4a0
 271 73 l 2
 341 73 381 22 381 -32 c 0
 381 -103 340 -161 249 -161 c 2
 129 -161 l 2
 47 -161 10 -109 10 -49 c 0xf508
 10 -4 32 38 72 51 c 1
 47 67 33 95 33 120 c 0xf4a0
 33 157 58 187 98 201 c 1
 64 228 44 268 44 320 c 0
 44 417 102 476 191 476 c 0
 213 476 236 468 254 458 c 1
 293 486 313 490 316 539 c 1xf850
189 420 m 0xf460
 136 420 107 381 107 320 c 0
 107 254 136 219 189 219 c 0
 244 219 273 258 273 320 c 0
 273 385 244 420 189 420 c 0xf460
260 13 m 2xf508
 130 13 l 2
 90 13 73 -13 73 -45 c 0
 73 -76 91 -103 130 -103 c 2
 261 -103 l 2
 293 -103 318 -76 318 -45 c 0
 318 -14 301 13 260 13 c 2xf508
EndSplineSet
EndChar

StartChar: gcommaaccent
Encoding: 291 291 167
Width: 391
GlyphClass: 2
Flags: MW
HStem: -161 58<88 261 130 249> 13 60<110 271 146 260> 164 55<132.5 216.5 162.5 196> 420 56<162.5 202 146.5 216.5> 527 72<188 214 188 214 148 214>
VStem: 10 63<-60.5 -29 -60.5 -26.5> 33 67<107.5 130.5 105.5 138.5> 44 63<294 350.5 287 368.5> 148 66<527 594 594 594> 273 63<289 343 271.5 352.5> 316 56<512.5 539> 318 63<-60.5 -29.5>
LayerCount: 2
Fore
SplineSet
214 599 m 1xf9c0
 214 527 l 1
 148 527 l 1
 148 594 l 1
 171 658 l 1
 205 658 l 1
 188 599 l 1
 214 599 l 1xf9c0
316 539 m 1xf9a0
 372 539 l 1xf9a0
 372 486 343 442 294 430 c 1
 320 403 336 366 336 320 c 0
 336 223 279 165 196 164 c 2
 145 164 l 2
 120 164 100 143 100 118 c 0
 100 93 121 73 146 73 c 2xfac0
 271 73 l 2
 341 73 381 22 381 -32 c 0
 381 -103 340 -161 249 -161 c 2
 129 -161 l 2
 47 -161 10 -109 10 -49 c 0xfc90
 10 -4 32 38 72 51 c 1
 47 67 33 95 33 120 c 0xfac0
 33 157 58 187 98 201 c 1
 64 228 44 268 44 320 c 0
 44 417 102 476 191 476 c 0
 213 476 236 468 254 458 c 1
 298 479 310 507 316 539 c 1xf9a0
189 420 m 0xf9c0
 136 420 107 381 107 320 c 0
 107 254 136 219 189 219 c 0
 244 219 273 258 273 320 c 0
 273 385 244 420 189 420 c 0xf9c0
260 13 m 2xfc90
 130 13 l 2
 90 13 73 -13 73 -45 c 0
 73 -76 91 -103 130 -103 c 2
 261 -103 l 2
 293 -103 318 -76 318 -45 c 0
 318 -14 301 13 260 13 c 2xfc90
EndSplineSet
EndChar

StartChar: gdotaccent
Encoding: 289 289 168
Width: 391
GlyphClass: 2
Flags: MW
HStem: -161 58<88 261 130 249> 13 60<110 271 146 260> 164 55<132.5 216.5 162.5 196> 420 56<162.5 202 146.5 216.5> 560 79<161 231 161 231>
VStem: 10 63<-60.5 -29 -60.5 -26.5> 33 67<107.5 130.5 105.5 138.5> 44 63<294 350.5 287 368.5> 161 70<560 639 560 639> 273 63<289 343 271.5 352.5> 316 56<512.5 539> 318 63<-60.5 -29.5>
LayerCount: 2
Fore
SplineSet
161 639 m 1xf9c0
 231 639 l 1
 231 560 l 1
 161 560 l 1
 161 639 l 1xf9c0
316 539 m 1xf9a0
 372 539 l 1xf9a0
 372 486 343 442 294 430 c 1
 320 403 336 366 336 320 c 0
 336 223 279 165 196 164 c 2
 145 164 l 2
 120 164 100 143 100 118 c 0
 100 93 121 73 146 73 c 2xfac0
 271 73 l 2
 341 73 381 22 381 -32 c 0
 381 -103 340 -161 249 -161 c 2
 129 -161 l 2
 47 -161 10 -109 10 -49 c 0xfc90
 10 -4 32 38 72 51 c 1
 47 67 33 95 33 120 c 0xfac0
 33 157 58 187 98 201 c 1
 64 228 44 268 44 320 c 0
 44 417 102 476 191 476 c 0
 213 476 236 468 254 458 c 1
 298 479 310 507 316 539 c 1xf9a0
189 420 m 0xf9c0
 136 420 107 381 107 320 c 0
 107 254 136 219 189 219 c 0
 244 219 273 258 273 320 c 0
 273 385 244 420 189 420 c 0xf9c0
260 13 m 2xfc90
 130 13 l 2
 90 13 73 -13 73 -45 c 0
 73 -76 91 -103 130 -103 c 2
 261 -103 l 2
 293 -103 318 -76 318 -45 c 0
 318 -14 301 13 260 13 c 2xfc90
EndSplineSet
EndChar

StartChar: h
Encoding: 104 104 169
Width: 391
GlyphClass: 2
Flags: MW
HStem: 420 56<202.5 227.5> 619 20G<54 117 117 117>
VStem: 54 63<0 283 416 639> 275 62<0 338 0 340 0 372.5>
AnchorPoint: "Anchor-1" 0 0 basechar 0
AnchorPoint: "Anchor-0" 196 465 basechar 0
LayerCount: 2
Fore
SplineSet
117 416 m 1
 123 416 l 1
 148 462 181 476 224 476 c 0
 294 476 337 439 337 338 c 2
 337 0 l 1
 275 0 l 1
 275 340 l 2
 275 405 247 420 208 420 c 0
 160 420 117 371 117 283 c 2
 117 0 l 1
 54 0 l 1
 54 639 l 1
 117 639 l 1
 117 416 l 1
EndSplineSet
EndChar

StartChar: hbar
Encoding: 295 295 170
Width: 391
GlyphClass: 2
Flags: MW
HStem: 420 56<202.5 227.5> 515 55<0 54 0 54 117 206> 515 124<0 117 0 117 54 206 54 117>
VStem: 54 63<0 283 416 515 570 639> 275 62<0 338 0 340 0 372.5>
LayerCount: 2
Fore
SplineSet
206 570 m 1xd8
 206 515 l 1
 117 515 l 1
 117 416 l 1
 123 416 l 1
 148 462 181 476 224 476 c 0
 294 476 337 439 337 338 c 2
 337 0 l 1
 275 0 l 1
 275 340 l 2
 275 405 247 420 208 420 c 0
 160 420 117 371 117 283 c 2
 117 0 l 1
 54 0 l 1
 54 515 l 1
 0 515 l 1xb8
 0 570 l 1
 54 570 l 1xd8
 54 639 l 1
 117 639 l 1xb8
 117 570 l 1
 206 570 l 1xd8
EndSplineSet
EndChar

StartChar: hcircumflex
Encoding: 293 293 171
Width: 391
GlyphClass: 2
Flags: MW
HStem: 420 56<202.5 227.5> 619 20G<54 117 117 117> 660 120<-19 121 -19 121 57 129 57 197>
VStem: 54 63<0 283 416 639> 275 62<0 338 0 340 0 372.5>
LayerCount: 2
Fore
SplineSet
90 732 m 1
 50 660 l 1
 -19 660 l 1
 57 780 l 1
 121 780 l 1
 197 660 l 1
 129 660 l 1
 90 732 l 1
117 416 m 1
 123 416 l 1
 148 462 181 476 224 476 c 0
 294 476 337 439 337 338 c 2
 337 0 l 1
 275 0 l 1
 275 340 l 2
 275 405 247 420 208 420 c 0
 160 420 117 371 117 283 c 2
 117 0 l 1
 54 0 l 1
 54 639 l 1
 117 639 l 1xd8
 117 416 l 1
EndSplineSet
EndChar

StartChar: i
Encoding: 105 105 172
Width: 149
GlyphClass: 2
Flags: MW
HStem: 445 20G<43 106 106 106> 555 84<43 106 43 106>
VStem: 43 63<0 465 0 465 555 639>
LayerCount: 2
Fore
SplineSet
43 639 m 1
 106 639 l 1
 106 555 l 1
 43 555 l 1
 43 639 l 1
43 465 m 1
 106 465 l 1
 106 0 l 1
 43 0 l 1
 43 465 l 1
EndSplineSet
EndChar

StartChar: dotlessi
Encoding: 305 305 173
Width: 202
GlyphClass: 2
Flags: MW
HStem: 445 20G<70 132 132 132>
VStem: 70 62<0 465 0 465>
AnchorPoint: "Anchor-1" 0 0 basechar 0
AnchorPoint: "Anchor-0" 101 465 basechar 0
LayerCount: 2
Fore
SplineSet
70 465 m 1
 132 465 l 1
 132 0 l 1
 70 0 l 1
 70 465 l 1
EndSplineSet
EndChar

StartChar: iacute
Encoding: 237 237 174
Width: 202
GlyphClass: 2
Flags: MW
HStem: 445 20G<70 132 132 132> 522 117<52 197 52 197>
VStem: 70 62<0 465 0 465>
LayerCount: 2
Fore
SplineSet
105 522 m 1
 52 522 l 1
 128 639 l 1
 197 639 l 1
 198 636 l 1
 105 522 l 1
70 0 m 1
 70 465 l 1
 132 465 l 1
 132 0 l 1
 70 0 l 1
EndSplineSet
EndChar

StartChar: ibreve
Encoding: 301 301 175
Width: 202
GlyphClass: 2
Flags: MW
HStem: 445 20G<70 132 132 132> 555 55<86.5 116 86.5 134.5> 555 84<-6 134.5>
VStem: 70 62<0 465 0 465>
LayerCount: 2
Fore
SplineSet
154 639 m 1xb0
 207 639 l 1xb0
 207 600 168 555 101 555 c 0xd0
 36 555 -6 600 -6 639 c 1
 49 639 l 1xb0
 51 627 72 610 101 610 c 0xd0
 131 610 152 627 154 639 c 1xb0
70 465 m 1
 132 465 l 1
 132 0 l 1
 70 0 l 1
 70 465 l 1
EndSplineSet
EndChar

StartChar: icircumflex
Encoding: 238 238 176
Width: 202
GlyphClass: 2
Flags: MW
HStem: 445 20G<70 132 132 132> 519 119<-7 133 -7 133 70 141 70 208> 591 47<102 102>
VStem: 70 62<0 465 0 465>
LayerCount: 2
Fore
SplineSet
102 591 m 1xb0
 62 519 l 1
 -7 519 l 1
 70 638 l 1
 133 638 l 1
 208 519 l 1
 141 519 l 1xd0
 102 591 l 1xb0
70 465 m 1
 132 465 l 1
 132 0 l 1
 70 0 l 1
 70 465 l 1
EndSplineSet
EndChar

StartChar: idieresis
Encoding: 239 239 177
Width: 202
GlyphClass: 2
Flags: MW
HStem: 445 20G<70 132 132 132> 559 80<1 74 1 74 128 201 1 128>
VStem: 1 73<559 639 559 639> 70 62<0 465 0 465> 128 73<559 639 559 639>
LayerCount: 2
Fore
SplineSet
1 559 m 1xe8
 1 639 l 1
 74 639 l 1
 74 559 l 1
 1 559 l 1xe8
128 559 m 1
 128 639 l 1
 201 639 l 1
 201 559 l 1
 128 559 l 1
70 0 m 1xd0
 70 465 l 1
 132 465 l 1
 132 0 l 1
 70 0 l 1xd0
EndSplineSet
EndChar

StartChar: igrave
Encoding: 236 236 178
Width: 202
GlyphClass: 2
Flags: MW
HStem: 445 20G<70 132 132 132> 522 117<3 99 3 152>
VStem: 70 62<0 465 0 465>
LayerCount: 2
Fore
SplineSet
99 522 m 1
 2 636 l 1
 3 639 l 1
 76 639 l 1
 152 522 l 1
 99 522 l 1
70 0 m 1
 70 465 l 1
 132 465 l 1
 132 0 l 1
 70 0 l 1
EndSplineSet
EndChar

StartChar: ij
Encoding: 307 307 179
Width: 298
GlyphClass: 2
Flags: MW
HStem: -161 53<157.5 164.5 112 201> 445 20G<43 106 106 106 192 255 255 255> 555 84<43 106 43 106 192 255>
VStem: 43 63<0 465 0 465 555 639> 192 63<-65 -59 -59 465 555 639>
LayerCount: 2
Fore
SplineSet
43 555 m 1
 43 639 l 1
 106 639 l 1
 106 555 l 1
 43 555 l 1
192 555 m 1
 192 639 l 1
 255 639 l 1
 255 555 l 1
 192 555 l 1
43 0 m 1
 43 465 l 1
 106 465 l 1
 106 0 l 1
 43 0 l 1
255 465 m 1
 255 -59 l 2
 255 -110 234 -161 168 -161 c 0
 147 -161 126 -156 112 -150 c 1
 112 -108 l 1
 151 -108 l 2
 178 -108 192 -93 192 -65 c 2
 192 465 l 1
 255 465 l 1
EndSplineSet
EndChar

StartChar: imacron
Encoding: 299 299 180
Width: 202
GlyphClass: 2
Flags: MW
HStem: 445 20G<70 132 132 132> 530 59<-9 211 -9 211>
VStem: 70 62<0 465 0 465>
LayerCount: 2
Fore
SplineSet
-9 589 m 1
 211 589 l 1
 211 530 l 1
 -9 530 l 1
 -9 589 l 1
70 465 m 1
 132 465 l 1
 132 0 l 1
 70 0 l 1
 70 465 l 1
EndSplineSet
EndChar

StartChar: iogonek
Encoding: 303 303 181
Width: 149
GlyphClass: 2
Flags: MW
HStem: -159 57<86 157> 445 20G<43 106 106 106> 560 79<38 111 38 111>
VStem: 43 63<0 465 0 465>
LayerCount: 2
Fore
SplineSet
38 560 m 1
 38 639 l 1
 111 639 l 1
 111 560 l 1
 38 560 l 1
106 465 m 1
 106 0 l 1
 96 -13 86 -33 86 -53 c 0
 86 -79 97 -102 126 -102 c 2
 157 -102 l 1
 157 -147 l 1
 139 -154 121 -159 105 -159 c 0
 67 -159 23 -140 23 -79 c 0
 23 -43 36 -19 53 0 c 1
 43 0 l 1
 43 465 l 1
 106 465 l 1
EndSplineSet
EndChar

StartChar: itilde
Encoding: 297 297 182
Width: 202
GlyphClass: 2
Flags: MW
HStem: 445 20G<70 132 132 132> 552 62<134.5 153.5 130 178> 578 61<47.5 67.5 24 72>
VStem: 70 62<0 465 0 465>
LayerCount: 2
Fore
SplineSet
175 639 m 1xb0
 224 639 l 1xb0
 224 600 203 552 153 552 c 0xd0
 116 552 89 578 55 578 c 0xb0
 40 578 29 572 27 552 c 1
 -22 552 l 1
 -22 590 -1 639 49 639 c 0
 86 639 113 614 147 614 c 0xd0
 160 614 173 620 175 639 c 1xb0
70 465 m 1
 132 465 l 1
 132 0 l 1
 70 0 l 1
 70 465 l 1
EndSplineSet
EndChar

StartChar: j
Encoding: 106 106 183
Width: 149
GlyphClass: 2
Flags: MW
HStem: -161 53<9.5 15.5 -37 51.5> 445 20G<43 106 106 106> 555 84<43 106 43 106>
VStem: 43 63<-65 -59 -59 465 555 639>
LayerCount: 2
Fore
SplineSet
43 639 m 1
 106 639 l 1
 106 555 l 1
 43 555 l 1
 43 639 l 1
106 465 m 1
 106 -59 l 2
 106 -110 84 -161 19 -161 c 0
 0 -161 -23 -156 -37 -150 c 1
 -37 -108 l 1
 2 -108 l 2
 29 -108 43 -93 43 -65 c 2
 43 465 l 1
 106 465 l 1
EndSplineSet
EndChar

StartChar: jcircumflex
Encoding: 309 309 184
Width: 149
GlyphClass: 2
Flags: MW
HStem: -161 53<9.5 15.5 -37 51.5> 445 20G<43 106 106 106> 519 119<-34 106 -34 106 42 114 42 182> 591 47<75 75>
VStem: 43 63<-65 -59 -59 465>
LayerCount: 2
Fore
SplineSet
75 591 m 1xd8
 35 519 l 1
 -34 519 l 1
 42 638 l 1
 106 638 l 1
 182 519 l 1
 114 519 l 1xe8
 75 591 l 1xd8
106 465 m 1
 106 -59 l 2
 106 -110 84 -161 19 -161 c 0
 0 -161 -23 -156 -37 -150 c 1
 -37 -108 l 1
 2 -108 l 2
 29 -108 43 -93 43 -65 c 2
 43 465 l 1
 106 465 l 1
EndSplineSet
EndChar

StartChar: k
Encoding: 107 107 185
Width: 350
GlyphClass: 2
Flags: MW
HStem: 445 20G<274 344 344 344> 619 20G<54 118 118 118>
VStem: 54 64<0 162 240 639>
AnchorPoint: "Anchor-1" 175 0 basechar 0
AnchorPoint: "Anchor-0" 0 0 basechar 0
LayerCount: 2
Fore
SplineSet
344 465 m 1
 207 273 l 1
 351 0 l 1
 280 0 l 1
 170 218 l 1
 118 162 l 1
 118 0 l 1
 54 0 l 1
 54 639 l 1
 118 639 l 1
 118 240 l 1
 274 465 l 1
 344 465 l 1
EndSplineSet
EndChar

StartChar: kcommaaccent
Encoding: 311 311 186
Width: 350
GlyphClass: 2
Flags: MW
HStem: -126 72<143 169 143 208> 445 20G<274 344 344 344> 619 20G<54 118 118 118>
VStem: 54 64<0 162 240 639> 143 65<-121 -54 -121 -54 -121 -54>
LayerCount: 2
Fore
SplineSet
344 465 m 1
 207 273 l 1
 351 0 l 1
 280 0 l 1
 170 218 l 1
 118 162 l 1
 118 0 l 1
 54 0 l 1
 54 639 l 1
 118 639 l 1
 118 240 l 1
 274 465 l 1
 344 465 l 1
153 -185 m 1xf8
 169 -126 l 1
 143 -126 l 1
 143 -54 l 1
 208 -54 l 1
 208 -121 l 1
 187 -185 l 1
 153 -185 l 1xf8
EndSplineSet
EndChar

StartChar: kgreenlandic
Encoding: 312 312 187
Width: 348
GlyphClass: 2
Flags: MW
HStem: 445 20G<54 118 118 118 274 344 344 344>
VStem: 54 64<0 162 240 465>
LayerCount: 2
Fore
SplineSet
280 0 m 1
 170 218 l 1
 118 162 l 1
 118 0 l 1
 54 0 l 1
 54 465 l 1
 118 465 l 1
 118 240 l 1
 274 465 l 1
 344 465 l 1
 207 273 l 1
 351 0 l 1
 280 0 l 1
EndSplineSet
EndChar

StartChar: l
Encoding: 108 108 188
Width: 149
GlyphClass: 2
Flags: MW
HStem: 619 20G<43 106 106 106>
VStem: 43 63<0 639 0 639>
AnchorPoint: "Anchor-1" 74 0 basechar 0
AnchorPoint: "Anchor-0" 74 465 basechar 0
LayerCount: 2
Fore
SplineSet
43 639 m 1
 106 639 l 1
 106 0 l 1
 43 0 l 1
 43 639 l 1
EndSplineSet
EndChar

StartChar: lacute
Encoding: 314 314 189
Width: 149
GlyphClass: 2
Flags: MW
HStem: 619 20G<43 106 106 106> 664 117<24 173 24 173>
VStem: 43 63<0 639 0 639>
LayerCount: 2
Fore
SplineSet
78 664 m 1
 24 664 l 1
 100 781 l 1
 173 781 l 1
 173 778 l 1
 78 664 l 1
43 0 m 1
 43 639 l 1
 106 639 l 1xa0
 106 0 l 1
 43 0 l 1
EndSplineSet
EndChar

StartChar: lcaron
Encoding: 318 318 190
Width: 191
GlyphClass: 2
Flags: MW
HStem: 417 189<138 216 138 179> 519 87<138 169 138 216> 519 120<43 169 43 138>
VStem: 43 63<0 639 0 639> 138 78<526 606 526 606 526 606>
LayerCount: 2
Fore
SplineSet
43 639 m 1x38
 106 639 l 1
 106 0 l 1
 43 0 l 1
 43 639 l 1x38
138 417 m 1x98
 169 519 l 1
 138 519 l 1
 138 606 l 1
 216 606 l 1
 216 526 l 1x58
 179 417 l 1
 138 417 l 1x98
EndSplineSet
EndChar

StartChar: lcommaaccent
Encoding: 316 316 191
Width: 149
GlyphClass: 2
Flags: MW
HStem: -126 72<42 68 42 107> 619 20G<43 106 106 106>
VStem: 43 63<0 639 0 639>
LayerCount: 2
Fore
SplineSet
43 639 m 1
 106 639 l 1
 106 0 l 1
 43 0 l 1
 43 639 l 1
53 -185 m 1
 68 -126 l 1
 42 -126 l 1
 42 -54 l 1
 107 -54 l 1
 107 -121 l 1
 86 -185 l 1
 53 -185 l 1
EndSplineSet
EndChar

StartChar: ldot
Encoding: 320 320 192
Width: 283
GlyphClass: 2
Flags: MW
HStem: 258 92<141 225 141 225> 619 20G<43 106 106 106>
VStem: 43 63<0 639 0 639> 141 84<258 350 258 350>
LayerCount: 2
Fore
SplineSet
43 639 m 1
 106 639 l 1
 106 0 l 1
 43 0 l 1
 43 639 l 1
141 350 m 1
 225 350 l 1
 225 258 l 1
 141 258 l 1
 141 350 l 1
EndSplineSet
Ligature2: "Ligature Substitution lookup 20 subtable" l periodcentered
EndChar

StartChar: lslash
Encoding: 322 322 193
Width: 149
GlyphClass: 2
Flags: MW
HStem: 619 20G<43 106 106 106>
VStem: 43 63<0 221 221 221 0 335 335 639>
LayerCount: 2
Fore
SplineSet
185 347 m 1
 106 277 l 1
 106 0 l 1
 43 0 l 1
 43 221 l 1
 -21 167 l 1
 -21 222 l 1
 43 279 l 1
 43 639 l 1
 106 639 l 1
 106 335 l 1
 185 405 l 1
 185 347 l 1
EndSplineSet
EndChar

StartChar: m
Encoding: 109 109 194
Width: 592
GlyphClass: 2
Flags: MW
HStem: 420 56<198 219 408 429> 445 20G<54 99 99 99>
VStem: 54 63<0 283 0 465> 265 63<0 281 0 340 0 372.5> 474 63<0 338 0 340 0 372.5>
LayerCount: 2
Fore
SplineSet
428 476 m 0xb8
 494 476 537 438 537 338 c 2
 537 0 l 1
 474 0 l 1
 474 340 l 2
 474 405 446 420 412 420 c 0
 366 420 328 370 328 281 c 2
 328 0 l 1
 265 0 l 1
 265 340 l 2
 265 405 236 420 202 420 c 0xb8
 157 420 117 371 117 283 c 2
 117 0 l 1
 54 0 l 1
 54 465 l 1
 99 465 l 1x78
 109 412 l 1
 114 412 l 1
 140 461 177 476 219 476 c 0
 265 476 301 456 318 408 c 1
 343 456 388 476 428 476 c 0xb8
EndSplineSet
EndChar

StartChar: n
Encoding: 110 110 195
Width: 391
GlyphClass: 2
Flags: MW
HStem: 420 56<202.5 227.5> 445 20G<54 99 99 99>
VStem: 54 63<0 283 0 465> 275 62<0 338 0 340 0 372.5>
AnchorPoint: "Anchor-1" 196 0 basechar 0
AnchorPoint: "Anchor-0" 196 465 basechar 0
LayerCount: 2
Fore
SplineSet
224 476 m 0xb0
 294 476 337 439 337 338 c 2
 337 0 l 1
 275 0 l 1
 275 340 l 2
 275 405 247 420 208 420 c 0xb0
 160 420 117 371 117 283 c 2
 117 0 l 1
 54 0 l 1
 54 465 l 1
 99 465 l 1x70
 109 412 l 1
 114 412 l 1
 141 461 181 476 224 476 c 0xb0
EndSplineSet
Substitution2: "'sups' Superscript lookup 7 subtable" nsuperior
Substitution2: "'aalt' Access All Alternates lookup 0 subtable" nsuperior
EndChar

StartChar: nacute
Encoding: 324 324 196
Width: 391
GlyphClass: 2
Flags: MW
HStem: 420 56<202.5 227.5> 445 20G<54 99 99 99> 522 117<145 293 145 293>
VStem: 54 63<0 283 0 465> 275 62<0 338 0 340 0 372.5>
LayerCount: 2
Fore
SplineSet
199 522 m 1xb8
 145 522 l 1
 221 639 l 1
 293 639 l 1
 294 636 l 1
 199 522 l 1xb8
224 476 m 0
 294 476 337 439 337 338 c 2
 337 0 l 1
 275 0 l 1
 275 340 l 2
 275 405 247 420 208 420 c 0xb8
 160 420 117 371 117 283 c 2
 117 0 l 1
 54 0 l 1
 54 465 l 1
 99 465 l 1x78
 109 412 l 1
 114 412 l 1
 141 461 181 476 224 476 c 0
EndSplineSet
EndChar

StartChar: napostrophe
Encoding: 329 329 197
Width: 480
GlyphClass: 2
Flags: MW
HStem: 420 56<292 315> 445 20G<142 187 187 187> 533 73<37 63 37 103>
VStem: 37 66<538 606 538 606 538 606> 142 63<0 283 0 465> 363 62<0 338 0 340 0 372.5>
LayerCount: 2
Fore
SplineSet
81 473 m 1xbc
 46 473 l 1
 63 533 l 1
 37 533 l 1
 37 606 l 1
 103 606 l 1
 103 538 l 1
 81 473 l 1xbc
314 476 m 0
 382 476 425 439 425 338 c 2
 425 0 l 1
 363 0 l 1
 363 340 l 2
 363 405 335 420 295 420 c 0xbc
 249 420 205 371 205 283 c 2
 205 0 l 1
 142 0 l 1
 142 465 l 1
 187 465 l 1x7c
 197 412 l 1
 202 412 l 1
 229 461 270 476 314 476 c 0
EndSplineSet
EndChar

StartChar: ncaron
Encoding: 328 328 198
Width: 391
GlyphClass: 2
Flags: MW
HStem: 420 56<202.5 227.5> 445 20G<54 99 99 99> 520 119<89 227 89 162>
VStem: 54 63<0 283 0 465> 275 62<0 338 0 340 0 372.5>
LayerCount: 2
Fore
SplineSet
89 639 m 1xb8
 157 639 l 1
 196 566 l 1
 235 639 l 1
 304 639 l 1
 227 520 l 1
 162 520 l 1
 89 639 l 1xb8
224 476 m 0
 294 476 337 439 337 338 c 2
 337 0 l 1
 275 0 l 1
 275 340 l 2
 275 405 247 420 208 420 c 0xb8
 160 420 117 371 117 283 c 2
 117 0 l 1
 54 0 l 1
 54 465 l 1
 99 465 l 1x78
 109 412 l 1
 114 412 l 1
 141 461 181 476 224 476 c 0
EndSplineSet
EndChar

StartChar: ncommaaccent
Encoding: 326 326 199
Width: 391
GlyphClass: 2
Flags: MW
HStem: -126 72<163 189 163 229> 420 56<202.5 227.5> 445 20G<54 99 99 99>
VStem: 54 63<0 283 0 465> 163 66<-121 -54 -121 -54 -121 -54> 275 62<0 338 0 340 0 372.5>
LayerCount: 2
Fore
SplineSet
224 476 m 0xdc
 294 476 337 439 337 338 c 2
 337 0 l 1
 275 0 l 1
 275 340 l 2
 275 405 247 420 208 420 c 0xdc
 160 420 117 371 117 283 c 2
 117 0 l 1
 54 0 l 1
 54 465 l 1
 99 465 l 1xbc
 109 412 l 1
 114 412 l 1
 141 461 181 476 224 476 c 0xdc
173 -185 m 1
 189 -126 l 1
 163 -126 l 1
 163 -54 l 1
 229 -54 l 1
 229 -121 l 1
 208 -185 l 1
 173 -185 l 1
EndSplineSet
EndChar

StartChar: eng
Encoding: 331 331 200
Width: 391
GlyphClass: 2
Flags: MW
HStem: -161 53<240 246.5 194 283.5> 420 56<202.5 227.5> 445 20G<54 99 99 99>
VStem: 54 63<0 283 0 465> 275 62<-65 -59 -59 338>
LayerCount: 2
Fore
SplineSet
224 476 m 0xd8
 294 476 337 439 337 338 c 2
 337 -59 l 2
 337 -110 317 -161 250 -161 c 0
 230 -161 208 -156 194 -150 c 1
 194 -108 l 1
 233 -108 l 2
 260 -108 275 -93 275 -65 c 2
 275 340 l 2
 275 405 247 420 208 420 c 0xd8
 160 420 117 371 117 283 c 2
 117 0 l 1
 54 0 l 1
 54 465 l 1
 99 465 l 1xb8
 109 412 l 1
 114 412 l 1
 141 461 181 476 224 476 c 0xd8
EndSplineSet
EndChar

StartChar: ntilde
Encoding: 241 241 201
Width: 391
GlyphClass: 2
Flags: MW
HStem: 420 56<202.5 227.5> 445 20G<54 99 99 99> 552 62<228.5 248 224 272.5> 578 61<142.5 162.5 119 166.5>
VStem: 54 63<0 283 0 465> 275 62<0 338 0 340 0 372.5>
LayerCount: 2
Fore
SplineSet
269 639 m 1x9c
 320 639 l 1x9c
 320 600 298 552 247 552 c 0xac
 210 552 183 578 150 578 c 0x9c
 135 578 123 572 122 552 c 1
 72 552 l 1
 72 590 94 639 144 639 c 0
 181 639 208 614 240 614 c 0xac
 256 614 268 620 269 639 c 1x9c
224 476 m 0
 294 476 337 439 337 338 c 2
 337 0 l 1
 275 0 l 1
 275 340 l 2
 275 405 247 420 208 420 c 0x9c
 160 420 117 371 117 283 c 2
 117 0 l 1
 54 0 l 1
 54 465 l 1
 99 465 l 1x5c
 109 412 l 1
 114 412 l 1
 141 461 181 476 224 476 c 0
EndSplineSet
EndChar

StartChar: o
Encoding: 111 111 202
Width: 391
GlyphClass: 2
Flags: MW
HStem: -11 58<164.5 227 164.5 247.5> 418 58<164.5 227>
VStem: 35 65<160 216 216 249 160 316> 291 65<216 249 249 305>
AnchorPoint: "Anchor-1" 0 0 basechar 0
AnchorPoint: "Anchor-0" 196 465 basechar 0
LayerCount: 2
Fore
SplineSet
196 476 m 0
 299 476 356 400 356 232 c 0
 356 65 299 -11 196 -11 c 0
 92 -11 35 65 35 232 c 0
 35 400 92 476 196 476 c 0
196 418 m 0
 133 418 100 361 100 249 c 2
 100 216 l 2
 100 104 133 47 196 47 c 0
 258 47 291 104 291 216 c 2
 291 249 l 2
 291 361 258 418 196 418 c 0
EndSplineSet
Substitution2: "Single Substitution lookup 21 subtable" ordmasculine
Substitution2: "'aalt' Access All Alternates lookup 0 subtable" ordmasculine
EndChar

StartChar: oacute
Encoding: 243 243 203
Width: 391
GlyphClass: 2
Flags: MW
HStem: -11 58<164.5 227 164.5 247.5> 418 58<164.5 227> 522 117<145 293 145 293>
VStem: 35 65<160 216 216 249 160 316> 291 65<216 249 249 305>
LayerCount: 2
Fore
SplineSet
199 522 m 1
 145 522 l 1
 221 639 l 1
 293 639 l 1
 294 636 l 1
 199 522 l 1
196 476 m 0
 299 476 356 400 356 232 c 0
 356 65 299 -11 196 -11 c 0
 92 -11 35 65 35 232 c 0
 35 400 92 476 196 476 c 0
196 418 m 0
 133 418 100 361 100 249 c 2
 100 216 l 2
 100 104 133 47 196 47 c 0
 258 47 291 104 291 216 c 2
 291 249 l 2
 291 361 258 418 196 418 c 0
EndSplineSet
EndChar

StartChar: obreve
Encoding: 335 335 204
Width: 391
GlyphClass: 2
Flags: MW
HStem: -11 58<164.5 227 164.5 247.5> 418 58<164.5 227> 555 55<180.5 211 180.5 229.5> 555 84<89 229.5>
VStem: 35 65<160 216 216 249 160 316> 291 65<216 249 249 305>
LayerCount: 2
Fore
SplineSet
249 639 m 1xdc
 303 639 l 1xdc
 303 600 263 555 196 555 c 0xec
 130 555 89 600 89 639 c 1
 143 639 l 1xdc
 146 627 165 610 196 610 c 0xec
 226 610 247 627 249 639 c 1xdc
196 476 m 0
 299 476 356 400 356 232 c 0
 356 65 299 -11 196 -11 c 0
 92 -11 35 65 35 232 c 0
 35 400 92 476 196 476 c 0
196 418 m 0
 133 418 100 361 100 249 c 2
 100 216 l 2
 100 104 133 47 196 47 c 0
 258 47 291 104 291 216 c 2
 291 249 l 2
 291 361 258 418 196 418 c 0
EndSplineSet
EndChar

StartChar: ocircumflex
Encoding: 244 244 205
Width: 391
GlyphClass: 2
Flags: MW
HStem: -11 58<164.5 227 164.5 247.5> 418 58<164.5 227> 519 119<89 229 89 229 163 235 163 304> 591 47<196 196>
VStem: 35 65<160 216 216 249 160 316> 291 65<216 249 249 305>
LayerCount: 2
Fore
SplineSet
196 591 m 1xdc
 157 519 l 1
 89 519 l 1
 163 638 l 1
 229 638 l 1
 304 519 l 1
 235 519 l 1xec
 196 591 l 1xdc
196 476 m 0
 299 476 356 400 356 232 c 0
 356 65 299 -11 196 -11 c 0
 92 -11 35 65 35 232 c 0
 35 400 92 476 196 476 c 0
196 418 m 0
 133 418 100 361 100 249 c 2
 100 216 l 2
 100 104 133 47 196 47 c 0
 258 47 291 104 291 216 c 2
 291 249 l 2
 291 361 258 418 196 418 c 0
EndSplineSet
EndChar

StartChar: odieresis
Encoding: 246 246 206
Width: 391
GlyphClass: 2
Flags: MW
HStem: -11 58<164.5 227 164.5 247.5> 418 58<164.5 227> 559 80<95 169 95 169 221 296 95 221>
VStem: 35 65<160 216 216 249 160 316> 95 74<559 639 559 639> 221 75<559 639 559 639> 291 65<216 249 249 305>
LayerCount: 2
Fore
SplineSet
95 559 m 1xec
 95 639 l 1
 169 639 l 1
 169 559 l 1
 95 559 l 1xec
221 559 m 1
 221 639 l 1
 296 639 l 1
 296 559 l 1
 221 559 l 1
196 476 m 0xf2
 299 476 356 400 356 232 c 0
 356 65 299 -11 196 -11 c 0
 92 -11 35 65 35 232 c 0
 35 400 92 476 196 476 c 0xf2
196 418 m 0
 133 418 100 361 100 249 c 2
 100 216 l 2
 100 104 133 47 196 47 c 0
 258 47 291 104 291 216 c 2
 291 249 l 2
 291 361 258 418 196 418 c 0
EndSplineSet
EndChar

StartChar: ograve
Encoding: 242 242 207
Width: 391
GlyphClass: 2
Flags: MW
HStem: -11 58<164.5 227 164.5 247.5> 418 58<164.5 227> 522 117<97 194 97 247>
VStem: 35 65<160 216 216 249 160 316> 291 65<216 249 249 305>
LayerCount: 2
Fore
SplineSet
194 522 m 1
 96 636 l 1
 97 639 l 1
 171 639 l 1
 247 522 l 1
 194 522 l 1
196 476 m 0
 299 476 356 400 356 232 c 0
 356 65 299 -11 196 -11 c 0
 92 -11 35 65 35 232 c 0
 35 400 92 476 196 476 c 0
196 418 m 0
 133 418 100 361 100 249 c 2
 100 216 l 2
 100 104 133 47 196 47 c 0
 258 47 291 104 291 216 c 2
 291 249 l 2
 291 361 258 418 196 418 c 0
EndSplineSet
EndChar

StartChar: ohungarumlaut
Encoding: 337 337 208
Width: 391
GlyphClass: 2
Flags: MW
HStem: -11 58<164.5 227 164.5 247.5> 418 58<164.5 227> 522 117<79 210 133 137 319 323 133 264>
VStem: 35 65<160 216 216 249 160 316> 291 65<216 249 249 305>
LayerCount: 2
Fore
SplineSet
79 522 m 1
 133 639 l 1
 210 639 l 1
 211 636 l 1
 137 522 l 1
 79 522 l 1
264 522 m 1
 319 639 l 1
 397 639 l 1
 398 636 l 1
 323 522 l 1
 264 522 l 1
196 476 m 0
 299 476 356 400 356 232 c 0
 356 65 299 -11 196 -11 c 0
 92 -11 35 65 35 232 c 0
 35 400 92 476 196 476 c 0
196 418 m 0
 133 418 100 361 100 249 c 2
 100 216 l 2
 100 104 133 47 196 47 c 0
 258 47 291 104 291 216 c 2
 291 249 l 2
 291 361 258 418 196 418 c 0
EndSplineSet
EndChar

StartChar: omacron
Encoding: 333 333 209
Width: 391
GlyphClass: 2
Flags: MW
HStem: -11 58<164.5 227 164.5 247.5> 418 58<164.5 227> 530 59<86 307 86 307>
VStem: 35 65<160 216 216 249 160 316> 86 221<530 589 530 589> 291 65<216 249 249 305>
LayerCount: 2
Fore
SplineSet
86 589 m 1xe8
 307 589 l 1
 307 530 l 1
 86 530 l 1
 86 589 l 1xe8
196 476 m 0xf4
 299 476 356 400 356 232 c 0
 356 65 299 -11 196 -11 c 0
 92 -11 35 65 35 232 c 0
 35 400 92 476 196 476 c 0xf4
196 418 m 0
 133 418 100 361 100 249 c 2
 100 216 l 2
 100 104 133 47 196 47 c 0
 258 47 291 104 291 216 c 2
 291 249 l 2
 291 361 258 418 196 418 c 0
EndSplineSet
EndChar

StartChar: oslash
Encoding: 248 248 210
Width: 443
GlyphClass: 2
Flags: MW
HStem: -11 58<207.5 251.5 207.5 273> 418 58<190 234>
VStem: 61 65<196.5 216 216 249> 315 66<216 249 249 268.5>
AnchorPoint: "Anchor-1" 0 0 basechar 0
AnchorPoint: "Anchor-0" 222 465 basechar 0
LayerCount: 2
Fore
SplineSet
384 493 m 1
 341 414 l 1
 368 376 381 315 381 232 c 0
 381 65 325 -11 221 -11 c 0
 183 -11 151 -1 126 20 c 1
 100 -28 l 1
 58 -28 l 1
 99 50 l 1
 74 89 61 150 61 232 c 0
 61 400 116 476 221 476 c 0
 259 476 290 466 315 445 c 1
 342 493 l 1
 384 493 l 1
221 418 m 0
 159 418 126 361 126 249 c 2
 126 216 l 2
 126 177 129 144 137 118 c 1
 284 389 l 1
 267 408 247 418 221 418 c 0
303 345 m 1
 158 76 l 1
 173 57 194 47 221 47 c 0
 282 47 315 104 315 216 c 2
 315 249 l 2
 315 288 312 320 303 345 c 1
EndSplineSet
EndChar

StartChar: oslashacute
Encoding: 511 511 211
Width: 443
GlyphClass: 2
Flags: MW
HStem: -11 58<207.5 251.5 207.5 273> 418 58<190 234> 522 117<171 318 171 318>
VStem: 61 65<196.5 216 216 249> 315 66<216 249 249 268.5>
LayerCount: 2
Fore
SplineSet
225 522 m 1
 171 522 l 1
 247 639 l 1
 318 639 l 1
 319 636 l 1
 225 522 l 1
384 493 m 1
 341 414 l 1
 368 376 381 315 381 232 c 0
 381 65 325 -11 221 -11 c 0
 183 -11 151 -1 126 20 c 1
 100 -28 l 1
 58 -28 l 1
 99 50 l 1
 74 89 61 150 61 232 c 0
 61 400 116 476 221 476 c 0
 259 476 290 466 315 445 c 1
 342 493 l 1
 384 493 l 1
221 418 m 0
 159 418 126 361 126 249 c 2
 126 216 l 2
 126 177 129 144 137 118 c 1
 284 389 l 1
 267 408 247 418 221 418 c 0
303 345 m 1
 158 76 l 1
 173 57 194 47 221 47 c 0
 282 47 315 104 315 216 c 2
 315 249 l 2
 315 288 312 320 303 345 c 1
EndSplineSet
EndChar

StartChar: otilde
Encoding: 245 245 212
Width: 391
GlyphClass: 2
Flags: MW
HStem: -11 58<164.5 227 164.5 247.5> 418 58<164.5 227> 552 62<228.5 248 224 272.5> 578 61<142.5 162.5 119 166.5>
VStem: 35 65<160 216 216 249 160 316> 291 65<216 249 249 305>
LayerCount: 2
Fore
SplineSet
269 639 m 1xdc
 320 639 l 1xdc
 320 600 298 552 247 552 c 0xec
 210 552 183 578 150 578 c 0xdc
 135 578 123 572 122 552 c 1
 72 552 l 1
 72 590 94 639 144 639 c 0
 181 639 208 614 240 614 c 0xec
 256 614 268 620 269 639 c 1xdc
196 476 m 0
 299 476 356 400 356 232 c 0
 356 65 299 -11 196 -11 c 0
 92 -11 35 65 35 232 c 0
 35 400 92 476 196 476 c 0
196 418 m 0
 133 418 100 361 100 249 c 2
 100 216 l 2
 100 104 133 47 196 47 c 0
 258 47 291 104 291 216 c 2
 291 249 l 2
 291 361 258 418 196 418 c 0
EndSplineSet
EndChar

StartChar: oe
Encoding: 339 339 213
Width: 684
GlyphClass: 2
Flags: MW
HStem: -11 58<179.5 239.5> 212 62<374 564 374 630 373 564> 418 58<179.5 239.5 158 241>
VStem: 50 66<160 216 216 249 160 316> 305 68<212 249 212 305> 564 66
AnchorPoint: "Anchor-1" 0 0 basechar 0
AnchorPoint: "Anchor-0" 342 465 basechar 0
LayerCount: 2
Fore
SplineSet
481 476 m 0
 580 476 630 417 630 264 c 2
 630 212 l 1
 373 212 l 1
 374 97 410 48 484 48 c 0
 533 48 567 90 567 156 c 1
 630 156 l 1
 630 57 570 -11 481 -11 c 0
 416 -11 367 11 339 60 c 1
 313 12 269 -11 210 -11 c 0
 106 -11 50 65 50 232 c 0
 50 400 106 476 210 476 c 0
 269 476 313 452 339 405 c 1
 368 452 415 476 481 476 c 0
210 418 m 0
 149 418 116 361 116 249 c 2
 116 216 l 2
 116 104 149 47 210 47 c 0
 272 47 305 104 305 216 c 2
 305 249 l 2
 305 361 272 418 210 418 c 0
481 417 m 0
 410 417 381 369 374 274 c 1
 564 274 l 1
 564 368 534 417 481 417 c 0
EndSplineSet
EndChar

StartChar: p
Encoding: 112 112 214
Width: 391
GlyphClass: 2
Flags: MW
HStem: -11 56<197 232 175.5 257> 420 56<193 232> 445 20G<54 99 99 99>
VStem: 54 63<-153 39 159 216 216 249> 291 66<216 249 249 311.5>
LayerCount: 2
Fore
SplineSet
214 476 m 0xd8
 301 476 357 403 357 232 c 0
 357 63 295 -11 219 -11 c 0
 175 -11 137 8 121 39 c 1
 117 39 l 1
 117 -153 l 1
 54 -153 l 1
 54 465 l 1
 99 465 l 1xb8
 109 412 l 1
 113 412 l 1
 135 453 172 476 214 476 c 0xd8
204 420 m 0
 147 420 117 363 117 249 c 2
 117 216 l 2
 117 102 147 45 204 45 c 0
 260 45 291 91 291 216 c 2
 291 249 l 2
 291 374 260 420 204 420 c 0
EndSplineSet
EndChar

StartChar: thorn
Encoding: 254 254 215
Width: 391
GlyphClass: 2
Flags: MW
HStem: -11 56<197 232 175.5 257> 420 56<194 232> 619 20G<54 117 117 117>
VStem: 54 63<-153 39 159 216 216 249 429 639> 291 66<216 249 249 311.5>
LayerCount: 2
Fore
SplineSet
117 429 m 1
 122 428 l 1
 140 456 174 476 214 476 c 0
 301 476 357 403 357 232 c 0
 357 63 295 -11 219 -11 c 0
 175 -11 137 8 121 39 c 1
 117 39 l 1
 117 -153 l 1
 54 -153 l 1
 54 639 l 1
 117 639 l 1
 117 429 l 1
204 420 m 0
 147 420 117 363 117 249 c 2
 117 216 l 2
 117 102 147 45 204 45 c 0
 260 45 291 91 291 216 c 2
 291 249 l 2
 291 374 260 420 204 420 c 0
EndSplineSet
EndChar

StartChar: q
Encoding: 113 113 216
Width: 391
GlyphClass: 2
Flags: MW
HStem: -11 56<159 194.5> 420 56<159 198.5 133.5 215.5> 445 20G<292 337 337 337>
VStem: 35 65<153.5 216 216 249 153.5 317.5> 275 62<-153 39 39 39 216 249 249 306>
LayerCount: 2
Fore
SplineSet
177 476 m 0xd8
 220 476 256 453 278 412 c 1
 283 412 l 1xd8
 292 465 l 1
 337 465 l 1xb8
 337 -153 l 1
 275 -153 l 1
 275 39 l 1
 270 39 l 1
 254 8 217 -11 172 -11 c 0
 97 -11 35 63 35 232 c 0
 35 403 90 476 177 476 c 0xd8
187 420 m 0
 131 420 100 374 100 249 c 2
 100 216 l 2
 100 91 131 45 187 45 c 0
 244 45 275 102 275 216 c 2
 275 249 l 2
 275 363 244 420 187 420 c 0
EndSplineSet
EndChar

StartChar: r
Encoding: 114 114 217
Width: 229
GlyphClass: 2
Flags: MW
HStem: 401 75<180 200.5 170 203 170 223> 445 20G<54 99 99 99> 449 20G<223 223>
VStem: 54 63<0 291 0 465>
AnchorPoint: "Anchor-1" 115 0 basechar 0
AnchorPoint: "Anchor-0" 115 465 basechar 0
LayerCount: 2
Fore
SplineSet
192 476 m 0x90
 209 476 223 469 223 469 c 1x30
 223 401 l 1
 203 401 l 2x90
 157 401 117 373 117 291 c 2
 117 0 l 1
 54 0 l 1
 54 465 l 1
 99 465 l 1x50
 109 406 l 1
 114 406 l 1
 124 440 148 476 192 476 c 0x90
EndSplineSet
EndChar

StartChar: racute
Encoding: 341 341 218
Width: 229
GlyphClass: 2
Flags: MW
HStem: 401 75<180 200.5 170 203 170 223> 445 20G<54 99 99 99> 449 20G<223 223> 522 117<27 175 27 175>
VStem: 54 63<0 291 0 465>
LayerCount: 2
Fore
SplineSet
81 522 m 1x38
 27 522 l 1
 103 639 l 1
 175 639 l 1
 176 636 l 1
 81 522 l 1x38
192 476 m 0x98
 209 476 223 469 223 469 c 1x38
 223 401 l 1
 203 401 l 2x98
 157 401 117 373 117 291 c 2
 117 0 l 1
 54 0 l 1
 54 465 l 1
 99 465 l 1x58
 109 406 l 1
 114 406 l 1
 124 440 148 476 192 476 c 0x98
EndSplineSet
EndChar

StartChar: rcaron
Encoding: 345 345 219
Width: 229
GlyphClass: 2
Flags: MW
HStem: 401 75<180 200.5 170 203 170 223> 445 20G<54 99 99 99> 449 20G<223 223> 520 119<2 142 2 78>
VStem: 54 63<0 291 0 465>
LayerCount: 2
Fore
SplineSet
2 639 m 1x38
 72 639 l 1
 111 566 l 1
 151 639 l 1
 218 639 l 1
 142 520 l 1
 78 520 l 1
 2 639 l 1x38
192 476 m 0x98
 209 476 223 469 223 469 c 1x38
 223 401 l 1
 203 401 l 2x98
 157 401 117 373 117 291 c 2
 117 0 l 1
 54 0 l 1
 54 465 l 1
 99 465 l 1x58
 109 406 l 1
 114 406 l 1
 124 440 148 476 192 476 c 0x98
EndSplineSet
EndChar

StartChar: rcommaaccent
Encoding: 343 343 220
Width: 229
GlyphClass: 2
Flags: MW
HStem: -126 72<60 87 60 126> 401 75<180 200.5 170 203 170 223> 445 20G<54 99 99 99> 449 20G<223 223>
VStem: 54 63<0 291 0 465> 60 66<-121 -54 -121 -54 -121 -54>
LayerCount: 2
Fore
SplineSet
192 476 m 0xc8
 209 476 223 469 223 469 c 1x98
 223 401 l 1
 203 401 l 2xc8
 157 401 117 373 117 291 c 2
 117 0 l 1
 54 0 l 1
 54 465 l 1
 99 465 l 1xa8
 109 406 l 1
 114 406 l 1
 124 440 148 476 192 476 c 0xc8
70 -185 m 1x94
 87 -126 l 1
 60 -126 l 1
 60 -54 l 1
 126 -54 l 1
 126 -121 l 1
 105 -185 l 1
 70 -185 l 1x94
EndSplineSet
EndChar

StartChar: s
Encoding: 115 115 221
Width: 350
GlyphClass: 2
Flags: MW
HStem: -11 57<153.5 196.5 153.5 213.5> 419 57<143 199>
VStem: 29 68<91 144> 41 65<297 362 297 385> 239 67<332 380.5 341 380.5> 249 65<97.5 182>
AnchorPoint: "Anchor-1" 175 0 basechar 0
AnchorPoint: "Anchor-0" 175 465 basechar 0
LayerCount: 2
Fore
SplineSet
180 476 m 0xd8
 265 476 306 413 306 348 c 0
 306 343 305 334 305 332 c 2
 239 332 l 1
 239 341 l 2xe8
 240 378 226 419 172 419 c 0
 114 419 106 375 106 349 c 0xd4
 106 245 314 301 314 131 c 0
 314 35 254 -11 173 -11 c 0
 66 -11 29 59 29 123 c 0
 29 137 30 142 30 144 c 2
 97 144 l 1
 97 135 l 2xe4
 96 74 131 46 176 46 c 0
 217 46 249 74 249 121 c 0xd4
 249 243 41 182 41 346 c 0
 41 424 92 476 180 476 c 0xd8
EndSplineSet
EndChar

StartChar: sacute
Encoding: 347 347 222
Width: 350
GlyphClass: 2
Flags: MW
HStem: -11 57<153.5 196.5 153.5 213.5> 419 57<143 199> 522 117<125 273 125 273>
VStem: 29 68<91 144> 41 65<297 362 297 385> 239 67<332 380.5 341 380.5> 249 65<97.5 182>
LayerCount: 2
Fore
SplineSet
179 522 m 1xf2
 125 522 l 1
 200 639 l 1
 273 639 l 1
 274 636 l 1
 179 522 l 1xf2
180 476 m 0xec
 265 476 306 413 306 348 c 0
 306 343 305 334 305 332 c 2
 239 332 l 1
 239 341 l 2xf4
 240 378 226 419 172 419 c 0
 114 419 106 375 106 349 c 0xea
 106 245 314 301 314 131 c 0
 314 35 254 -11 173 -11 c 0
 66 -11 29 59 29 123 c 0
 29 137 30 142 30 144 c 2
 97 144 l 1
 97 135 l 2xf2
 96 74 131 46 176 46 c 0
 217 46 249 74 249 121 c 0xea
 249 243 41 182 41 346 c 0
 41 424 92 476 180 476 c 0xec
EndSplineSet
EndChar

StartChar: scaron
Encoding: 353 353 223
Width: 350
GlyphClass: 2
Flags: MW
HStem: -11 57<153.5 196.5 153.5 213.5> 419 57<143 199> 520 119<69 143 69 207>
VStem: 29 68<91 144> 41 65<297 362 297 385> 239 67<332 380.5 341 380.5> 249 65<97.5 182>
LayerCount: 2
Fore
SplineSet
143 520 m 1xf2
 69 639 l 1
 136 639 l 1
 175 566 l 1
 215 639 l 1
 283 639 l 1
 207 520 l 1
 143 520 l 1xf2
180 476 m 0xec
 265 476 306 413 306 348 c 0
 306 343 305 334 305 332 c 2
 239 332 l 1
 239 341 l 2xf4
 240 378 226 419 172 419 c 0
 114 419 106 375 106 349 c 0xea
 106 245 314 301 314 131 c 0
 314 35 254 -11 173 -11 c 0
 66 -11 29 59 29 123 c 0
 29 137 30 142 30 144 c 2
 97 144 l 1
 97 135 l 2xf2
 96 74 131 46 176 46 c 0
 217 46 249 74 249 121 c 0xea
 249 243 41 182 41 346 c 0
 41 424 92 476 180 476 c 0xec
EndSplineSet
EndChar

StartChar: scedilla
Encoding: 351 351 224
Width: 350
GlyphClass: 2
Flags: MW
HStem: -161 50<154.5 161 161 171 92 184.5> -68 35<134 186> 419 57<143 199>
VStem: 29 68<94 144> 41 65<297 362 297 385> 138.5 48.5 193 64<-97.5 -82> 239 67<332 380.5 341 380.5> 249 65<97.5 182>
LayerCount: 2
Fore
SplineSet
180 476 m 0xe9
 265 476 306 413 306 348 c 0
 306 343 305 334 305 332 c 2
 239 332 l 1
 239 341 l 2xf1
 240 378 226 419 172 419 c 0
 114 419 106 375 106 349 c 0
 106 245 314 301 314 131 c 0
 314 40 262 -4 188 -10 c 1xec80
 186 -33 l 1
 224 -35 257 -49 257 -89 c 0
 257 -149 203 -161 166 -161 c 0
 143 -161 113 -158 92 -154 c 1
 92 -111 l 1
 161 -111 l 2
 181 -111 193 -106 193 -89 c 0
 193 -75 186 -68 163 -68 c 2xf2
 134 -68 l 1
 143 -9 l 1
 59 3 29 65 29 123 c 0
 29 137 30 142 30 144 c 2
 97 144 l 1
 97 135 l 2xf480
 96 74 131 46 176 46 c 0
 217 46 249 74 249 121 c 0xe880
 249 243 41 182 41 346 c 0
 41 424 92 476 180 476 c 0xe9
EndSplineSet
Substitution2: "'locl' Localized Forms in Latin lookup 5 subtable" scommaaccent
Substitution2: "'locl' Localized Forms in Latin lookup 4 subtable" scommaaccent
Substitution2: "'aalt' Access All Alternates lookup 0 subtable" scommaaccent
EndChar

StartChar: scircumflex
Encoding: 349 349 225
Width: 350
GlyphClass: 2
Flags: MW
HStem: -11 57<153.5 196.5 153.5 213.5> 419 57<143 199> 519 119<69 208 69 208 145 283 145 215> 591 47<176 176>
VStem: 29 68<91 144> 41 65<297 362 297 385> 239 67<332 380.5 341 380.5> 249 65<97.5 182>
LayerCount: 2
Fore
SplineSet
215 519 m 1xe9
 176 591 l 1xd6
 136 519 l 1
 69 519 l 1
 145 638 l 1
 208 638 l 1
 283 519 l 1
 215 519 l 1xe9
180 476 m 0
 265 476 306 413 306 348 c 0
 306 343 305 334 305 332 c 2
 239 332 l 1
 239 341 l 2xea
 240 378 226 419 172 419 c 0
 114 419 106 375 106 349 c 0xe5
 106 245 314 301 314 131 c 0
 314 35 254 -11 173 -11 c 0
 66 -11 29 59 29 123 c 0
 29 137 30 142 30 144 c 2
 97 144 l 1
 97 135 l 2xe9
 96 74 131 46 176 46 c 0
 217 46 249 74 249 121 c 0xe5
 249 243 41 182 41 346 c 0
 41 424 92 476 180 476 c 0
EndSplineSet
EndChar

StartChar: scommaaccent
Encoding: 537 537 226
Width: 350
GlyphClass: 2
Flags: MW
HStem: -126 72<142 168 142 207> -11 57<153.5 196.5 153.5 213.5> 419 57<143 199>
VStem: 29 68<91 144> 41 65<297 362 297 385> 142 65<-121 -54 -121 -54 -121 -54> 239 67<332 380.5 341 380.5> 249 65<97.5 182>
AnchorPoint: "Anchor-1" 175 0 basechar 0
AnchorPoint: "Anchor-0" 175 465 basechar 0
LayerCount: 2
Fore
SplineSet
180 476 m 0xee
 265 476 306 413 306 348 c 0
 306 343 305 334 305 332 c 2
 239 332 l 1
 239 341 l 2xf6
 240 378 226 419 172 419 c 0
 114 419 106 375 106 349 c 0xed
 106 245 314 301 314 131 c 0
 314 35 254 -11 173 -11 c 0
 66 -11 29 59 29 123 c 0
 29 137 30 142 30 144 c 2
 97 144 l 1
 97 135 l 2xf5
 96 74 131 46 176 46 c 0
 217 46 249 74 249 121 c 0xed
 249 243 41 182 41 346 c 0
 41 424 92 476 180 476 c 0xee
150 -185 m 1xf5
 168 -126 l 1
 142 -126 l 1
 142 -54 l 1
 207 -54 l 1
 207 -121 l 1
 185 -185 l 1
 150 -185 l 1xf5
EndSplineSet
EndChar

StartChar: germandbls
Encoding: 223 223 227
Width: 443
GlyphClass: 2
Flags: MW
HStem: 0 58<47 224 161 224 224 229 161 224> 316 54<161 215 215 224 161 215> 592 58<186 253.5>
VStem: 47 63<0 455 0 524.5> 323 65<455 515.5> 342 64<153.5 223 132 224.5>
LayerCount: 2
Fore
SplineSet
225 650 m 0xf8
 319 650 388 588 388 484 c 0xf8
 388 426 353 369 304 349 c 1
 304 346 l 1
 364 324 406 257 406 189 c 0
 406 75 328 0 229 0 c 2
 161 0 l 1
 161 58 l 1
 224 58 l 2
 289 58 342 117 342 190 c 0xf4
 342 259 289 316 224 316 c 2
 161 316 l 1
 161 370 l 1
 215 370 l 2
 275 370 323 421 323 482 c 0
 323 549 287 592 220 592 c 0
 152 592 110 546 110 455 c 2
 110 0 l 1
 47 0 l 1
 47 455 l 2
 47 594 126 650 225 650 c 0xf8
EndSplineSet
EndChar

StartChar: longs
Encoding: 383 383 228
Width: 149
GlyphClass: 2
Flags: MW
HStem: 407 58<8 47 8 47> 593 53<138.5 144 100.5 153 100.5 191>
VStem: 47 62<0 407 407 407 465 544 544 550 0 569.5>
LayerCount: 2
Fore
SplineSet
134 646 m 0
 154 646 176 641 191 636 c 1
 191 593 l 1
 153 593 l 2
 124 593 109 578 109 550 c 2
 109 0 l 1
 47 0 l 1
 47 407 l 1
 8 407 l 1
 8 465 l 1
 47 465 l 1
 47 544 l 2
 47 595 67 646 134 646 c 0
EndSplineSet
EndChar

StartChar: t
Encoding: 116 116 229
Width: 191
GlyphClass: 2
Flags: MW
HStem: -8 55<98 175> 407 58<13 51 13 51 114 175>
VStem: 51 63<93 407>
AnchorPoint: "Anchor-1" 110 0 basechar 0
AnchorPoint: "Anchor-0" 0 0 basechar 0
LayerCount: 2
Fore
SplineSet
175 407 m 1
 114 407 l 1
 114 90 l 2
 114 62 129 47 157 47 c 2
 175 47 l 1
 175 5 l 1
 164 -4 144 -8 126 -8 c 0
 70 -8 51 43 51 93 c 2
 51 407 l 1
 13 407 l 1
 13 465 l 1
 51 465 l 1
 67 593 l 1
 114 593 l 1
 114 465 l 1
 175 465 l 1
 175 407 l 1
EndSplineSet
EndChar

StartChar: tbar
Encoding: 359 359 230
Width: 191
GlyphClass: 2
Flags: MW
HStem: -8 55<98 175> 253 56<15 51 15 51 114 171> 407 58<13 51 13 51 114 175>
VStem: 51 63<93 253 309 407>
LayerCount: 2
Fore
SplineSet
175 465 m 1
 175 407 l 1
 114 407 l 1
 114 309 l 1
 171 309 l 1
 171 253 l 1
 114 253 l 1
 114 90 l 2
 114 62 129 47 157 47 c 2
 175 47 l 1
 175 5 l 1
 164 -4 144 -8 126 -8 c 0
 70 -8 51 43 51 93 c 2
 51 253 l 1
 15 253 l 1
 15 309 l 1
 51 309 l 1
 51 407 l 1
 13 407 l 1
 13 465 l 1
 51 465 l 1
 67 593 l 1
 114 593 l 1
 114 465 l 1
 175 465 l 1
EndSplineSet
EndChar

StartChar: tcaron
Encoding: 357 357 231
Width: 249
GlyphClass: 2
Flags: MW
HStem: -8 55<98 175> 407 58<13 51 13 51 114 175> 519 87<211 242 211 290>
VStem: 51 63<93 407> 211 79<526 606 526 606 526 606>
LayerCount: 2
Fore
SplineSet
207 408 m 1
 242 519 l 1
 211 519 l 1
 211 606 l 1
 290 606 l 1
 290 526 l 1
 248 408 l 1
 207 408 l 1
175 407 m 1
 114 407 l 1
 114 90 l 2
 114 62 129 47 157 47 c 2
 175 47 l 1
 175 5 l 1
 164 -4 144 -8 126 -8 c 0
 70 -8 51 43 51 93 c 2
 51 407 l 1
 13 407 l 1
 13 465 l 1
 51 465 l 1
 67 593 l 1
 114 593 l 1
 114 465 l 1
 175 465 l 1
 175 407 l 1
EndSplineSet
EndChar

StartChar: tcedilla
Encoding: 355 355 232
Width: 191
GlyphClass: 2
Flags: MW
HStem: -161 50<89.5 96 96 105.5 28 119.5> -68 35<69 120> -8 55<125 175 125 175> 407 58<13 51 13 51 114 175>
VStem: 51 63<93 407> 128 65<-97.5 -82>
AnchorPoint: "Anchor-1" 110 0 basechar 0
AnchorPoint: "Anchor-0" 0 0 basechar 0
LayerCount: 2
Fore
SplineSet
125 -8 m 1
 120 -33 l 1
 158 -35 193 -49 193 -89 c 0
 193 -149 137 -161 102 -161 c 0
 77 -161 49 -158 28 -154 c 1
 28 -111 l 1
 96 -111 l 2
 115 -111 128 -106 128 -89 c 0
 128 -75 121 -68 98 -68 c 2
 69 -68 l 1xdc
 82 7 l 1xd8
 59 26 51 60 51 93 c 2
 51 407 l 1
 13 407 l 1
 13 465 l 1
 51 465 l 1
 67 593 l 1
 114 593 l 1
 114 465 l 1
 175 465 l 1
 175 407 l 1
 114 407 l 1
 114 90 l 2
 114 62 129 47 157 47 c 2
 175 47 l 1
 175 5 l 1
 164 -4 144 -8 126 -8 c 2
 125 -8 l 1
EndSplineSet
Substitution2: "'locl' Localized Forms in Latin lookup 5 subtable" uni021B
Substitution2: "'locl' Localized Forms in Latin lookup 4 subtable" uni021B
Substitution2: "'aalt' Access All Alternates lookup 0 subtable" uni021B
EndChar

StartChar: uni021B
Encoding: 539 539 233
Width: 191
GlyphClass: 2
Flags: MW
HStem: -126 72<63 89 63 128> -8 55<98 175> 407 58<13 51 13 51 114 175>
VStem: 51 63<93 407> 63 65<-121 -54 -121 -54 -121 -54>
LayerCount: 2
Fore
SplineSet
175 407 m 1xf0
 114 407 l 1
 114 90 l 2
 114 62 129 47 157 47 c 2
 175 47 l 1
 175 5 l 1
 164 -4 144 -8 126 -8 c 0
 70 -8 51 43 51 93 c 2
 51 407 l 1
 13 407 l 1
 13 465 l 1
 51 465 l 1
 67 593 l 1
 114 593 l 1
 114 465 l 1
 175 465 l 1
 175 407 l 1xf0
72 -185 m 1xe8
 89 -126 l 1
 63 -126 l 1
 63 -54 l 1
 128 -54 l 1
 128 -121 l 1
 107 -185 l 1
 72 -185 l 1xe8
EndSplineSet
EndChar

StartChar: u
Encoding: 117 117 234
Width: 391
GlyphClass: 2
Flags: MW
HStem: -11 56<164.5 188.5> 445 20G<54 117 117 117 275 337 337 337>
VStem: 54 63<127 465> 275 62<182 465 0 465>
AnchorPoint: "Anchor-1" 0 0 basechar 0
AnchorPoint: "Anchor-0" 196 465 basechar 0
LayerCount: 2
Fore
SplineSet
283 53 m 1
 277 53 l 1
 252 4 210 -11 167 -11 c 0
 97 -11 54 26 54 127 c 2
 54 465 l 1
 117 465 l 1
 117 125 l 2
 117 60 145 45 184 45 c 0
 231 45 275 94 275 182 c 2
 275 465 l 1
 337 465 l 1
 337 0 l 1
 292 0 l 1
 283 53 l 1
EndSplineSet
EndChar

StartChar: uacute
Encoding: 250 250 235
Width: 391
GlyphClass: 2
Flags: MW
HStem: -11 56<164.5 188.5> 445 20G<54 117 117 117 275 337 337 337> 522 117<145 293 145 293>
VStem: 54 63<127 465> 275 62<182 465 0 465>
LayerCount: 2
Fore
SplineSet
199 522 m 1
 145 522 l 1
 221 639 l 1
 293 639 l 1
 294 636 l 1
 199 522 l 1
292 0 m 1
 283 53 l 1
 277 53 l 1
 252 4 210 -11 167 -11 c 0
 97 -11 54 26 54 127 c 2
 54 465 l 1
 117 465 l 1
 117 125 l 2
 117 60 145 45 184 45 c 0
 231 45 275 94 275 182 c 2
 275 465 l 1
 337 465 l 1
 337 0 l 1
 292 0 l 1
EndSplineSet
EndChar

StartChar: ubreve
Encoding: 365 365 236
Width: 391
GlyphClass: 2
Flags: MW
HStem: -11 56<164.5 188.5> 445 20G<54 117 117 117 275 337 337 337> 555 55<180.5 211 180.5 229.5> 555 84<89 229.5>
VStem: 54 63<127 465> 275 62<182 465 0 465>
LayerCount: 2
Fore
SplineSet
249 639 m 1xdc
 303 639 l 1xdc
 303 600 263 555 196 555 c 0xec
 130 555 89 600 89 639 c 1
 143 639 l 1xdc
 146 627 165 610 196 610 c 0xec
 226 610 247 627 249 639 c 1xdc
283 53 m 1
 277 53 l 1
 252 4 210 -11 167 -11 c 0
 97 -11 54 26 54 127 c 2
 54 465 l 1
 117 465 l 1
 117 125 l 2
 117 60 145 45 184 45 c 0
 231 45 275 94 275 182 c 2
 275 465 l 1
 337 465 l 1
 337 0 l 1
 292 0 l 1
 283 53 l 1
EndSplineSet
EndChar

StartChar: ucircumflex
Encoding: 251 251 237
Width: 391
GlyphClass: 2
Flags: MW
HStem: -11 56<164.5 188.5> 445 20G<54 117 117 117 275 337 337 337> 519 119<89 229 89 229 163 235 163 304> 591 47<196 196>
VStem: 54 63<127 465> 275 62<182 465 0 465>
LayerCount: 2
Fore
SplineSet
196 591 m 1xdc
 157 519 l 1
 89 519 l 1
 163 638 l 1
 229 638 l 1
 304 519 l 1
 235 519 l 1xec
 196 591 l 1xdc
283 53 m 1
 277 53 l 1
 252 4 210 -11 167 -11 c 0
 97 -11 54 26 54 127 c 2
 54 465 l 1
 117 465 l 1
 117 125 l 2
 117 60 145 45 184 45 c 0
 231 45 275 94 275 182 c 2
 275 465 l 1
 337 465 l 1
 337 0 l 1
 292 0 l 1
 283 53 l 1
EndSplineSet
EndChar

StartChar: udieresis
Encoding: 252 252 238
Width: 391
GlyphClass: 2
Flags: MW
HStem: -11 56<164.5 188.5> 445 20G<54 117 117 117 275 337 337 337> 559 80<95 169 95 169 221 296 95 221>
VStem: 54 63<127 465> 95 74<559 639 559 639> 221 75<559 639 559 639> 275 62<182 465 0 465>
LayerCount: 2
Fore
SplineSet
95 559 m 1xec
 95 639 l 1
 169 639 l 1
 169 559 l 1
 95 559 l 1xec
221 559 m 1
 221 639 l 1
 296 639 l 1
 296 559 l 1
 221 559 l 1
292 0 m 1xf2
 283 53 l 1
 277 53 l 1
 252 4 210 -11 167 -11 c 0
 97 -11 54 26 54 127 c 2
 54 465 l 1
 117 465 l 1
 117 125 l 2
 117 60 145 45 184 45 c 0
 231 45 275 94 275 182 c 2
 275 465 l 1
 337 465 l 1
 337 0 l 1
 292 0 l 1xf2
EndSplineSet
EndChar

StartChar: ugrave
Encoding: 249 249 239
Width: 391
GlyphClass: 2
Flags: MW
HStem: -11 56<164.5 188.5> 445 20G<54 117 117 117 275 337 337 337> 522 117<97 194 97 247>
VStem: 54 63<127 465> 275 62<182 465 0 465>
LayerCount: 2
Fore
SplineSet
194 522 m 1
 96 636 l 1
 97 639 l 1
 171 639 l 1
 247 522 l 1
 194 522 l 1
292 0 m 1
 283 53 l 1
 277 53 l 1
 252 4 210 -11 167 -11 c 0
 97 -11 54 26 54 127 c 2
 54 465 l 1
 117 465 l 1
 117 125 l 2
 117 60 145 45 184 45 c 0
 231 45 275 94 275 182 c 2
 275 465 l 1
 337 465 l 1
 337 0 l 1
 292 0 l 1
EndSplineSet
EndChar

StartChar: uhungarumlaut
Encoding: 369 369 240
Width: 391
GlyphClass: 2
Flags: MW
HStem: -11 56<164.5 188.5> 445 20G<54 117 117 117 275 337 337 337> 522 117<169 174 116 247 228 228 228 247 283 286>
VStem: 54 63<127 465> 275 62<182 465 0 465>
LayerCount: 2
Fore
SplineSet
174 522 m 1
 116 522 l 1
 169 639 l 1
 247 639 l 1
 248 636 l 1
 174 522 l 1
286 522 m 1
 228 522 l 1
 283 639 l 1
 361 639 l 1
 362 636 l 1
 286 522 l 1
292 0 m 1
 283 53 l 1
 277 53 l 1
 252 4 210 -11 167 -11 c 0
 97 -11 54 26 54 127 c 2
 54 465 l 1
 117 465 l 1
 117 125 l 2
 117 60 145 45 184 45 c 0
 231 45 275 94 275 182 c 2
 275 465 l 1
 337 465 l 1
 337 0 l 1
 292 0 l 1
EndSplineSet
EndChar

StartChar: umacron
Encoding: 363 363 241
Width: 391
GlyphClass: 2
Flags: MW
HStem: -11 56<164.5 188.5> 445 20G<54 117 117 117 275 337 337 337> 530 59<86 307 86 307>
VStem: 54 63<127 465> 275 62<182 465 0 465>
LayerCount: 2
Fore
SplineSet
86 589 m 1
 307 589 l 1
 307 530 l 1
 86 530 l 1
 86 589 l 1
283 53 m 1
 277 53 l 1
 252 4 210 -11 167 -11 c 0
 97 -11 54 26 54 127 c 2
 54 465 l 1
 117 465 l 1
 117 125 l 2
 117 60 145 45 184 45 c 0
 231 45 275 94 275 182 c 2
 275 465 l 1
 337 465 l 1
 337 0 l 1
 292 0 l 1
 283 53 l 1
EndSplineSet
EndChar

StartChar: uogonek
Encoding: 371 371 242
Width: 391
GlyphClass: 2
Flags: MW
HStem: -159 57<316.5 388> -11 56<164.5 188.5> 445 20G<54 117 117 117 275 337 337 337>
VStem: 54 63<127 465> 254 64<-66 -60> 275 62<182 465 0 465>
LayerCount: 2
Fore
SplineSet
388 -102 m 1xf8
 388 -147 l 1xf8
 369 -154 353 -159 335 -159 c 0
 298 -159 254 -140 254 -79 c 0
 254 -41 269 -16 286 4 c 1
 292 1 l 1
 283 53 l 1
 277 53 l 1
 252 4 210 -11 167 -11 c 0
 97 -11 54 26 54 127 c 2
 54 465 l 1
 117 465 l 1
 117 125 l 2
 117 60 145 45 184 45 c 0
 231 45 275 94 275 182 c 2
 275 465 l 1
 337 465 l 1
 337 0 l 1xf4
 327 -13 318 -33 318 -53 c 0
 318 -79 328 -102 358 -102 c 2
 388 -102 l 1xf8
EndSplineSet
EndChar

StartChar: uring
Encoding: 367 367 243
Width: 391
GlyphClass: 2
Flags: MW
HStem: -11 56<164.5 188.5> 445 20G<54 117 117 117 275 337 337 337> 497 39<183.5 207.5 183.5 219> 629 38<183.5 207.5>
VStem: 54 63<127 465> 111 38<571 596 571 606.5> 242 38<571 596> 275 62<182 465 0 465>
LayerCount: 2
Fore
SplineSet
196 667 m 0xf6
 243 667 280 628 280 584 c 0
 280 535 242 497 196 497 c 0
 150 497 111 534 111 584 c 0
 111 629 149 667 196 667 c 0xf6
196 629 m 0
 171 629 149 608 149 584 c 0
 149 558 171 536 196 536 c 0
 219 536 242 558 242 584 c 0
 242 608 219 629 196 629 c 0
283 53 m 1xf9
 277 53 l 1
 252 4 210 -11 167 -11 c 0
 97 -11 54 26 54 127 c 2
 54 465 l 1
 117 465 l 1
 117 125 l 2
 117 60 145 45 184 45 c 0
 231 45 275 94 275 182 c 2
 275 465 l 1
 337 465 l 1
 337 0 l 1
 292 0 l 1
 283 53 l 1xf9
EndSplineSet
EndChar

StartChar: utilde
Encoding: 361 361 244
Width: 391
GlyphClass: 2
Flags: MW
HStem: -11 56<164.5 188.5> 445 20G<54 117 117 117 275 337 337 337> 552 62<228.5 248 224 272.5> 578 61<142.5 162.5 119 166.5>
VStem: 54 63<127 465> 275 62<182 465 0 465>
LayerCount: 2
Fore
SplineSet
269 639 m 1xdc
 320 639 l 1xdc
 320 600 298 552 247 552 c 0xec
 210 552 183 578 150 578 c 0xdc
 135 578 123 572 122 552 c 1
 72 552 l 1
 72 590 94 639 144 639 c 0
 181 639 208 614 240 614 c 0xec
 256 614 268 620 269 639 c 1xdc
283 53 m 1
 277 53 l 1
 252 4 210 -11 167 -11 c 0
 97 -11 54 26 54 127 c 2
 54 465 l 1
 117 465 l 1
 117 125 l 2
 117 60 145 45 184 45 c 0
 231 45 275 94 275 182 c 2
 275 465 l 1
 337 465 l 1
 337 0 l 1
 292 0 l 1
 283 53 l 1
EndSplineSet
EndChar

StartChar: v
Encoding: 118 118 245
Width: 350
GlyphClass: 2
Flags: MW
HStem: 0 107<140 181 177 181 177 211> 445 20G<10 80 80 80 277 340 340 340>
VStem: 10 330<465 465>
LayerCount: 2
Fore
SplineSet
140 0 m 1
 10 465 l 1
 80 465 l 1
 145 216 l 2
 155 179 166 144 177 107 c 1
 181 107 l 1
 190 142 203 178 212 213 c 2
 277 465 l 1
 340 465 l 1
 211 0 l 1
 140 0 l 1
EndSplineSet
EndChar

StartChar: w
Encoding: 119 119 246
Width: 511
GlyphClass: 2
Flags: MW
HStem: 0 83<153 157 153 190 118 157 359 362> 382 83<253 257 253 253>
VStem: 1 509<465 465>
AnchorPoint: "Anchor-1" 0 0 basechar 0
AnchorPoint: "Anchor-0" 256 465 basechar 0
LayerCount: 2
Fore
SplineSet
319 0 m 1
 271 278 l 2
 262 326 257 382 257 382 c 1
 253 382 l 1
 253 382 248 327 239 277 c 2
 190 0 l 1
 118 0 l 1
 1 465 l 1
 72 465 l 1
 135 182 l 2
 143 151 153 83 153 83 c 1
 157 83 l 1
 157 83 163 141 170 182 c 2
 219 465 l 1
 296 465 l 1
 347 183 l 2
 354 135 359 83 359 83 c 1
 362 83 l 1
 362 83 367 129 380 183 c 2
 443 465 l 1
 510 465 l 1
 393 0 l 1
 319 0 l 1
EndSplineSet
EndChar

StartChar: wacute
Encoding: 7811 7811 247
Width: 511
GlyphClass: 2
Flags: MW
HStem: 0 83<153 157 153 190 118 157 359 362> 382 83<253 257 253 253> 522 117<205 352 205 352>
VStem: 1 509<465 465>
LayerCount: 2
Fore
SplineSet
260 522 m 1
 205 522 l 1
 281 639 l 1
 352 639 l 1
 353 636 l 1
 260 522 l 1
319 0 m 1
 271 278 l 2
 262 326 257 382 257 382 c 1
 253 382 l 1
 253 382 248 327 239 277 c 2
 190 0 l 1
 118 0 l 1
 1 465 l 1
 72 465 l 1
 135 182 l 2
 143 151 153 83 153 83 c 1
 157 83 l 1
 157 83 163 141 170 182 c 2
 219 465 l 1
 296 465 l 1
 347 183 l 2
 354 135 359 83 359 83 c 1
 362 83 l 1
 362 83 367 129 380 183 c 2
 443 465 l 1
 510 465 l 1
 393 0 l 1
 319 0 l 1
EndSplineSet
EndChar

StartChar: wcircumflex
Encoding: 373 373 248
Width: 511
GlyphClass: 2
Flags: MW
HStem: 0 83<153 157 153 190 118 157 359 362> 382 83<253 257 253 253> 519 119<147 287 147 287 223 295 223 363> 591 47<257 257>
VStem: 1 509<465 465>
LayerCount: 2
Fore
SplineSet
257 591 m 1xd8
 216 519 l 1
 147 519 l 1
 223 638 l 1
 287 638 l 1
 363 519 l 1
 295 519 l 1xe8
 257 591 l 1xd8
319 0 m 1
 271 278 l 2
 262 326 257 382 257 382 c 1
 253 382 l 1
 253 382 248 327 239 277 c 2
 190 0 l 1
 118 0 l 1
 1 465 l 1
 72 465 l 1
 135 182 l 2
 143 151 153 83 153 83 c 1
 157 83 l 1
 157 83 163 141 170 182 c 2
 219 465 l 1
 296 465 l 1
 347 183 l 2
 354 135 359 83 359 83 c 1
 362 83 l 1
 362 83 367 129 380 183 c 2
 443 465 l 1
 510 465 l 1
 393 0 l 1
 319 0 l 1
EndSplineSet
EndChar

StartChar: wdieresis
Encoding: 7813 7813 249
Width: 511
GlyphClass: 2
Flags: MW
HStem: 0 83<153 157 153 190 118 157 359 362> 382 83<253 257 253 253> 559 80<155 228 155 228 281 356 155 281>
VStem: 155 73<559 639 559 639> 281 75<559 639 559 639>
LayerCount: 2
Fore
SplineSet
155 559 m 1
 155 639 l 1
 228 639 l 1
 228 559 l 1
 155 559 l 1
281 559 m 1
 281 639 l 1
 356 639 l 1
 356 559 l 1
 281 559 l 1
319 0 m 1
 271 278 l 2
 262 326 257 382 257 382 c 1
 253 382 l 1
 253 382 248 327 239 277 c 2
 190 0 l 1
 118 0 l 1
 1 465 l 1
 72 465 l 1
 135 182 l 2
 143 151 153 83 153 83 c 1
 157 83 l 1
 157 83 163 141 170 182 c 2
 219 465 l 1
 296 465 l 1
 347 183 l 2
 354 135 359 83 359 83 c 1
 362 83 l 1
 362 83 367 129 380 183 c 2
 443 465 l 1
 510 465 l 1
 393 0 l 1
 319 0 l 1
EndSplineSet
EndChar

StartChar: wgrave
Encoding: 7809 7809 250
Width: 511
GlyphClass: 2
Flags: MW
HStem: 0 83<153 157 153 190 118 157 359 362> 382 83<253 257 253 253> 522 117<157 254 157 305>
VStem: 1 509<465 465>
LayerCount: 2
Fore
SplineSet
254 522 m 1
 156 636 l 1
 157 639 l 1
 231 639 l 1
 305 522 l 1
 254 522 l 1
319 0 m 1
 271 278 l 2
 262 326 257 382 257 382 c 1
 253 382 l 1
 253 382 248 327 239 277 c 2
 190 0 l 1
 118 0 l 1
 1 465 l 1
 72 465 l 1
 135 182 l 2
 143 151 153 83 153 83 c 1
 157 83 l 1
 157 83 163 141 170 182 c 2
 219 465 l 1
 296 465 l 1
 347 183 l 2
 354 135 359 83 359 83 c 1
 362 83 l 1
 362 83 367 129 380 183 c 2
 443 465 l 1
 510 465 l 1
 393 0 l 1
 319 0 l 1
EndSplineSet
EndChar

StartChar: x
Encoding: 120 120 251
Width: 350
GlyphClass: 2
Flags: MW
HStem: 445 20G<10 88 88 88 268 339 339 339>
VStem: 5 340<0 0>
LayerCount: 2
Fore
SplineSet
267 0 m 1
 173 175 l 1
 75 0 l 1
 5 0 l 1
 142 234 l 1
 10 465 l 1
 88 465 l 1
 175 299 l 1
 268 465 l 1
 339 465 l 1
 208 240 l 1
 345 0 l 1
 267 0 l 1
EndSplineSet
EndChar

StartChar: y
Encoding: 121 121 252
Width: 350
GlyphClass: 2
Flags: MW
HStem: -161 49<33 119> 445 20G<10 80 80 80 277 340 340 340>
VStem: 10 330<465 465>
AnchorPoint: "Anchor-1" 0 0 basechar 0
AnchorPoint: "Anchor-0" 175 465 basechar 0
LayerCount: 2
Fore
SplineSet
340 465 m 1
 225 24 l 2
 199 -78 158 -161 80 -161 c 0
 65 -161 52 -160 33 -154 c 1
 33 -112 l 1
 51 -112 l 2
 92 -112 130 -89 149 0 c 1
 10 465 l 1
 80 465 l 1
 147 220 l 2
 159 180 172 139 185 98 c 1
 188 98 l 1
 199 139 211 179 220 219 c 2
 277 465 l 1
 340 465 l 1
EndSplineSet
EndChar

StartChar: yacute
Encoding: 253 253 253
Width: 350
GlyphClass: 2
Flags: MW
HStem: -161 49<33 119> 445 20G<10 80 80 80 277 340 340 340> 522 117<125 273 125 273>
VStem: 10 330<465 465>
LayerCount: 2
Fore
SplineSet
179 522 m 1
 125 522 l 1
 200 639 l 1
 273 639 l 1
 274 636 l 1
 179 522 l 1
340 465 m 1
 225 24 l 2
 199 -78 158 -161 80 -161 c 0
 65 -161 52 -160 33 -154 c 1
 33 -112 l 1
 51 -112 l 2
 92 -112 130 -89 149 0 c 1
 10 465 l 1
 80 465 l 1
 147 220 l 2
 159 180 172 139 185 98 c 1
 188 98 l 1
 199 139 211 179 220 219 c 2
 277 465 l 1
 340 465 l 1
EndSplineSet
EndChar

StartChar: ycircumflex
Encoding: 375 375 254
Width: 350
GlyphClass: 2
Flags: MW
HStem: -161 49<33 119> 445 20G<10 80 80 80 277 340 340 340> 519 119<69 208 69 208 145 215 145 283> 591 47<176 176>
VStem: 10 330<465 465>
LayerCount: 2
Fore
SplineSet
176 591 m 1xd8
 136 519 l 1
 69 519 l 1
 145 638 l 1
 208 638 l 1
 283 519 l 1
 215 519 l 1xe8
 176 591 l 1xd8
340 465 m 1
 225 24 l 2
 199 -78 158 -161 80 -161 c 0
 65 -161 52 -160 33 -154 c 1
 33 -112 l 1
 51 -112 l 2
 92 -112 130 -89 149 0 c 1
 10 465 l 1
 80 465 l 1
 147 220 l 2
 159 180 172 139 185 98 c 1
 188 98 l 1
 199 139 211 179 220 219 c 2
 277 465 l 1
 340 465 l 1
EndSplineSet
EndChar

StartChar: ydieresis
Encoding: 255 255 255
Width: 350
GlyphClass: 2
Flags: MW
HStem: -161 49<33 119> 445 20G<10 80 80 80 277 340 340 340> 559 80<75 148 75 148 201 275 75 201>
VStem: 75 73<559 639 559 639> 201 74<559 639 559 639>
LayerCount: 2
Fore
SplineSet
75 559 m 1
 75 639 l 1
 148 639 l 1
 148 559 l 1
 75 559 l 1
201 559 m 1
 201 639 l 1
 275 639 l 1
 275 559 l 1
 201 559 l 1
340 465 m 1
 225 24 l 2
 199 -78 158 -161 80 -161 c 0
 65 -161 52 -160 33 -154 c 1
 33 -112 l 1
 51 -112 l 2
 92 -112 130 -89 149 0 c 1
 10 465 l 1
 80 465 l 1
 147 220 l 2
 159 180 172 139 185 98 c 1
 188 98 l 1
 199 139 211 179 220 219 c 2
 277 465 l 1
 340 465 l 1
EndSplineSet
EndChar

StartChar: ygrave
Encoding: 7923 7923 256
Width: 350
GlyphClass: 2
Flags: MW
HStem: -161 49<33 119> 445 20G<10 80 80 80 277 340 340 340> 522 117<77 172 77 225>
VStem: 10 330<465 465>
LayerCount: 2
Fore
SplineSet
172 522 m 1
 76 636 l 1
 77 639 l 1
 149 639 l 1
 225 522 l 1
 172 522 l 1
340 465 m 1
 225 24 l 2
 199 -78 158 -161 80 -161 c 0
 65 -161 52 -160 33 -154 c 1
 33 -112 l 1
 51 -112 l 2
 92 -112 130 -89 149 0 c 1
 10 465 l 1
 80 465 l 1
 147 220 l 2
 159 180 172 139 185 98 c 1
 188 98 l 1
 199 139 211 179 220 219 c 2
 277 465 l 1
 340 465 l 1
EndSplineSet
EndChar

StartChar: z
Encoding: 122 122 257
Width: 362
GlyphClass: 2
Flags: MW
HStem: 0 58<111 337 111 337> 407 58<40 236 40 323>
VStem: 25 312<0 31 31 31>
AnchorPoint: "Anchor-1" 0 0 basechar 0
AnchorPoint: "Anchor-0" 181 465 basechar 0
LayerCount: 2
Fore
SplineSet
337 58 m 1
 337 0 l 1
 25 0 l 1
 25 31 l 1
 236 407 l 1
 40 407 l 1
 40 465 l 1
 323 465 l 1
 323 434 l 1
 111 58 l 1
 337 58 l 1
EndSplineSet
EndChar

StartChar: zacute
Encoding: 378 378 258
Width: 362
GlyphClass: 2
Flags: MW
HStem: 0 58<111 337 111 337> 407 58<40 236 40 323> 522 117<132 279 132 279>
VStem: 25 312<0 31 31 31>
LayerCount: 2
Fore
SplineSet
185 522 m 1
 132 522 l 1
 206 639 l 1
 279 639 l 1
 280 636 l 1
 185 522 l 1
111 58 m 1
 337 58 l 1
 337 0 l 1
 25 0 l 1
 25 31 l 1
 236 407 l 1
 40 407 l 1
 40 465 l 1
 323 465 l 1
 323 434 l 1
 111 58 l 1
EndSplineSet
EndChar

StartChar: zcaron
Encoding: 382 382 259
Width: 362
GlyphClass: 2
Flags: MW
HStem: 0 58<111 337 111 337> 407 58<40 236 40 323> 520 119<75 213 75 149>
VStem: 25 312<0 31 31 31>
LayerCount: 2
Fore
SplineSet
75 639 m 1
 142 639 l 1
 181 566 l 1
 221 639 l 1
 289 639 l 1
 213 520 l 1
 149 520 l 1
 75 639 l 1
337 58 m 1
 337 0 l 1
 25 0 l 1
 25 31 l 1
 236 407 l 1
 40 407 l 1
 40 465 l 1
 323 465 l 1
 323 434 l 1
 111 58 l 1
 337 58 l 1
EndSplineSet
EndChar

StartChar: zdotaccent
Encoding: 380 380 260
Width: 362
GlyphClass: 2
Flags: MW
HStem: 0 58<111 337 111 337> 407 58<40 236 40 323> 560 79<146 217 146 217>
VStem: 146 71<560 639 560 639>
LayerCount: 2
Fore
SplineSet
146 639 m 1
 217 639 l 1
 217 560 l 1
 146 560 l 1
 146 639 l 1
337 58 m 1
 337 0 l 1
 25 0 l 1
 25 31 l 1
 236 407 l 1
 40 407 l 1
 40 465 l 1
 323 465 l 1
 323 434 l 1
 111 58 l 1
 337 58 l 1
EndSplineSet
EndChar

StartChar: fi
Encoding: 64257 64257 261
Width: 338
GlyphClass: 3
Flags: MW
HStem: 407 58<8 47 8 47 109 191> 555 84<233 295 233 295> 593 53<138.5 144 100.5 153 100.5 191>
VStem: 47 62<0 407 0 407 465 544 544 550> 233 62<0 465 0 465 555 639>
LayerCount: 2
Fore
SplineSet
134 646 m 0xb8
 154 646 176 641 191 636 c 1
 191 593 l 1
 153 593 l 2
 124 593 109 578 109 550 c 2
 109 465 l 1
 191 465 l 1
 191 407 l 1
 109 407 l 1
 109 0 l 1
 47 0 l 1
 47 407 l 1
 8 407 l 1
 8 465 l 1
 47 465 l 1
 47 544 l 2
 47 595 67 646 134 646 c 0xb8
233 639 m 1xd8
 295 639 l 1
 295 555 l 1
 233 555 l 1
 233 639 l 1xd8
233 465 m 1
 295 465 l 1
 295 0 l 1
 233 0 l 1
 233 465 l 1
EndSplineSet
Ligature2: "'liga' Standard Ligatures lookup 10 subtable" f i
EndChar

StartChar: fl
Encoding: 64258 64258 262
Width: 338
GlyphClass: 3
Flags: MW
HStem: 407 58<8 47 8 47 109 191> 593 46<153 295> 593 53<138.5 144 100.5 153 100.5 191>
VStem: 47 62<0 407 0 407 465 544 544 550> 233 62<0 639 0 639>
LayerCount: 2
Fore
SplineSet
134 646 m 0xb8
 154 646 176 641 191 636 c 1
 191 593 l 1
 153 593 l 2
 124 593 109 578 109 550 c 2
 109 465 l 1
 191 465 l 1
 191 407 l 1
 109 407 l 1
 109 0 l 1
 47 0 l 1
 47 407 l 1
 8 407 l 1
 8 465 l 1
 47 465 l 1
 47 544 l 2
 47 595 67 646 134 646 c 0xb8
233 639 m 1xd8
 295 639 l 1
 295 0 l 1
 233 0 l 1
 233 639 l 1xd8
EndSplineSet
Ligature2: "'liga' Standard Ligatures lookup 10 subtable" f l
EndChar

StartChar: ordfeminine
Encoding: 170 170 263
Width: 268
GlyphClass: 2
Flags: MW
HStem: 320 42<97 120> 324 38 470 45<146 180> 609 41<108.5 147.5>
VStem: 20 47<392 436 392 454> 31 45<545 554 545 561 545 591.5> 180 44<440 470 470 470 515 555 555 562>
LayerCount: 2
Fore
SplineSet
261 362 m 1x76
 261 331 l 1
 255 326 244 324 230 324 c 0x7a
 206 324 188 337 181 359 c 1
 164 335 135 320 105 320 c 0
 72 320 20 331 20 409 c 0xba
 20 499 88 515 180 515 c 1
 180 555 l 2
 180 587 168 609 127 609 c 0
 90 609 76 581 76 554 c 2
 76 545 l 1
 31 545 l 1
 31 561 l 2
 31 622 73 650 132 650 c 0
 193 650 224 618 224 562 c 2
 224 380 l 2
 224 366 232 362 239 362 c 2
 261 362 l 1x76
111 362 m 0xba
 139 362 180 386 180 440 c 2
 180 470 l 1
 112 470 67 461 67 411 c 0
 67 373 83 362 111 362 c 0xba
EndSplineSet
EndChar

StartChar: ordmasculine
Encoding: 186 186 264
Width: 264
GlyphClass: 2
Flags: MW
HStem: 319 41<110.5 151.5 110.5 166.5> 609 41<110.5 151.5>
VStem: 22 47<435.5 473 473 496 435.5 541> 194 47<473 496 496 533.5>
LayerCount: 2
Fore
SplineSet
131 650 m 0
 202 650 241 598 241 484 c 0
 241 371 202 319 131 319 c 0
 60 319 22 371 22 484 c 0
 22 598 60 650 131 650 c 0
131 609 m 0
 90 609 69 571 69 496 c 2
 69 473 l 2
 69 398 90 360 131 360 c 0
 172 360 194 398 194 473 c 2
 194 496 l 2
 194 571 172 609 131 609 c 0
EndSplineSet
EndChar

StartChar: nsuperior
Encoding: 8319 8319 265
Width: 257
GlyphClass: 2
Flags: MW
HStem: 609 34 609 41<135 150.5>
VStem: 32 46<325 518 325 643> 181 45<325 553 325 555 325 576.5>
LayerCount: 2
Fore
SplineSet
150 650 m 0x70
 197 650 226 625 226 553 c 2x70
 226 325 l 1
 181 325 l 1
 181 555 l 2
 181 598 163 609 138 609 c 0
 106 609 78 577 78 518 c 2
 78 325 l 1
 32 325 l 1
 32 643 l 1
 66 643 l 1
 73 610 l 1xb0
 90 640 120 650 150 650 c 0x70
EndSplineSet
EndChar

StartChar: Delta
Encoding: 916 916 266
Width: 486
GlyphClass: 2
Flags: MW
HStem: 0 66<93 389 93 479> 534 72<243 246 243 243>
VStem: 15 464<0 30 0 30>
LayerCount: 2
Fore
SplineSet
479 0 m 1
 15 0 l 1
 15 30 l 1
 201 606 l 1
 292 606 l 1
 479 30 l 1
 479 0 l 1
93 66 m 1
 389 66 l 1
 246 534 l 1
 243 534 l 1
 93 66 l 1
EndSplineSet
Position2: "'cpsp' Capital Spacing lookup 0 subtable" dx=5 dy=0 dh=10 dv=0
EndChar

StartChar: Omega
Encoding: 937 937 267
Width: 679
GlyphClass: 2
Flags: MW
HStem: 0 66<105 127 127 184 105 311 105 127 494 552 552 574> 552 65<289.5 389>
VStem: 105 71<251 272 272 325 205 408> 504 70<267 325 325 403>
LayerCount: 2
Fore
SplineSet
339 617 m 0
 486 617 574 513 574 303 c 0
 574 199 546 120 494 66 c 1
 552 66 l 1
 574 66 l 1
 574 0 l 1
 367 0 l 1
 367 49 l 1
 450 66 504 136 504 267 c 2
 504 325 l 2
 504 481 439 552 339 552 c 0
 240 552 176 481 176 325 c 2
 176 272 l 2
 176 138 229 66 311 49 c 1
 311 0 l 1
 105 0 l 1
 105 66 l 1
 127 66 l 1
 184 66 l 1
 133 120 105 199 105 303 c 0
 105 513 194 617 339 617 c 0
EndSplineSet
Position2: "'cpsp' Capital Spacing lookup 0 subtable" dx=5 dy=0 dh=10 dv=0
EndChar

StartChar: mu
Encoding: 956 956 268
Width: 391
GlyphClass: 2
Flags: MW
HStem: -11 56<166 184.5> 445 20G<54 117 117 117 275 337 337 337>
VStem: 54 63<-153 -4 86 114 114 465> 275 62<182 465 0 465>
LayerCount: 2
Fore
SplineSet
283 53 m 1
 277 53 l 1
 251 4 207 -11 162 -11 c 0
 144 -11 130 -9 117 -4 c 1
 117 -153 l 1
 54 -153 l 1
 54 465 l 1
 117 465 l 1
 117 114 l 2
 117 58 148 45 184 45 c 0
 231 45 275 94 275 182 c 2
 275 465 l 1
 337 465 l 1
 337 0 l 1
 292 0 l 1
 283 53 l 1
EndSplineSet
EndChar

StartChar: pi
Encoding: 960 960 269
Width: 473
GlyphClass: 2
Flags: MW
HStem: 407 58<89.5 465 176 327 176 176 390 458 390 390>
VStem: 114 62<407 407> 327 63<130 138 138 407>
LayerCount: 2
Fore
SplineSet
390 407 m 1
 390 138 l 2
 390 65 394 27 401 0 c 1
 340 0 l 1
 332 14 327 59 327 130 c 2
 327 407 l 1
 176 407 l 1
 171 291 147 81 119 0 c 1
 57 0 l 1
 86 96 111 291 114 407 c 1
 65 407 37 404 19 396 c 1
 9 438 l 1
 28 455 66 465 133 465 c 2
 465 465 l 1
 458 407 l 1
 390 407 l 1
EndSplineSet
EndChar

StartChar: kadeva
Encoding: 2325 2325 270
Width: 541
GlyphClass: 2
Flags: MW
HStem: 117 56<142.5 175.5 386.5 407.5> 417 54<142.5 176 118.5 193.5 375.5 407.5> 549 57<-10 244 -10 551 307 551 307 307>
VStem: 27 65<242.5 283 283 305 242.5 360> 244 63<0 154 154 154 283 306 306 329 0 343 437 549> 458 66<283 305 305 346.5>
AnchorPoint: "Anchor-3" 275 0 basechar 0
AnchorPoint: "Anchor-2" 275 606 basechar 0
LayerCount: 2
Fore
SplineSet
307 549 m 1
 307 437 l 1
 310 437 l 1
 327 457 355 471 396 471 c 0
 473 471 524 419 524 295 c 0
 524 171 462 117 389 117 c 0
 384 117 378 118 371 119 c 1
 371 173 l 1
 382 173 l 2
 433 173 458 202 458 283 c 2
 458 305 l 2
 458 388 433 417 382 417 c 0
 338 417 312 388 307 329 c 1
 307 0 l 1
 244 0 l 1
 244 154 l 1
 241 154 l 1
 223 133 196 117 155 117 c 0
 78 117 27 170 27 295 c 0
 27 425 82 471 155 471 c 0
 197 471 223 457 241 437 c 1
 244 437 l 1
 244 549 l 1
 -10 549 l 1
 -10 606 l 1
 551 606 l 1
 551 549 l 1
 307 549 l 1
168 173 m 0
 219 173 244 210 244 283 c 2
 244 306 l 2
 244 380 219 417 168 417 c 0
 117 417 92 388 92 305 c 2
 92 283 l 2
 92 202 117 173 168 173 c 0
EndSplineSet
Ligature2: "Ligature Substitution lookup 2 subtable" kadeva uni0930094D_anusvaradeva
Ligature2: "Ligature Substitution lookup 2 subtable" kadeva uni0930094D
EndChar

StartChar: khadeva
Encoding: 2326 2326 271
Width: 596
GlyphClass: 2
Flags: MW
HStem: 39 54<248.5 332.5> 159 55<382.5 402.5> 271 47 417 54<382.5 402.5 353 424.5> 549 57<-10 157 -10 606 219 219 219 468 530 606 530 530>
VStem: 28 70 157 62<424 428 428 549> 275 65<273 306 306 325 273 372.5> 468 62<0 90 90 90 306 325 325 356 437 549 0 549>
AnchorPoint: "Anchor-3" 499 0 basechar 0
AnchorPoint: "Anchor-2" 499 606 basechar 0
LayerCount: 2
Fore
SplineSet
606 549 m 1
 530 549 l 1
 530 0 l 1
 468 0 l 1
 468 90 l 1
 432 52 366 39 299 39 c 0
 122 39 28 128 28 318 c 1
 61 318 l 2
 123 318 157 355 157 424 c 2
 157 549 l 1
 -10 549 l 1
 -10 606 l 1
 606 606 l 1
 606 549 l 1
468 549 m 1
 219 549 l 1
 219 428 l 2
 219 332 178 278 98 271 c 1
 115 138 195 93 302 93 c 0
 388 93 454 121 467 195 c 1
 464 195 l 1
 448 174 422 159 383 159 c 0
 319 159 275 205 275 316 c 0
 275 429 323 471 383 471 c 0
 422 471 448 457 464 437 c 1
 468 437 l 1
 468 549 l 1
468 306 m 2
 468 325 l 2
 468 387 446 417 403 417 c 0
 362 417 340 392 340 325 c 2
 340 306 l 2
 340 240 362 214 403 214 c 0
 446 214 468 245 468 306 c 2
EndSplineSet
Ligature2: "Ligature Substitution lookup 2 subtable" khadeva uni0930094D_anusvaradeva
Ligature2: "Ligature Substitution lookup 2 subtable" khadeva uni0930094D
EndChar

StartChar: gadeva
Encoding: 2327 2327 272
Width: 483
GlyphClass: 2
Flags: MW
HStem: 119 56<113 140.5 113 158.5> 277 57<111.5 172 124 172> 549 57<-10 172 -10 492 235 353 235 235 416 492 416 416>
VStem: 15 64<212.5 242 212.5 259> 172 63<227 277 277 277 334 549> 353 63<0 549 0 549>
AnchorPoint: "Anchor-3" 384 0 basechar 0
AnchorPoint: "Anchor-2" 384 606 basechar 0
LayerCount: 2
Fore
SplineSet
492 549 m 1
 416 549 l 1
 416 0 l 1
 353 0 l 1
 353 549 l 1
 235 549 l 1
 235 227 l 2
 235 162 191 119 126 119 c 0
 64 119 15 166 15 227 c 0
 15 291 58 334 124 334 c 2
 172 334 l 1
 172 549 l 1
 -10 549 l 1
 -10 606 l 1
 492 606 l 1
 492 549 l 1
126 175 m 0
 155 175 172 196 172 227 c 2
 172 277 l 1
 124 277 l 2
 99 277 79 257 79 227 c 0
 79 198 100 175 126 175 c 0
EndSplineSet
Ligature2: "Ligature Substitution lookup 2 subtable" gadeva uni0930094D_anusvaradeva
Ligature2: "Ligature Substitution lookup 2 subtable" gadeva uni0930094D
EndChar

StartChar: ghadeva
Encoding: 2328 2328 273
Width: 400
GlyphClass: 2
Flags: MW
HStem: 130 55<155.5 193> 351 53<182 183 183 207> 549 57<-10 55 -10 410 120 131 131 271 334 410 334 334>
VStem: 36 64<236 293.5> 271 63<0 172 172 172 317 549 0 549>
AnchorPoint: "Anchor-3" 302 0 basechar 0
AnchorPoint: "Anchor-2" 302 606 basechar 0
LayerCount: 2
Fore
SplineSet
410 549 m 1
 334 549 l 1
 334 0 l 1
 271 0 l 1
 271 172 l 1
 248 145 215 130 171 130 c 0
 93 130 36 177 36 263 c 0
 36 324 69 363 112 382 c 1
 68 395 37 425 37 483 c 0
 37 511 43 533 55 549 c 1
 -10 549 l 1
 -10 606 l 1
 410 606 l 1
 410 549 l 1
178 185 m 0
 238 185 271 223 271 317 c 2
 271 549 l 1
 131 549 l 2
 109 549 100 527 100 496 c 0
 100 432 138 404 182 404 c 2
 207 404 l 1
 207 351 l 1
 183 351 l 2
 141 351 100 331 100 266 c 0
 100 206 133 185 178 185 c 0
EndSplineSet
Ligature2: "Ligature Substitution lookup 2 subtable" ghadeva uni0930094D_anusvaradeva
Ligature2: "Ligature Substitution lookup 2 subtable" ghadeva uni0930094D
EndChar

StartChar: ngadeva
Encoding: 2329 2329 274
Width: 337
GlyphClass: 2
Flags: MW
HStem: -11 57<149 185 149 204> 290.5 63 375 55<159 210 183 210 183 273> 549 57<-10 210 -10 380 273 380 273 273>
VStem: 31 67<104.5 129.5> 38 67<276.5 326 276.5 344> 210 63<430 549 375 549> 231 67<94.5 147.5> 295 63.5
AnchorPoint: "Anchor-3" 167 0 basechar 0
AnchorPoint: "Anchor-2" 241 606 basechar 0
LayerCount: 2
Fore
SplineSet
380 606 m 1xb6
 380 549 l 1
 273 549 l 1
 273 375 l 1
 180 375 l 2
 138 375 105 348 105 304 c 0xb6
 105 249 149 245 182 241 c 0
 262 233 298 197 298 124 c 0
 298 35 243 -11 165 -11 c 0
 66 -11 31 58 31 124 c 0
 31 135 32 142 32 144 c 2
 98 144 l 1
 98 135 l 2
 98 74 130 46 168 46 c 0
 202 46 231 70 231 119 c 0xb9
 231 176 194 180 157 184 c 0
 75 191 38 232 38 301 c 0
 38 387 98 430 183 430 c 2
 210 430 l 1
 210 549 l 1
 -10 549 l 1
 -10 606 l 1
 380 606 l 1xb6
295 354 m 1xf680
 358 353 l 1
 359 291 l 1
 295 290 l 1
 295 354 l 1xf680
EndSplineSet
Ligature2: "Ligature Substitution lookup 2 subtable" ngadeva uni0930094D_anusvaradeva
Ligature2: "Ligature Substitution lookup 2 subtable" ngadeva uni0930094D
EndChar

StartChar: cadeva
Encoding: 2330 2330 275
Width: 413
GlyphClass: 2
Flags: MW
HStem: 112 55<183 215.5> 364 58<14 99 14 224 183 208 208 224> 549 57<-10 284 -10 423 347 423 347 347>
VStem: 67 66<222 255 255 273 222 286> 284 63<0 147 147 147 278 549 0 549>
AnchorPoint: "Anchor-3" 315 0 basechar 0
AnchorPoint: "Anchor-2" 315 606 basechar 0
LayerCount: 2
Fore
SplineSet
423 549 m 1
 347 549 l 1
 347 0 l 1
 284 0 l 1
 284 147 l 1
 281 147 l 1
 264 126 236 112 195 112 c 0
 118 112 67 156 67 263 c 0
 67 309 79 342 99 364 c 1
 14 364 l 1
 14 422 l 1
 224 422 l 1
 224 364 l 1
 208 364 l 2
 158 364 133 340 133 273 c 2
 133 255 l 2
 133 189 158 167 208 167 c 0
 259 167 284 204 284 278 c 2
 284 549 l 1
 -10 549 l 1
 -10 606 l 1
 423 606 l 1
 423 549 l 1
EndSplineSet
Ligature2: "Ligature Substitution lookup 2 subtable" cadeva uni0930094D_anusvaradeva
Ligature2: "Ligature Substitution lookup 2 subtable" cadeva uni0930094D
EndChar

StartChar: chadeva
Encoding: 2331 2331 276
Width: 433
GlyphClass: 2
Flags: MW
HStem: 55 55<176 252.5 176 270> 354 20 549 57<-7 60 -7 443 128 142 142 284 346 443 346 346>
VStem: 39 64<183 242> 225 61<354 400> 284 62<457 549 457 549 457 549> 351 59<298 322 322 341>
AnchorPoint: "Anchor-3" 217 0 basechar 0
AnchorPoint: "Anchor-2" 315 606 basechar 0
LayerCount: 2
Fore
SplineSet
346 549 m 1xf4
 346 457 l 1xf4
 389 442 410 391 410 307 c 0xf2
 410 144 333 55 207 55 c 0
 105 55 39 113 39 210 c 0
 39 274 67 329 115 352 c 1
 77 359 40 386 40 471 c 0
 40 507 47 532 60 549 c 1
 -7 549 l 1
 -7 606 l 1
 443 606 l 1
 443 549 l 1
 346 549 l 1xf4
284 549 m 1
 142 549 l 2
 114 549 103 514 103 473 c 0
 103 403 133 374 166 374 c 2
 195 374 l 1
 195 321 l 1
 167 321 l 2
 135 321 103 286 103 223 c 0
 103 143 145 110 207 110 c 0
 298 110 351 180 351 298 c 2
 351 322 l 2
 351 360 343 406 315 406 c 0
 294 406 286 385 286 365 c 2
 286 354 l 1
 229 354 l 1
 227 359 225 369 225 380 c 0xfa
 225 420 254 445 284 455 c 1
 284 549 l 1
EndSplineSet
Ligature2: "Ligature Substitution lookup 2 subtable" chadeva uni0930094D_anusvaradeva
Ligature2: "Ligature Substitution lookup 2 subtable" chadeva uni0930094D
EndChar

StartChar: jadeva
Encoding: 2332 2332 277
Width: 462
GlyphClass: 2
Flags: MW
HStem: 112 56<135.5 173 135.5 194.5> 361 58<129 157 238 334 238 238> 549 57<-10 334 -10 473 396 473 396 396>
VStem: 26 64<214 238> 219 64<220 273.5 206 280> 334 62<0 361 361 361 419 549 0 549>
AnchorPoint: "Anchor-3" 365 0 basechar 0
AnchorPoint: "Anchor-2" 365 606 basechar 0
LayerCount: 2
Fore
SplineSet
473 549 m 1
 396 549 l 1
 396 0 l 1
 334 0 l 1
 334 361 l 1
 238 361 l 1
 266 337 283 300 283 247 c 0
 283 165 234 112 155 112 c 0
 78 112 26 156 26 232 c 0
 26 244 27 256 29 268 c 1
 90 268 l 1
 90 239 l 2
 90 189 117 168 154 168 c 0
 192 168 219 193 219 247 c 0
 219 313 185 361 129 361 c 1
 129 419 l 1
 334 419 l 1
 334 549 l 1
 -10 549 l 1
 -10 606 l 1
 473 606 l 1
 473 549 l 1
EndSplineSet
Ligature2: "Ligature Substitution lookup 2 subtable" jadeva uni0930094D_anusvaradeva
Ligature2: "Ligature Substitution lookup 2 subtable" jadeva uni0930094D
EndChar

StartChar: jhadeva
Encoding: 2333 2333 278
Width: 522
GlyphClass: 2
Flags: MW
HStem: -11 57<158 185 149 210.5> 201 49<268 393 268 268> 375 55<159 210 183 210 183 273> 549 57<-10 210 -10 532 273 273 273 393 455 532 455 455>
VStem: 36 62<-84 8 104.5 135 135 144> 38 67<283.5 328 283.5 347> 210 63<430 549 375 549> 231 67<96.5 137.5 75.5 153> 393 62<0 201 201 201 250 549 0 549>
AnchorPoint: "Anchor-3" 424 0 basechar 0
AnchorPoint: "Anchor-2" 424 606 basechar 0
LayerCount: 2
Fore
SplineSet
532 549 m 1xfa80
 455 549 l 1
 455 0 l 1
 393 0 l 1
 393 201 l 1
 268 201 l 1
 288 184 298 157 298 118 c 0
 298 33 247 -11 174 -11 c 0
 142 -11 117 -4 98 8 c 1
 98 -84 l 1
 36 -84 l 1
 36 144 l 1
 98 144 l 1
 98 135 l 2xf980
 98 74 130 46 168 46 c 0
 202 46 231 70 231 123 c 0
 231 183 194 188 157 192 c 0
 75 199 38 238 38 306 c 0xf580
 38 388 98 430 183 430 c 2
 210 430 l 1
 210 549 l 1
 -10 549 l 1
 -10 606 l 1
 532 606 l 1
 532 549 l 1xfa80
393 549 m 1
 273 549 l 1
 273 375 l 1
 180 375 l 2
 138 375 105 348 105 308 c 0
 105 259 149 250 182 250 c 2xf680
 393 250 l 1
 393 549 l 1
EndSplineSet
Ligature2: "Ligature Substitution lookup 2 subtable" jhadeva uni0930094D_anusvaradeva
Ligature2: "Ligature Substitution lookup 2 subtable" jhadeva uni0930094D
EndChar

StartChar: nyadeva
Encoding: 2334 2334 279
Width: 463
GlyphClass: 2
Flags: MW
HStem: 115 58<118.5 159.5 118.5 180.5> 250 58<265 334 265 334> 381 58<120.5 162> 549 57<-10 334 -10 473 397 473 397 397>
VStem: 27 62<320 339.5 320 356.5> 203 62<250 288 250 308 250 319> 334 63<0 250 250 250 308 549 0 549>
AnchorPoint: "Anchor-3" 365 0 basechar 0
AnchorPoint: "Anchor-2" 365 606 basechar 0
LayerCount: 2
Fore
SplineSet
473 549 m 1
 397 549 l 1
 397 0 l 1
 334 0 l 1
 334 250 l 1
 265 250 l 1
 258 158 216 115 145 115 c 0
 91 115 45 140 17 167 c 1
 17 238 l 1
 57 193 101 173 136 173 c 0
 183 173 203 204 203 260 c 2
 203 288 l 2
 203 350 184 381 140 381 c 0
 101 381 89 359 89 320 c 1
 27 320 l 1
 27 393 58 439 139 439 c 0
 217 439 258 396 265 308 c 1
 334 308 l 1
 334 549 l 1
 -10 549 l 1
 -10 606 l 1
 473 606 l 1
 473 549 l 1
EndSplineSet
Ligature2: "Ligature Substitution lookup 2 subtable" nyadeva uni0930094D_anusvaradeva
Ligature2: "Ligature Substitution lookup 2 subtable" nyadeva uni0930094D
EndChar

StartChar: ttadeva
Encoding: 2335 2335 280
Width: 359
GlyphClass: 2
Flags: MW
HStem: 54 57<159 221.5 159 240> 379 55<164.5 221 194 221 194 283> 549 57<-10 221 -10 369 283 283 283 369>
VStem: 26 66<198 288 198 301.5> 221 62<434 549> 274 60<203 218 203 218>
AnchorPoint: "Anchor-3" 190 0 basechar 0
AnchorPoint: "Anchor-2" 252 606 basechar 0
LayerCount: 2
Fore
SplineSet
283 379 m 1xf8
 193 379 l 2
 136 379 92 335 92 241 c 0
 92 155 126 111 192 111 c 0
 251 111 273 148 274 210 c 2
 274 218 l 1
 333 218 l 1
 334 210 334 206 334 203 c 0xf4
 335 130 293 54 187 54 c 0
 88 54 26 119 26 240 c 0
 26 363 90 434 194 434 c 2
 221 434 l 1
 221 549 l 1
 -10 549 l 1
 -10 606 l 1
 369 606 l 1
 369 549 l 1
 283 549 l 1
 283 379 l 1xf8
EndSplineSet
Ligature2: "Ligature Substitution lookup 2 subtable" ttadeva uni0930094D_anusvaradeva
Ligature2: "Ligature Substitution lookup 2 subtable" ttadeva uni0930094D
EndChar

StartChar: tthadeva
Encoding: 2336 2336 281
Width: 377
GlyphClass: 2
Flags: MW
HStem: 54 57<157 218 157 238> 379 55<164 220 196 220 196 229> 549 57<-10 220 -10 387 282 387 282 282>
VStem: 26 66<198 286 198 302> 220 62<434 549 412 549> 284 67<197.5 272.5>
AnchorPoint: "Anchor-3" 197 0 basechar 0
AnchorPoint: "Anchor-2" 251 606 basechar 0
LayerCount: 2
Fore
SplineSet
282 549 m 1
 282 412 l 1xf8
 327 374 351 315 351 241 c 0xf4
 351 118 289 54 187 54 c 0
 87 54 26 118 26 241 c 0
 26 363 87 434 196 434 c 2
 220 434 l 1
 220 549 l 1
 -10 549 l 1
 -10 606 l 1
 387 606 l 1
 387 549 l 1
 282 549 l 1
187 111 m 0xf4
 249 111 284 155 284 240 c 0
 284 305 262 353 229 379 c 1
 195 379 l 2
 133 379 92 331 92 241 c 0
 92 155 127 111 187 111 c 0xf4
EndSplineSet
Ligature2: "Ligature Substitution lookup 2 subtable" tthadeva uni0930094D_anusvaradeva
Ligature2: "Ligature Substitution lookup 2 subtable" tthadeva uni0930094D
EndChar

StartChar: ddadeva
Encoding: 2337 2337 282
Width: 337
GlyphClass: 2
Flags: MW
HStem: -11 57<149 185 149 204> 375 55<159 210 183 210 183 273> 549 57<-10 210 -10 347 273 273 273 347>
VStem: 31 67<104.5 129.5> 38 67<276.5 326 276.5 344> 210 63<430 549> 231 67<94.5 147.5>
AnchorPoint: "Anchor-3" 168 0 basechar 0
AnchorPoint: "Anchor-2" 241 606 basechar 0
LayerCount: 2
Fore
SplineSet
273 375 m 1xec
 180 375 l 2
 138 375 105 348 105 304 c 0xec
 105 249 149 245 182 241 c 0
 262 233 298 197 298 124 c 0
 298 35 243 -11 165 -11 c 0
 66 -11 31 58 31 124 c 0
 31 135 32 142 32 144 c 2
 98 144 l 1
 98 135 l 2
 98 74 130 46 168 46 c 0
 202 46 231 70 231 119 c 0xf2
 231 176 194 180 157 184 c 0
 75 191 38 232 38 301 c 0
 38 387 98 430 183 430 c 2
 210 430 l 1
 210 549 l 1
 -10 549 l 1
 -10 606 l 1
 347 606 l 1
 347 549 l 1
 273 549 l 1
 273 375 l 1xec
EndSplineSet
Ligature2: "Ligature Substitution lookup 2 subtable" ddadeva uni0930094D_anusvaradeva
Ligature2: "Ligature Substitution lookup 2 subtable" ddadeva uni0930094D
EndChar

StartChar: ddhadeva
Encoding: 2338 2338 283
Width: 375
GlyphClass: 2
Flags: MW
HStem: 56 59<214 242.5 214 245.5> 231 58<213.5 243> 375 55<163 229 198 229 198 291> 549 57<-10 229 -10 385 291 291 291 385>
VStem: 27 66<210.5 276.5 210.5 299> 123 59<170.5 193 152.5 206.5> 229 62<430 549> 273 64<156 194>
AnchorPoint: "Anchor-3" 195 0 basechar 0
AnchorPoint: "Anchor-2" 260 606 basechar 0
LayerCount: 2
Fore
SplineSet
291 375 m 1xfa
 197 375 l 2
 129 375 93 321 93 232 c 0xfa
 93 189 101 150 135 130 c 1
 127 143 123 160 123 181 c 0
 123 232 147 289 228 289 c 0
 304 289 337 238 337 180 c 0xfd
 337 104 284 56 207 56 c 0
 100 56 27 118 27 244 c 0
 27 354 85 430 198 430 c 2
 229 430 l 1
 229 549 l 1
 -10 549 l 1
 -10 606 l 1
 385 606 l 1
 385 549 l 1
 291 549 l 1
 291 375 l 1xfa
228 231 m 0xfd
 199 231 182 212 182 174 c 0
 182 131 199 115 229 115 c 0
 256 115 273 136 273 176 c 0
 273 212 258 231 228 231 c 0xfd
EndSplineSet
Ligature2: "Ligature Substitution lookup 2 subtable" ddhadeva uni0930094D_anusvaradeva
Ligature2: "Ligature Substitution lookup 2 subtable" ddhadeva uni0930094D
EndChar

StartChar: nnadeva
Encoding: 2339 2339 284
Width: 566
GlyphClass: 2
Flags: MW
HStem: 120 59<164.5 208 164.5 229.5> 549 57<-10 55 -10 576 117 117 117 256 319 437 319 319 499 576 499 499>
VStem: 55 62<258 549> 256 63<258 549 258 549 258 549> 437 62<0 549 0 549>
AnchorPoint: "Anchor-3" 467 0 basechar 0
AnchorPoint: "Anchor-2" 467 606 basechar 0
LayerCount: 2
Fore
SplineSet
576 549 m 1
 499 549 l 1
 499 0 l 1
 437 0 l 1
 437 549 l 1
 319 549 l 1
 319 258 l 2
 320 168 272 120 187 120 c 0
 100 120 55 168 55 258 c 2
 55 549 l 1
 -10 549 l 1
 -10 606 l 1
 576 606 l 1
 576 549 l 1
256 549 m 1
 117 549 l 1
 117 252 l 2
 117 204 142 179 187 179 c 0
 229 179 256 204 256 252 c 2
 256 549 l 1
EndSplineSet
Ligature2: "Ligature Substitution lookup 2 subtable" nnadeva uni0930094D_anusvaradeva
Ligature2: "Ligature Substitution lookup 2 subtable" nnadeva uni0930094D
EndChar

